{
.appVersion = "3124";
.formatVersion = 3;
axes = (
{
default = 400;
name = Weight;
tag = wght;
},
{
default = 100;
name = Width;
tag = wdth;
}
);
classes = (
{
automatic = 1;

glyphs = (
{
color = 9;
glyphname = A;
kernLeft = A;
kernRight = A;
layers = (
{
anchors = (
{
name = bottom;
pos = (328,0);
},
{
name = ogonek;
pos = (636,0);
},
{
name = top;
pos = (327,690);
}
);
layerId = master01;
shapes = (
{
closed = 1;
nodes = (
(166,0,l),
(343,534,l),
(335,690,l),
(251,690,l),
(0,0,l)
);
},
{
closed = 1;
nodes = (
(495,136,l),
(495,263,l),
(169,263,l),
(169,136,l)
);
},
{
closed = 1;
nodes = (
(486,0,l),
(656,0,l),
(405,690,l),
(313,690,l),
(309,534,l)
);
}
);
userData = {
com.schriftgestaltung.Glyphs.lastChange = "2021-03-11 04:15:08 +0000";
};
width = 656;
},
{
anchors = (
{
name = bottom;
pos = (275,0);
},
{
name = ogonek;
pos = (535,0);
},
{
name = top;
pos = (275,690);
}
);
layerId = master02;
shapes = (
{
closed = 1;
nodes = (
(143,0,l),
(283,544,l),
(276,690,l),
(195,690,l),
(-2,0,l)
);
},
{
closed = 1;
nodes = (
(414,145,l),
(414,266,l),
(144,266,l),
(144,145,l)
);
},
{
closed = 1;
nodes = (
(405,0,l),
(553,0,l),
(356,690,l),
(268,690,l),
(265,544,l)
);
}
);
userData = {
com.schriftgestaltung.Glyphs.lastChange = "2021-03-11 05:51:32 +0000";
};
width = 551;
},
{
anchors = (
{
name = bottom;
pos = (247,0);
},
{
name = ogonek;
pos = (463,0);
},
{
name = top;
pos = (240,690);
}
);
layerId = master03;
shapes = (
{
closed = 1;
nodes = (
(77,0,l),
(255,654,l),
(253,690,l),
(216,690,l),
(15,0,l)
);
},
{
closed = 1;
nodes = (
(363,226,l),
(363,280,l),
(119,280,l),
(119,226,l)
);
},
{
closed = 1;
nodes = (
(410,0,l),
(475,0,l),
(268,690,l),
(227,690,l),
(229,654,l)
);
}
);
userData = {
com.schriftgestaltung.Glyphs.lastChange = "2021-03-30 22:34:27 +0000";
};
width = 490;
},
{
anchors = (
{
name = bottom;
pos = (263,0);
},
{
name = ogonek;
pos = (475,0);
},
{
name = top;
pos = (262,690);
}
);
layerId = master04;
shapes = (
{
closed = 1;
nodes = (
(105,0,l),
(272,616,l),
(268,690,l),
(212,690,l),
(15,0,l)
);
},
{
closed = 1;
nodes = (
(403,177,l),
(403,261,l),
(124,261,l),
(124,177,l)
);
},
{
closed = 1;
nodes = (
(417,0,l),
(510,0,l),
(313,690,l),
(251,690,l),
(250,616,l)
);
}
);
userData = {
com.schriftgestaltung.Glyphs.lastChange = "2021-03-11 04:56:33 +0000";
};
width = 525;
},
{
anchors = (
{
name = bottom;
pos = (295,0);
},
{
name = ogonek;
pos = (555,0);
},
{
name = top;
pos = (295,690);
}
);
layerId = master05;
shapes = (
{
closed = 1;
nodes = (
(82,0,l),
(311,645,l),
(309,690,l),
(269,690,l),
(20,0,l)
);
},
{
closed = 1;
nodes = (
(440,226,l),
(440,280,l),
(147,280,l),
(147,226,l)
);
},
{
closed = 1;
nodes = (
(505,0,l),
(570,0,l),
(321,690,l),
(277,690,l),
(279,645,l)
);
}
);
userData = {
com.schriftgestaltung.Glyphs.lastChange = "2021-03-11 21:11:18 +0000";
};
width = 590;
},
{
anchors = (
{
name = bottom;
pos = (328,0);
},
{
name = ogonek;
pos = (619,0);
},
{
name = top;
pos = (328,690);
}
);
layerId = master06;
shapes = (
{
closed = 1;
nodes = (
(120,0,l),
(343,600,l),
(335,690,l),
(286,690,l),
(20,0,l)
);
},
{
closed = 1;
nodes = (
(506,194,l),
(506,280,l),
(150,280,l),
(150,194,l)
);
},
{
closed = 1;
nodes = (
(532,0,l),
(636,0,l),
(370,690,l),
(313,690,l),
(309,600,l)
);
}
);
userData = {
com.schriftgestaltung.Glyphs.lastChange = "2021-03-11 21:46:06 +0000";
};
width = 656;
}
);
unicode = 65;
},
{
color = 9;
glyphname = "Alpha-latin";
kernLeft = O;
kernRight = H;
layers = (
{
anchors = (
{
name = bottom;
pos = (279,0);
},
{
name = top;
pos = (279,690);
}
);
background = {
shapes = (
{
closed = 1;
nodes = (
(480,690,l),
(418,690,l),
(418,0,l),
(480,0,l)
);
},
{
closed = 1;
nodes = (
(45,152,o),
(105,-8,o),
(263,-8,cs),
(421,-8,o),
(481,152,o),
(481,345,cs),
(481,538,o),
(421,698,o),
(263,698,cs),
(105,698,o),
(45,538,o),
(45,345,cs)
);
},
{
closed = 1;
nodes = (
(109,502,o),
(138,641,o),
(263,641,cs),
(388,641,o),
(417,502,o),
(417,345,cs),
(417,188,o),
(388,49,o),
(263,49,cs),
(138,49,o),
(109,188,o),
(109,345,cs)
);
}
);
};
layerId = master03;
shapes = (
{
closed = 1;
nodes = (
(480,690,l),
(418,690,l),
(418,0,l),
(480,0,l)
);
},
{
closed = 1;
nodes = (
(45,152,o),
(105,-8,o),
(263,-8,cs),
(421,-8,o),
(458,172,o),
(458,345,cs),
(458,518,o),
(421,698,o),
(263,698,cs),
(105,698,o),
(45,538,o),
(45,345,cs)
);
},
{
closed = 1;
nodes = (
(109,502,o),
(138,641,o),
(263,641,cs),
(388,641,o),
(417,502,o),
(417,345,cs),
(417,188,o),
(388,49,o),
(263,49,cs),
(138,49,o),
(109,188,o),
(109,345,cs)
);
}
);
userData = {
com.schriftgestaltung.Glyphs.lastChange = "2021-03-30 23:21:30 +0000";
};
width = 557;
},
{
anchors = (
{
name = bottom;
pos = (307,0);
},
{
name = top;
pos = (307,690);
}
);
background = {
shapes = (
{
closed = 1;
nodes = (
(537,690,l),
(447,690,l),
(447,0,l),
(537,0,l)
);
},
{
closed = 1;
nodes = (
(45,101,o),
(157,-10,o),
(293,-10,cs),
(428,-10,o),
(540,101,o),
(540,345,cs),
(540,589,o),
(428,700,o),
(293,700,cs),
(157,700,o),
(45,589,o),
(45,345,cs)
);
},
{
closed = 1;
nodes = (
(138,534,o),
(204,614,o),
(293,614,cs),
(381,614,o),
(447,534,o),
(447,345,cs),
(447,156,o),
(381,76,o),
(293,76,cs),
(204,76,o),
(138,156,o),
(138,345,cs)
);
}
);
};
layerId = master04;
shapes = (
{
closed = 1;
nodes = (
(537,690,l),
(447,690,l),
(447,0,l),
(537,0,l)
);
},
{
closed = 1;
nodes = (
(45,101,o),
(157,-10,o),
(282,-10,cs),
(413,-10,o),
(496,122,o),
(496,345,cs),
(496,568,o),
(413,700,o),
(282,700,cs),
(157,700,o),
(45,589,o),
(45,345,cs)
);
},
{
closed = 1;
nodes = (
(138,534,o),
(204,614,o),
(293,614,cs),
(381,614,o),
(447,534,o),
(447,345,cs),
(447,156,o),
(381,76,o),
(293,76,cs),
(204,76,o),
(138,156,o),
(138,345,cs)
);
}
);
userData = {
com.schriftgestaltung.Glyphs.lastChange = "2021-03-11 04:56:33 +0000";
};
width = 614;
},
{
anchors = (
{
name = bottom;
pos = (329,0);
},
{
name = top;
pos = (329,690);
}
);
background = {
shapes = (
{
closed = 1;
nodes = (
(588,690,l),
(446,690,l),
(446,0,l),
(588,0,l)
);
},
{
closed = 1;
nodes = (
(36,111,o),
(151,-12,o),
(314,-12,c),
(476,-12,o),
(591,111,o),
(591,345,cs),
(591,579,o),
(476,702,o),
(314,702,cs),
(151,702,o),
(36,579,o),
(36,345,cs)
);
},
{
closed = 1;
nodes = (
(181,504,o),
(231,567,o),
(314,567,cs),
(396,567,o),
(446,504,o),
(446,345,cs),
(446,186,o),
(396,123,o),
(314,123,c),
(231,123,o),
(181,186,o),
(181,345,cs)
);
}
);
};
layerId = master02;
shapes = (
{
closed = 1;
nodes = (
(588,690,l),
(446,690,l),
(446,0,l),
(588,0,l)
);
},
{
closed = 1;
nodes = (
(36,111,o),
(161,-12,o),
(290,-12,cs),
(426,-12,o),
(501,131,o),
(501,345,cs),
(501,559,o),
(425,702,o),
(289,702,cs),
(160,702,o),
(36,579,o),
(36,345,cs)
);
},
{
closed = 1;
nodes = (
(181,504,o),
(231,567,o),
(314,567,cs),
(396,567,o),
(446,504,o),
(446,345,cs),
(446,186,o),
(396,123,o),
(314,123,cs),
(231,123,o),
(181,186,o),
(181,345,cs)
);
}
);
userData = {
com.schriftgestaltung.Glyphs.lastChange = "2021-03-11 05:51:32 +0000";
};
width = 657;
},
{
anchors = (
{
name = bottom;
pos = (377,0);
},
{
name = top;
pos = (377,690);
}
);
background = {
shapes = (
{
closed = 1;
nodes = (
(644,690,l),
(582,690,l),
(582,0,l),
(644,0,l)
);
},
{
closed = 1;
nodes = (
(70,112,o),
(200,-8,o),
(358,-8,cs),
(516,-8,o),
(646,112,o),
(646,345,cs),
(646,578,o),
(516,698,o),
(358,698,cs),
(200,698,o),
(70,578,o),
(70,345,cs)
);
},
{
closed = 1;
nodes = (
(134,542,o),
(233,641,o),
(358,641,cs),
(483,641,o),
(582,542,o),
(582,345,cs),
(582,148,o),
(483,49,o),
(358,49,cs),
(233,49,o),
(134,148,o),
(134,345,cs)
);
}
);
};
layerId = master05;
shapes = (
{
closed = 1;
nodes = (
(644,690,l),
(582,690,l),
(582,0,l),
(644,0,l)
);
},
{
closed = 1;
nodes = (
(70,112,o),
(200,-8,o),
(356,-8,cs),
(506,-8,o),
(619,108,o),
(619,345,cs),
(619,582,o),
(506,698,o),
(356,698,cs),
(200,698,o),
(70,578,o),
(70,345,cs)
);
},
{
closed = 1;
nodes = (
(134,542,o),
(233,641,o),
(358,641,cs),
(483,641,o),
(582,542,o),
(582,345,cs),
(582,148,o),
(483,49,o),
(358,49,cs),
(233,49,o),
(134,148,o),
(134,345,cs)
);
}
);
userData = {
com.schriftgestaltung.Glyphs.lastChange = "2021-03-11 21:12:00 +0000";
};
width = 754;
},
{
anchors = (
{
name = bottom;
pos = (382,0);
},
{
name = top;
pos = (382,690);
}
);
background = {
shapes = (
{
closed = 1;
nodes = (
(663,690,l),
(567,690,l),
(567,0,l),
(663,0,l)
);
},
{
closed = 1;
nodes = (
(60,112,o),
(197,-10,o),
(363,-10,cs),
(529,-10,o),
(666,112,o),
(666,345,cs),
(666,578,o),
(529,700,o),
(363,700,cs),
(197,700,o),
(60,578,o),
(60,345,cs)
);
},
{
closed = 1;
nodes = (
(159,522,o),
(246,611,o),
(363,611,cs),
(480,611,o),
(567,522,o),
(567,345,cs),
(567,168,o),
(480,79,o),
(363,79,cs),
(246,79,o),
(159,168,o),
(159,345,cs)
);
}
);
};
layerId = master06;
shapes = (
{
closed = 1;
nodes = (
(663,690,l),
(567,690,l),
(567,0,l),
(663,0,l)
);
},
{
closed = 1;
nodes = (
(60,112,o),
(197,-10,o),
(357,-10,cs),
(505,-10,o),
(624,116,o),
(624,345,cs),
(624,574,o),
(505,700,o),
(357,700,cs),
(197,700,o),
(60,578,o),
(60,345,cs)
);
},
{
closed = 1;
nodes = (
(159,522,o),
(246,611,o),
(363,611,cs),
(480,611,o),
(567,522,o),
(567,345,cs),
(567,168,o),
(480,79,o),
(363,79,cs),
(246,79,o),
(159,168,o),
(159,345,cs)
);
}
);
userData = {
com.schriftgestaltung.Glyphs.lastChange = "2021-03-11 21:46:06 +0000";
};
width = 763;
},
{
anchors = (
{
name = bottom;
pos = (391,0);
},
{
name = top;
pos = (391,690);
}
);
background = {
shapes = (
{
closed = 1;
nodes = (
(696,690,l),
(536,690,l),
(536,0,l),
(696,0,l)
);
},
{
closed = 1;
nodes = (
(45,122,o),
(192,-12,o),
(372,-12,cs),
(552,-12,o),
(699,122,o),
(699,345,cs),
(699,568,o),
(552,702,o),
(372,702,cs),
(192,702,o),
(45,568,o),
(45,345,cs)
);
},
{
closed = 1;
nodes = (
(208,489,o),
(278,559,o),
(372,559,cs),
(466,559,o),
(536,489,o),
(536,345,cs),
(536,201,o),
(466,131,o),
(372,131,cs),
(278,131,o),
(208,201,o),
(208,345,cs)
);
}
);
};
layerId = master01;
shapes = (
{
closed = 1;
nodes = (
(696,690,l),
(536,690,l),
(536,0,l),
(696,0,l)
);
},
{
closed = 1;
nodes = (
(45,125,o),
(187,-12,o),
(347,-12,cs),
(517,-12,o),
(596,159,o),
(596,345,cs),
(596,531,o),
(517,702,o),
(347,702,cs),
(188,702,o),
(45,565,o),
(45,345,cs)
);
},
{
closed = 1;
nodes = (
(208,489,o),
(278,559,o),
(372,559,cs),
(466,559,o),
(536,489,o),
(536,345,cs),
(536,201,o),
(466,131,o),
(372,131,cs),
(278,131,o),
(208,201,o),
(208,345,cs)
);
}
);
userData = {
com.schriftgestaltung.Glyphs.lastChange = "2021-03-11 21:46:45 +0000";
};
width = 781;
}
);
metricLeft = O;
metricRight = H;
unicode = 11373;
},
{
color = 9;
glyphname = Astroke;
kernLeft = A;
layers = (
{
background = {
shapes = (
{
closed = 1;
nodes = (
(77,0,l),
(255,654,l),
(253,690,l),
(216,690,l),
(15,0,l)
);
},
{
closed = 1;
nodes = (
(363,226,l),
(363,280,l),
(119,280,l),
(119,226,l)
);
},
{
closed = 1;
nodes = (
(410,0,l),
(475,0,l),
(268,690,l),
(227,690,l),
(229,654,l)
);
},
{
closed = 1;
nodes = (
(61,-100,l),
(496,790,l),
(441,790,l),
(6,-100,l)
);
}
);
};
layerId = master03;
shapes = (
{
closed = 1;
nodes = (
(77,0,l),
(255,654,l),
(253,690,l),
(216,690,l),
(15,0,l)
);
},
{
closed = 1;
nodes = (
(363,226,l),
(363,280,l),
(119,280,l),
(119,226,l)
);
},
{
closed = 1;
nodes = (
(410,0,l),
(475,0,l),
(268,690,l),
(227,690,l),
(229,654,l)
);
},
{
closed = 1;
nodes = (
(66,-100,l),
(436,790,l),
(383,790,l),
(13,-100,l)
);
}
);
userData = {
com.schriftgestaltung.Glyphs.lastChange = "2021-03-30 22:34:27 +0000";
};
width = 490;
},
{
background = {
shapes = (
{
closed = 1;
nodes = (
(105,0,l),
(272,616,l),
(268,690,l),
(212,690,l),
(15,0,l)
);
},
{
closed = 1;
nodes = (
(403,157,l),
(403,241,l),
(124,241,l),
(124,157,l)
);
},
{
closed = 1;
nodes = (
(417,0,l),
(510,0,l),
(313,690,l),
(251,690,l),
(250,616,l)
);
},
{
closed = 1;
nodes = (
(81,-100,l),
(506,790,l),
(431,790,l),
(6,-100,l)
);
}
);
};
layerId = master04;
shapes = (
{
closed = 1;
nodes = (
(105,0,l),
(272,616,l),
(268,690,l),
(212,690,l),
(15,0,l)
);
},
{
closed = 1;
nodes = (
(403,157,l),
(403,241,l),
(124,241,l),
(124,157,l)
);
},
{
closed = 1;
nodes = (
(417,0,l),
(510,0,l),
(313,690,l),
(251,690,l),
(250,616,l)
);
},
{
closed = 1;
nodes = (
(81,-100,l),
(486,790,l),
(411,790,l),
(6,-100,l)
);
}
);
userData = {
com.schriftgestaltung.Glyphs.lastChange = "2021-03-11 04:56:33 +0000";
};
width = 525;
},
{
layerId = master02;
shapes = (
{
closed = 1;
nodes = (
(143,0,l),
(283,544,l),
(276,690,l),
(195,690,l),
(-2,0,l)
);
},
{
closed = 1;
nodes = (
(414,105,l),
(414,226,l),
(144,226,l),
(144,105,l)
);
},
{
closed = 1;
nodes = (
(405,0,l),
(553,0,l),
(356,690,l),
(268,690,l),
(265,544,l)
);
},
{
closed = 1;
nodes = (
(141,-100,l),
(566,790,l),
(474,790,l),
(49,-100,l)
);
}
);
userData = {
com.schriftgestaltung.Glyphs.lastChange = "2021-03-11 05:51:32 +0000";
};
width = 551;
},
{
layerId = master05;
shapes = (
{
closed = 1;
nodes = (
(82,0,l),
(311,645,l),
(309,690,l),
(269,690,l),
(20,0,l)
);
},
{
closed = 1;
nodes = (
(440,226,l),
(440,280,l),
(147,280,l),
(147,226,l)
);
},
{
closed = 1;
nodes = (
(505,0,l),
(570,0,l),
(321,690,l),
(277,690,l),
(279,645,l)
);
},
{
closed = 1;
nodes = (
(64,-100,l),
(556,790,l),
(498,790,l),
(6,-100,l)
);
}
);
userData = {
com.schriftgestaltung.Glyphs.lastChange = "2021-03-11 21:11:18 +0000";
};
width = 590;
},
{
layerId = master06;
shapes = (
{
closed = 1;
nodes = (
(120,0,l),
(343,600,l),
(335,690,l),
(286,690,l),
(20,0,l)
);
},
{
closed = 1;
nodes = (
(506,174,l),
(506,260,l),
(150,260,l),
(150,174,l)
);
},
{
closed = 1;
nodes = (
(532,0,l),
(636,0,l),
(370,690,l),
(313,690,l),
(309,600,l)
);
},
{
closed = 1;
nodes = (
(94,-100,l),
(609,790,l),
(531,790,l),
(16,-100,l)
);
}
);
userData = {
com.schriftgestaltung.Glyphs.lastChange = "2021-03-11 21:46:06 +0000";
};
width = 656;
},
{
background = {
shapes = (
{
closed = 1;
nodes = (
(98,-100,l),
(613,790,l),
(535,790,l),
(20,-100,l)
);
}
);
};
layerId = master01;
shapes = (
{
closed = 1;
nodes = (
(166,0,l),
(343,534,l),
(335,690,l),
(251,690,l),
(0,0,l)
);
},
{
closed = 1;
nodes = (
(495,96,l),
(495,223,l),
(169,223,l),
(169,96,l)
);
},
{
closed = 1;
nodes = (
(486,0,l),
(656,0,l),
(405,690,l),
(313,690,l),
(309,534,l)
);
},
{
closed = 1;
nodes = (
(149,-100,l),
(684,790,l),
(583,790,l),
(48,-100,l)
);
}
);
userData = {
com.schriftgestaltung.Glyphs.lastChange = "2021-03-11 04:15:08 +0000";
};
width = 656;
}
);
unicode = 570;
},
{
color = 9;
glyphname = AE;
kernLeft = AE;
kernRight = E;
layers = (
{
anchors = (
{
name = top;
pos = (585,690);
}
);
layerId = master01;
shapes = (
{
closed = 1;
nodes = (
(170,0,l),
(390,590,l),
(360,690,l),
(275,690,l),
(0,0,l)
);
},
{
closed = 1;
nodes = (
(495,136,l),
(495,263,l),
(169,263,l),
(169,136,l)
);
},
{
closed = 1;
nodes = (
(585,0,l),
(585,690,l),
(425,690,l),
(425,0,l)
);
},
{
closed = 1;
nodes = (
(915,0,l),
(915,140,l),
(499,140,l),
(499,0,l)
);
},
{
closed = 1;
nodes = (
(863,282,l),
(863,414,l),
(499,414,l),
(499,282,l)
);
},
{
closed = 1;
nodes = (
(910,550,l),
(910,690,l),
(330,690,l),
(330,550,l)
);
}
);
userData = {
com.schriftgestaltung.Glyphs.lastChange = "2021-03-11 23:09:35 +0000";
};
width = 975;
},
{
anchors = (
{
name = top;
pos = (492,690);
}
);
layerId = master02;
shapes = (
{
closed = 1;
nodes = (
(150,0,l),
(334,594,l),
(303,690,l),
(223,690,l),
(-1,0,l)
);
},
{
closed = 1;
nodes = (
(414,145,l),
(414,266,l),
(144,266,l),
(144,145,l)
);
},
{
closed = 1;
nodes = (
(497,0,l),
(497,690,l),
(355,690,l),
(355,0,l)
);
},
{
closed = 1;
nodes = (
(771,0,l),
(771,132,l),
(420,132,l),
(420,0,l)
);
},
{
closed = 1;
nodes = (
(728,286,l),
(728,411,l),
(420,411,l),
(420,286,l)
);
},
{
closed = 1;
nodes = (
(767,558,l),
(767,690,l),
(278,690,l),
(278,558,l)
);
}
);
userData = {
com.schriftgestaltung.Glyphs.lastChange = "2021-03-11 05:51:32 +0000";
};
width = 821;
},
{
anchors = (
{
name = top;
pos = (433,690);
}
);
layerId = master03;
shapes = (
{
closed = 1;
nodes = (
(67,0,l),
(346,645,l),
(344,690,l),
(304,690,l),
(5,0,l)
);
},
{
closed = 1;
nodes = (
(395,226,l),
(395,280,l),
(142,280,l),
(142,226,l)
);
},
{
closed = 1;
nodes = (
(432,0,l),
(432,690,l),
(370,690,l),
(370,0,l)
);
},
{
closed = 1;
nodes = (
(678,0,l),
(678,54,l),
(400,54,l),
(400,0,l)
);
},
{
closed = 1;
nodes = (
(627,322,l),
(627,374,l),
(400,374,l),
(400,322,l)
);
},
{
closed = 1;
nodes = (
(673,636,l),
(673,690,l),
(335,690,l),
(335,636,l)
);
}
);
userData = {
com.schriftgestaltung.Glyphs.lastChange = "2021-03-11 04:50:28 +0000";
};
width = 733;
},
{
anchors = (
{
name = top;
pos = (465,690);
}
);
layerId = master04;
shapes = (
{
closed = 1;
nodes = (
(100,0,l),
(310,622,l),
(287,690,l),
(242,690,l),
(6,0,l)
);
},
{
closed = 1;
nodes = (
(403,197,l),
(403,281,l),
(124,281,l),
(124,197,l)
);
},
{
closed = 1;
nodes = (
(439,0,l),
(439,690,l),
(349,690,l),
(349,0,l)
);
},
{
closed = 1;
nodes = (
(718,0,l),
(718,83,l),
(394,83,l),
(394,0,l)
);
},
{
closed = 1;
nodes = (
(675,308,l),
(675,392,l),
(394,392,l),
(394,308,l)
);
},
{
closed = 1;
nodes = (
(714,607,l),
(714,690,l),
(260,690,l),
(260,607,l)
);
}
);
userData = {
com.schriftgestaltung.Glyphs.lastChange = "2021-03-11 04:56:33 +0000";
};
width = 772;
},
{
anchors = (
{
name = top;
pos = (520,690);
}
);
layerId = master05;
shapes = (
{
closed = 1;
nodes = (
(72,0,l),
(351,645,l),
(349,690,l),
(309,690,l),
(10,0,l)
);
},
{
closed = 1;
nodes = (
(440,226,l),
(440,280,l),
(147,280,l),
(147,226,l)
);
},
{
closed = 1;
nodes = (
(477,0,l),
(477,690,l),
(415,690,l),
(415,0,l)
);
},
{
closed = 1;
nodes = (
(831,0,l),
(831,54,l),
(445,54,l),
(445,0,l)
);
},
{
closed = 1;
nodes = (
(780,322,l),
(780,374,l),
(445,374,l),
(445,322,l)
);
},
{
closed = 1;
nodes = (
(826,636,l),
(826,690,l),
(340,690,l),
(340,636,l)
);
}
);
userData = {
com.schriftgestaltung.Glyphs.lastChange = "2021-03-11 21:11:18 +0000";
};
width = 901;
},
{
anchors = (
{
name = top;
pos = (580,690);
}
);
layerId = master06;
shapes = (
{
closed = 1;
nodes = (
(110,0,l),
(370,620,l),
(355,690,l),
(308,690,l),
(10,0,l)
);
},
{
closed = 1;
nodes = (
(506,194,l),
(506,280,l),
(150,280,l),
(150,194,l)
);
},
{
closed = 1;
nodes = (
(536,0,l),
(536,690,l),
(440,690,l),
(440,0,l)
);
},
{
closed = 1;
nodes = (
(891,0,l),
(891,86,l),
(490,86,l),
(490,0,l)
);
},
{
closed = 1;
nodes = (
(836,307,l),
(836,393,l),
(490,393,l),
(490,307,l)
);
},
{
closed = 1;
nodes = (
(886,604,l),
(886,690,l),
(320,690,l),
(320,604,l)
);
}
);
userData = {
com.schriftgestaltung.Glyphs.lastChange = "2021-03-11 21:46:06 +0000";
};
width = 961;
}
);
unicode = 198;
},
{
color = 9;
glyphname = B;
kernLeft = H;
layers = (
{
layerId = master01;
shapes = (
{
closed = 1;
nodes = (
(245,0,l),
(245,690,l),
(85,690,l),
(85,0,l)
);
},
{
closed = 1;
nodes = (
(367,0,ls),
(500.716,0,o),
(604,70.698,o),
(604,190,cs),
(604,309.758,o),
(508,388,o),
(367,388,cs),
(159,388,l),
(159,288,l),
(352,288,ls),
(405,288,o),
(441,262,o),
(441,211,cs),
(441,160,o),
(405,134,o),
(352,134,cs),
(159,134,l),
(159,0,l)
);
},
{
closed = 1;
nodes = (
(342,328,ls),
(473,328,o),
(574,389,o),
(574,505,cs),
(574,620,o),
(472.895,690,o),
(342,690,cs),
(159,690,l),
(159,556,l),
(332,556,ls),
(382,556,o),
(416,531,o),
(416,484,cs),
(416,437,o),
(382,412,o),
(332,412,cs),
(159,412,l),
(159,328,l)
);
}
);
userData = {
com.schriftgestaltung.Glyphs.lastChange = "2021-03-11 04:15:19 +0000";
};
width = 654;
},
{
layerId = master02;
shapes = (
{
closed = 1;
nodes = (
(212,0,l),
(212,690,l),
(70,690,l),
(70,0,l)
);
},
{
closed = 1;
nodes = (
(298,0,ls),
(423,0,o),
(518,70,o),
(518,201,cs),
(518,316,o),
(448,387,o),
(298,387,cs),
(135,387,l),
(135,296,l),
(285,296,ls),
(347,296,o),
(376,266,o),
(376,209,cs),
(376,153,o),
(347,123,o),
(285,123,cs),
(135,123,l),
(135,0,l)
);
},
{
closed = 1;
nodes = (
(276,329,ls),
(407,329,o),
(493,402,o),
(493,510,cs),
(493,623,o),
(407,690,o),
(276,690,cs),
(135,690,l),
(135,567,l),
(267,567,ls),
(328,567,o),
(355,538,o),
(355,486,cs),
(355,434,o),
(328,406,o),
(267,406,cs),
(135,406,l),
(135,329,l)
);
}
);
userData = {
com.schriftgestaltung.Glyphs.lastChange = "2021-03-11 05:51:32 +0000";
};
width = 550;
},
{
layerId = master03;
shapes = (
{
closed = 1;
nodes = (
(139,0,l),
(139,690,l),
(77,690,l),
(77,0,l)
);
},
{
closed = 1;
nodes = (
(227,0,ls),
(356,0,o),
(453,70,o),
(453,187,cs),
(453,303,o),
(355,370,o),
(226,370,cs),
(107,370,l),
(107,330,l),
(221,330,ls),
(323,330,o),
(389,280,o),
(389,192,cs),
(389,104,o),
(323,54,o),
(221,54,cs),
(107,54,l),
(107,0,l)
);
},
{
closed = 1;
nodes = (
(206,340,ls),
(332,340,o),
(428,403,o),
(428,513,cs),
(428,624,o),
(334,690,o),
(208,690,cs),
(107,690,l),
(107,636,l),
(201,636,ls),
(300,636,o),
(364,590,o),
(364,508,cs),
(364,426,o),
(300,380,o),
(201,380,cs),
(107,380,l),
(107,340,l)
);
}
);
userData = {
com.schriftgestaltung.Glyphs.lastChange = "2021-03-30 22:59:08 +0000";
};
width = 499;
},
{
layerId = master04;
shapes = (
{
closed = 1;
nodes = (
(167,0,l),
(167,690,l),
(77,690,l),
(77,0,l)
);
},
{
closed = 1;
nodes = (
(268,0,l),
(391,0,o),
(473,68,o),
(473,195,cs),
(473,324,o),
(392,380,o),
(268,380,c),
(122,380,l),
(122,315,l),
(262,315,l),
(339,315,o),
(381,279,o),
(381,199,cs),
(381,119,o),
(338,81,o),
(262,81,c),
(122,81,l),
(122,0,l)
);
},
{
closed = 1;
nodes = (
(253,335,l),
(371,335,o),
(451,395,o),
(451,505,cs),
(451,625,o),
(371,690,o),
(253,690,c),
(122,690,l),
(122,609,l),
(248,609,l),
(321,609,o),
(359,574,o),
(359,501,cs),
(359,428,o),
(320,395,o),
(248,395,c),
(122,395,l),
(122,335,l)
);
}
);
userData = {
com.schriftgestaltung.Glyphs.lastChange = "2021-03-11 04:56:33 +0000";
};
width = 519;
},
{
layerId = master05;
shapes = (
{
closed = 1;
nodes = (
(172,0,l),
(172,690,l),
(110,690,l),
(110,0,l)
);
},
{
closed = 1;
nodes = (
(324,0,ls),
(453,0,o),
(551,70,o),
(551,187,cs),
(551,303,o),
(453,370,o),
(324,370,cs),
(140,370,l),
(140,330,l),
(319,330,ls),
(421,330,o),
(487,280,o),
(487,192,cs),
(487,104,o),
(421,54,o),
(319,54,cs),
(140,54,l),
(140,0,l)
);
},
{
closed = 1;
nodes = (
(304,340,ls),
(430,340,o),
(526,403,o),
(526,513,cs),
(526,624,o),
(430,690,o),
(304,690,cs),
(140,690,l),
(140,636,l),
(299,636,ls),
(398,636,o),
(462,590,o),
(462,508,cs),
(462,426,o),
(398,380,o),
(299,380,cs),
(140,380,l),
(140,340,l)
);
}
);
userData = {
com.schriftgestaltung.Glyphs.lastChange = "2021-03-11 21:11:18 +0000";
};
width = 621;
},
{
layerId = master06;
shapes = (
{
closed = 1;
nodes = (
(196,0,l),
(196,690,l),
(100,690,l),
(100,0,l)
);
},
{
closed = 1;
nodes = (
(358,0,ls),
(484,0,o),
(587,68,o),
(587,195,cs),
(587,315,o),
(484,380,o),
(358,380,cs),
(150,380,l),
(150,314,l),
(353,314,ls),
(430,314,o),
(488,273,o),
(488,200,cs),
(488,126,o),
(429,84,o),
(353,84,cs),
(150,84,l),
(150,0,l)
);
},
{
closed = 1;
nodes = (
(340,335,l),
(461,335,o),
(559,395,o),
(559,505,cs),
(559,625,o),
(461,690,o),
(340,690,cs),
(150,690,l),
(150,606,l),
(335,606,ls),
(407,606,o),
(460,567,o),
(460,500,cs),
(460,433,o),
(406,396,o),
(335,396,cs),
(150,396,l),
(150,335,l)
);
}
);
userData = {
com.schriftgestaltung.Glyphs.lastChange = "2021-03-11 21:46:06 +0000";
};
width = 647;
}
);
unicode = 66;
},
{
color = 9;
glyphname = C;
kernLeft = O;
kernRight = C;
layers = (
{
anchors = (
{
name = bottom;
pos = (377,0);
},
{
name = top;
pos = (363,690);
},
{
name = topright;
pos = (538,965);
}
);
guides = (
{
pos = (513,751);
},
{
angle = 90;
pos = (613,729);
}
);
layerId = master01;
shapes = (
{
closed = 1;
nodes = (
(45,122,o),
(204,-12,o),
(389,-12,cs),
(480,-12,o),
(550,15,o),
(618,69,c),
(526,193,l),
(485,160,o),
(437,138,o),
(383,138,cs),
(286,138,o),
(208,207,o),
(208,345,cs),
(208,483,o),
(286,552,o),
(382,552,cs),
(437,552,o),
(484,532,o),
(526,504,c),
(613,632,l),
(543,678,o),
(474,702,o),
(387,702,cs),
(204,702,o),
(45,568,o),
(45,345,cs)
);
}
);
userData = {
com.schriftgestaltung.Glyphs.lastChange = "2021-03-11 04:15:19 +0000";
};
width = 653;
},
{
anchors = (
{
name = bottom;
pos = (318,0);
},
{
name = top;
pos = (300,690);
},
{
name = topright;
pos = (443,965);
}
);
guides = (
{
angle = 90;
pos = (518,628);
}
);
layerId = master02;
shapes = (
{
closed = 1;
nodes = (
(36,104,o),
(160.915,-12,o),
(309,-12,cs),
(399.153,-12,o),
(464.186,22,o),
(522,76,c),
(446,186,l),
(411.136,152,o),
(370.252,130,o),
(325,130,cs),
(245.901,130,o),
(181,207,o),
(181,340,cs),
(181,483,o),
(245,562,o),
(322,562,cs),
(368,562,o),
(407,542,o),
(443,512,c),
(518,628,l),
(457.372,676,o),
(400,702,o),
(325,702,cs),
(151,702,o),
(36,560,o),
(36,347,cs)
);
}
);
userData = {
com.schriftgestaltung.Glyphs.lastChange = "2021-03-11 05:51:32 +0000";
com.typemytype.robofont.guideline.magnetic.e62IUsTTTD = 5;
};
width = 550;
},
{
anchors = (
{
name = bottom;
pos = (268,0);
},
{
name = top;
pos = (260,690);
},
{
name = topright;
pos = (383,980);
}
);
guides = (
{
angle = 90;
pos = (424,729);
}
);
layerId = master03;
shapes = (
{
closed = 1;
nodes = (
(45,112,o),
(125,-8,o),
(283,-8,c),
(342,-8,o),
(411,27,o),
(447,87,c),
(407,121,l),
(375,76,o),
(327,49,o),
(283,49,c),
(167,49,o),
(109,148,o),
(109,345,c),
(109,542,o),
(155,641,o),
(280,641,cs),
(315,641,o),
(348,627,o),
(384,589,c),
(424,629,l),
(387,675,o),
(333,698,o),
(278,698,cs),
(128,698,o),
(45,578,o),
(45,345,c)
);
}
);
userData = {
com.schriftgestaltung.Glyphs.lastChange = "2021-03-30 23:59:03 +0000";
};
width = 483;
},
{
anchors = (
{
name = bottom;
pos = (293,0);
},
{
name = top;
pos = (285,690);
},
{
name = topright;
pos = (421,975);
}
);
guides = (
{
angle = 90;
pos = (475,729);
}
);
layerId = master04;
shapes = (
{
closed = 1;
nodes = (
(45,106,o),
(161.089,-10,o),
(300,-10,cs),
(371.793,-10,o),
(430.441,20,o),
(481,75,c),
(427,135,l),
(393.897,96.655,o),
(354,78,o),
(307,78,cs),
(216,78,o),
(138,160,o),
(138,345,cs),
(138,529,o),
(210,612,o),
(306,612,cs),
(348,612,o),
(387,594,o),
(416,560,c),
(475,622,l),
(435,671,o),
(373,700,o),
(305,700,cs),
(163,700,o),
(45,583,o),
(45,345,cs)
);
}
);
userData = {
com.schriftgestaltung.Glyphs.lastChange = "2021-03-17 10:40:20 +0000";
};
width = 517;
},
{
anchors = (
{
name = bottom;
pos = (351,0);
},
{
name = top;
pos = (348,690);
},
{
name = topright;
pos = (525,980);
}
);
guides = (
{
angle = 90;
pos = (566,729);
}
);
layerId = master05;
shapes = (
{
closed = 1;
nodes = (
(70,112,o),
(201,-8,o),
(361,-8,c),
(440,-8,o),
(517,25,o),
(571,91,c),
(523,128,l),
(483,77,o),
(422,49,o),
(361,49,c),
(234,49,o),
(134,148,o),
(134,345,c),
(134,542,o),
(236,641,o),
(361,641,cs),
(424,641,o),
(478,616,o),
(518,565,c),
(566,602,l),
(512,668,o),
(442,698,o),
(361,698,cs),
(203,698,o),
(70,578,o),
(70,345,c)
);
}
);
userData = {
com.schriftgestaltung.Glyphs.lastChange = "2021-03-11 21:11:18 +0000";
};
width = 626;
},
{
anchors = (
{
name = bottom;
pos = (363,0);
},
{
name = top;
pos = (352,690);
},
{
name = topright;
pos = (532,975);
}
);
guides = (
{
angle = 90;
pos = (586,729);
}
);
layerId = master06;
shapes = (
{
closed = 1;
nodes = (
(60,116,o),
(202,-10,o),
(373,-10,cs),
(460,-10,o),
(534,23,o),
(594,84,c),
(529,149,l),
(488,103,o),
(435,81,o),
(373,81,cs),
(250,81,o),
(159,172,o),
(159,345,cs),
(159,517,o),
(250,609,o),
(373,609,cs),
(428,609,o),
(477,586,o),
(518,543,c),
(586,608,l),
(526,666,o),
(453,700,o),
(373,700,cs),
(202,700,o),
(60,573,o),
(60,345,cs)
);
}
);
userData = {
com.schriftgestaltung.Glyphs.lastChange = "2021-03-11 21:46:06 +0000";
};
width = 644;
}
);
unicode = 67;
},
{
color = 9;
glyphname = Cstroke;
kernLeft = O;
kernRight = C;
layers = (
{
anchors = (
{
name = bottom;
pos = (268,0);
},
{
name = top;
pos = (268,690);
}
);
background = {
shapes = (
{
closed = 1;
nodes = (
(45,112,o),
(125,-8,o),
(283,-8,c),
(342,-8,o),
(411,27,o),
(447,87,c),
(407,121,l),
(375,76,o),
(327,49,o),
(283,49,c),
(167,49,o),
(109,148,o),
(109,345,cs),
(109,542,o),
(155,641,o),
(280,641,cs),
(315,641,o),
(348,627,o),
(384,589,c),
(424,629,l),
(387,675,o),
(333,698,o),
(278,698,cs),
(128,698,o),
(45,578,o),
(45,345,cs)
);
},
{
closed = 1;
nodes = (
(156,-100,l),
(391,790,l),
(341,790,l),
(106,-100,l)
);
}
);
};
layerId = master03;
shapes = (
{
closed = 1;
nodes = (
(45,112,o),
(125,-8,o),
(283,-8,c),
(342,-8,o),
(411,27,o),
(447,87,c),
(407,121,l),
(375,76,o),
(327,49,o),
(283,49,c),
(167,49,o),
(109,148,o),
(109,345,cs),
(109,542,o),
(155,641,o),
(280,641,cs),
(315,641,o),
(348,627,o),
(384,589,c),
(424,629,l),
(387,675,o),
(333,698,o),
(278,698,cs),
(128,698,o),
(45,578,o),
(45,345,cs)
);
},
{
closed = 1;
nodes = (
(83,-100,l),
(453,790,l),
(400,790,l),
(30,-100,l)
);
}
);
userData = {
com.schriftgestaltung.Glyphs.lastChange = "2021-03-30 23:59:03 +0000";
};
width = 483;
},
{
anchors = (
{
name = bottom;
pos = (293,0);
},
{
name = top;
pos = (293,690);
}
);
background = {
shapes = (
{
closed = 1;
nodes = (
(45,106,o),
(161.089,-10,o),
(300,-10,cs),
(371.793,-10,o),
(430.441,20,o),
(481,75,c),
(427,135,l),
(393.897,96.655,o),
(354,78,o),
(307,78,cs),
(216,78,o),
(138,160,o),
(138,345,cs),
(138,529,o),
(210,612,o),
(306,612,cs),
(348,612,o),
(387,594,o),
(416,560,c),
(475,622,l),
(435,671,o),
(373,700,o),
(305,700,cs),
(163,700,o),
(45,583,o),
(45,345,cs)
);
},
{
closed = 1;
nodes = (
(201,-100,l),
(426,790,l),
(356,790,l),
(131,-100,l)
);
}
);
};
layerId = master04;
shapes = (
{
closed = 1;
nodes = (
(45,106,o),
(161.089,-10,o),
(300,-10,cs),
(371.793,-10,o),
(430.441,20,o),
(481,75,c),
(427,135,l),
(393.897,96.655,o),
(354,78,o),
(307,78,cs),
(216,78,o),
(138,160,o),
(138,345,cs),
(138,529,o),
(210,612,o),
(306,612,cs),
(348,612,o),
(387,594,o),
(416,560,c),
(475,622,l),
(435,671,o),
(373,700,o),
(305,700,cs),
(163,700,o),
(45,583,o),
(45,345,cs)
);
},
{
closed = 1;
nodes = (
(91,-100,l),
(496,790,l),
(421,790,l),
(16,-100,l)
);
}
);
userData = {
com.schriftgestaltung.Glyphs.lastChange = "2021-03-17 10:40:20 +0000";
};
width = 517;
},
{
anchors = (
{
name = bottom;
pos = (318,0);
},
{
name = top;
pos = (318,690);
}
);
background = {
shapes = (
{
closed = 1;
nodes = (
(36,104,o),
(160.915,-12,o),
(309,-12,cs),
(399.153,-12,o),
(464.186,22,o),
(522,76,c),
(446,186,l),
(411.136,152,o),
(370.252,130,o),
(325,130,cs),
(245.901,130,o),
(181,207,o),
(181,340,cs),
(181,483,o),
(245,562,o),
(322,562,cs),
(368,562,o),
(407,542,o),
(443,512,c),
(518,628,l),
(457.372,676,o),
(400,702,o),
(325,702,cs),
(151,702,o),
(36,560,o),
(36,347,cs)
);
},
{
closed = 1;
nodes = (
(261,-100,l),
(456,790,l),
(369,790,l),
(174,-100,l)
);
}
);
};
guides = (
{
angle = 90;
pos = (518,628);
}
);
layerId = master02;
shapes = (
{
closed = 1;
nodes = (
(36,104,o),
(160.915,-12,o),
(309,-12,cs),
(399.153,-12,o),
(464.186,22,o),
(522,76,c),
(446,186,l),
(411.136,152,o),
(370.252,130,o),
(325,130,cs),
(245.901,130,o),
(181,207,o),
(181,340,cs),
(181,483,o),
(245,562,o),
(322,562,cs),
(368,562,o),
(407,542,o),
(443,512,c),
(518,628,l),
(457.372,676,o),
(400,702,o),
(325,702,cs),
(151,702,o),
(36,560,o),
(36,347,cs)
);
},
{
closed = 1;
nodes = (
(111,-100,l),
(536,790,l),
(444,790,l),
(19,-100,l)
);
}
);
userData = {
com.schriftgestaltung.Glyphs.lastChange = "2021-03-11 05:51:32 +0000";
com.typemytype.robofont.guideline.magnetic.e62IUsTTTD = 5;
};
width = 550;
},
{
anchors = (
{
name = bottom;
pos = (351,0);
},
{
name = top;
pos = (351,690);
}
);
background = {
shapes = (
{
closed = 1;
nodes = (
(70,112,o),
(201,-8,o),
(361,-8,c),
(440,-8,o),
(517,25,o),
(571,91,c),
(523,128,l),
(483,77,o),
(422,49,o),
(361,49,c),
(234,49,o),
(134,148,o),
(134,345,c),
(134,542,o),
(236,641,o),
(361,641,cs),
(424,641,o),
(478,616,o),
(518,565,c),
(566,602,l),
(512,668,o),
(442,698,o),
(361,698,cs),
(203,698,o),
(70,578,o),
(70,345,c)
);
},
{
closed = 1;
nodes = (
(184,-100,l),
(476,790,l),
(423,790,l),
(131,-100,l)
);
}
);
};
layerId = master05;
shapes = (
{
closed = 1;
nodes = (
(70,112,o),
(201,-8,o),
(361,-8,c),
(440,-8,o),
(517,25,o),
(571,91,c),
(523,128,l),
(483,77,o),
(422,49,o),
(361,49,c),
(234,49,o),
(134,148,o),
(134,345,c),
(134,542,o),
(236,641,o),
(361,641,cs),
(424,641,o),
(478,616,o),
(518,565,c),
(566,602,l),
(512,668,o),
(442,698,o),
(361,698,cs),
(203,698,o),
(70,578,o),
(70,345,c)
);
},
{
closed = 1;
nodes = (
(64,-100,l),
(556,790,l),
(498,790,l),
(6,-100,l)
);
}
);
userData = {
com.schriftgestaltung.Glyphs.lastChange = "2021-03-11 21:11:18 +0000";
};
width = 626;
},
{
anchors = (
{
name = bottom;
pos = (363,0);
},
{
name = top;
pos = (363,690);
}
);
background = {
shapes = (
{
closed = 1;
nodes = (
(60,116,o),
(202,-10,o),
(373,-10,cs),
(460,-10,o),
(534,23,o),
(594,84,c),
(529,149,l),
(488,103,o),
(435,81,o),
(373,81,cs),
(250,81,o),
(159,172,o),
(159,345,cs),
(159,517,o),
(250,609,o),
(373,609,cs),
(428,609,o),
(477,586,o),
(518,543,c),
(586,608,l),
(526,666,o),
(453,700,o),
(373,700,cs),
(202,700,o),
(60,573,o),
(60,345,cs)
);
},
{
closed = 1;
nodes = (
(204,-100,l),
(529,790,l),
(457,790,l),
(132,-100,l)
);
}
);
};
layerId = master06;
shapes = (
{
closed = 1;
nodes = (
(60,116,o),
(202,-10,o),
(373,-10,cs),
(460,-10,o),
(534,23,o),
(594,84,c),
(529,149,l),
(488,103,o),
(435,81,o),
(373,81,cs),
(250,81,o),
(159,172,o),
(159,345,cs),
(159,517,o),
(250,609,o),
(373,609,cs),
(428,609,o),
(477,586,o),
(518,543,c),
(586,608,l),
(526,666,o),
(453,700,o),
(373,700,cs),
(202,700,o),
(60,573,o),
(60,345,cs)
);
},
{
closed = 1;
nodes = (
(84,-100,l),
(599,790,l),
(521,790,l),
(6,-100,l)
);
}
);
userData = {
com.schriftgestaltung.Glyphs.lastChange = "2021-03-11 21:46:06 +0000";
};
width = 644;
},
{
anchors = (
{
name = bottom;
pos = (377,0);
},
{
name = top;
pos = (377,690);
}
);
background = {
shapes = (
{
closed = 1;
nodes = (
(45,122,o),
(204,-12,o),
(389,-12,cs),
(480,-12,o),
(550,15,o),
(618,69,c),
(526,193,l),
(485,160,o),
(437,138,o),
(383,138,cs),
(286,138,o),
(208,207,o),
(208,345,cs),
(208,483,o),
(286,552,o),
(382,552,cs),
(437,552,o),
(484,532,o),
(526,504,c),
(613,632,l),
(543,678,o),
(474,702,o),
(387,702,cs),
(204,702,o),
(45,568,o),
(45,345,cs)
);
},
{
closed = 1;
nodes = (
(255,-100,l),
(540,790,l),
(448,790,l),
(163,-100,l)
);
}
);
};
layerId = master01;
shapes = (
{
closed = 1;
nodes = (
(45,122,o),
(204,-12,o),
(389,-12,cs),
(480,-12,o),
(550,15,o),
(618,69,c),
(526,193,l),
(485,160,o),
(437,138,o),
(383,138,cs),
(286,138,o),
(208,207,o),
(208,345,cs),
(208,483,o),
(286,552,o),
(382,552,cs),
(437,552,o),
(484,532,o),
(526,504,c),
(613,632,l),
(543,678,o),
(474,702,o),
(387,702,cs),
(204,702,o),
(45,568,o),
(45,345,cs)
);
},
{
closed = 1;
nodes = (
(109,-100,l),
(644,790,l),
(543,790,l),
(8,-100,l)
);
}
);
userData = {
com.schriftgestaltung.Glyphs.lastChange = "2021-03-11 04:15:19 +0000";
};
width = 653;
}
);
unicode = 571;
},
{
color = 9;
glyphname = D;
kernLeft = H;
kernRight = O;
layers = (
{
anchors = (
{
name = bottom;
pos = (322,0);
},
{
name = top;
pos = (322,690);
}
);
layerId = master01;
shapes = (
{
closed = 1;
nodes = (
(245,0,l),
(245,690,l),
(85,690,l),
(85,0,l)
);
},
{
closed = 1;
nodes = (
(347,0,ls),
(534,0,o),
(679,128,o),
(679,345,cs),
(679,562,o),
(534,690,o),
(347,690,cs),
(159,690,l),
(159,550,l),
(332,550,ls),
(442,550,o),
(516,482,o),
(516,345,cs),
(516,208,o),
(442,140,o),
(332,140,cs),
(159,140,l),
(159,0,l)
);
}
);
userData = {
com.schriftgestaltung.Glyphs.lastChange = "2021-03-11 21:46:45 +0000";
};
width = 724;
},
{
anchors = (
{
name = bottom;
pos = (272,0);
},
{
name = top;
pos = (272,690);
}
);
layerId = master02;
shapes = (
{
closed = 1;
nodes = (
(212,0,l),
(212,690,l),
(70,690,l),
(70,0,l)
);
},
{
closed = 1;
nodes = (
(294,0,ls),
(453,0,o),
(575,119,o),
(575,350,cs),
(575,575,o),
(453,690,o),
(294,690,cs),
(135,690,l),
(135,558,l),
(281,558,ls),
(371,558,o),
(430,496,o),
(430,345,cs),
(430,194,o),
(371,132,o),
(281,132,cs),
(135,132,l),
(135,0,l)
);
}
);
userData = {
com.schriftgestaltung.Glyphs.lastChange = "2021-03-11 05:51:32 +0000";
};
width = 611;
},
{
anchors = (
{
name = bottom;
pos = (231,0);
},
{
name = top;
pos = (231,690);
}
);
layerId = master03;
shapes = (
{
closed = 1;
nodes = (
(139,0,l),
(139,690,l),
(77,690,l),
(77,0,l)
);
},
{
closed = 1;
nodes = (
(231,0,ls),
(363,0,o),
(473,112,o),
(473,345,cs),
(473,578,o),
(363,690,o),
(231,690,cs),
(107,690,l),
(107,636,l),
(226,636,ls),
(328,636,o),
(409,542,o),
(409,345,cs),
(409,148,o),
(328,54,o),
(226,54,cs),
(107,54,l),
(107,0,l)
);
}
);
userData = {
com.schriftgestaltung.Glyphs.lastChange = "2021-03-30 23:21:30 +0000";
};
width = 518;
},
{
anchors = (
{
name = bottom;
pos = (249,0);
},
{
name = top;
pos = (249,690);
}
);
layerId = master04;
shapes = (
{
closed = 1;
nodes = (
(167,0,l),
(167,690,l),
(77,690,l),
(77,0,l)
);
},
{
closed = 1;
nodes = (
(247,0,ls),
(418.496,0,o),
(521,113,o),
(521,345,cs),
(521,577,o),
(418.496,690,o),
(247,690,cs),
(122,690,l),
(122,607,l),
(241,607,ls),
(360.445,607,o),
(428,523,o),
(428,345,cs),
(428,167,o),
(360.445,83,o),
(241,83,cs),
(122,83,l),
(122,0,l)
);
}
);
userData = {
com.schriftgestaltung.Glyphs.lastChange = "2021-03-11 04:56:33 +0000";
};
width = 566;
},
{
anchors = (
{
name = bottom;
pos = (289,0);
},
{
name = top;
pos = (289,690);
}
);
layerId = master05;
shapes = (
{
closed = 1;
nodes = (
(172,0,l),
(172,690,l),
(110,690,l),
(110,0,l)
);
},
{
closed = 1;
nodes = (
(304,0,ls),
(482,0,o),
(616,112,o),
(616,345,cs),
(616,578,o),
(482,690,o),
(304,690,cs),
(140,690,l),
(140,636,l),
(299,636,ls),
(447,636,o),
(552,542,o),
(552,345,cs),
(552,148,o),
(447,54,o),
(299,54,cs),
(140,54,l),
(140,0,l)
);
}
);
userData = {
com.schriftgestaltung.Glyphs.lastChange = "2021-03-11 21:12:00 +0000";
};
width = 686;
},
{
anchors = (
{
name = bottom;
pos = (308,0);
},
{
name = top;
pos = (308,690);
}
);
layerId = master06;
shapes = (
{
closed = 1;
nodes = (
(196,0,l),
(196,690,l),
(100,690,l),
(100,0,l)
);
},
{
closed = 1;
nodes = (
(323,0,ls),
(500,0,o),
(641,123,o),
(641,345,cs),
(641,567,o),
(500,690,o),
(323,690,cs),
(150,690,l),
(150,604,l),
(318,604,ls),
(446,604,o),
(542,511,o),
(542,345,cs),
(542,179,o),
(446,86,o),
(318,86,cs),
(150,86,l),
(150,0,l)
);
}
);
userData = {
com.schriftgestaltung.Glyphs.lastChange = "2021-03-11 21:46:06 +0000";
};
width = 701;
}
);
unicode = 68;
},
{
color = 3;
glyphname = Eth;
kernLeft = H;
kernRight = O;
layers = (
{
layerId = master01;
shapes = (
{
closed = 1;
nodes = (
(381,273,l),
(381,407,l),
(35,407,l),
(35,273,l)
);
},
{
closed = 1;
nodes = (
(250,0,l),
(250,690,l),
(90,690,l),
(90,0,l)
);
},
{
closed = 1;
nodes = (
(352,0,ls),
(539,0,o),
(684,128,o),
(684,345,cs),
(684,562,o),
(539,690,o),
(352,690,cs),
(164,690,l),
(164,550,l),
(337,550,ls),
(447,550,o),
(521,482,o),
(521,345,cs),
(521,208,o),
(447,140,o),
(337,140,cs),
(164,140,l),
(164,0,l)
);
}
);
userData = {
com.schriftgestaltung.Glyphs.lastChange = "2021-03-11 21:46:45 +0000";
};
width = 729;
},
{
layerId = master02;
shapes = (
{
closed = 1;
nodes = (
(323,278,l),
(323,404,l),
(29,404,l),
(29,278,l)
);
},
{
closed = 1;
nodes = (
(215,0,l),
(215,690,l),
(73,690,l),
(73,0,l)
);
},
{
closed = 1;
nodes = (
(298,0,ls),
(456,0,o),
(578,127,o),
(578,345,cs),
(578,563,o),
(456,690,o),
(298,690,cs),
(138,690,l),
(138,558,l),
(284,558,ls),
(374,558,o),
(434,486,o),
(434,345,cs),
(434,204,o),
(374,132,o),
(284,132,cs),
(138,132,l),
(138,0,l)
);
}
);
userData = {
com.schriftgestaltung.Glyphs.lastChange = "2021-03-11 05:52:02 +0000";
};
width = 614;
},
{
layerId = master03;
shapes = (
{
closed = 1;
nodes = (
(252,315,l),
(252,369,l),
(30,369,l),
(30,315,l)
);
},
{
closed = 1;
nodes = (
(162,0,l),
(162,690,l),
(100,690,l),
(100,0,l)
);
},
{
closed = 1;
nodes = (
(214,0,ls),
(372,0,o),
(486,112,o),
(486,345,cs),
(486,578,o),
(372,690,o),
(214,690,cs),
(130,690,l),
(130,636,l),
(209,636,ls),
(337,636,o),
(422,542,o),
(422,345,cs),
(422,148,o),
(337,54,o),
(209,54,cs),
(130,54,l),
(130,0,l)
);
}
);
userData = {
com.schriftgestaltung.Glyphs.lastChange = "2021-03-11 04:51:01 +0000";
};
width = 531;
},
{
layerId = master04;
shapes = (
{
closed = 1;
nodes = (
(290,307,l),
(290,384,l),
(28,384,l),
(28,307,l)
);
},
{
closed = 1;
nodes = (
(174,0,l),
(174,690,l),
(84,690,l),
(84,0,l)
);
},
{
closed = 1;
nodes = (
(270,0,ls),
(414,0,o),
(528,123,o),
(528,345,cs),
(528,567,o),
(414,690,o),
(270,690,cs),
(129,690,l),
(129,607,l),
(264,607,ls),
(363,607,o),
(435,513,o),
(435,345,cs),
(435,177,o),
(363,83,o),
(264,83,cs),
(129,83,l),
(129,0,l)
);
}
);
userData = {
com.schriftgestaltung.Glyphs.lastChange = "2021-03-11 04:56:33 +0000";
};
width = 573;
},
{
layerId = master05;
shapes = (
{
closed = 1;
nodes = (
(352,315,l),
(352,369,l),
(50,369,l),
(50,315,l)
);
},
{
closed = 1;
nodes = (
(182,0,l),
(182,690,l),
(120,690,l),
(120,0,l)
);
},
{
closed = 1;
nodes = (
(314,0,ls),
(492,0,o),
(626,112,o),
(626,345,cs),
(626,578,o),
(492,690,o),
(314,690,cs),
(150,690,l),
(150,636,l),
(309,636,ls),
(457,636,o),
(562,542,o),
(562,345,cs),
(562,148,o),
(457,54,o),
(309,54,cs),
(150,54,l),
(150,0,l)
);
}
);
userData = {
com.schriftgestaltung.Glyphs.lastChange = "2021-03-11 21:12:00 +0000";
};
width = 696;
},
{
layerId = master06;
shapes = (
{
closed = 1;
nodes = (
(356,305,l),
(356,385,l),
(35,385,l),
(35,305,l)
);
},
{
closed = 1;
nodes = (
(206,0,l),
(206,690,l),
(110,690,l),
(110,0,l)
);
},
{
closed = 1;
nodes = (
(333,0,ls),
(510,0,o),
(651,123,o),
(651,345,cs),
(651,567,o),
(510,690,o),
(333,690,cs),
(160,690,l),
(160,604,l),
(328,604,ls),
(456,604,o),
(552,511,o),
(552,345,cs),
(552,179,o),
(456,86,o),
(328,86,cs),
(160,86,l),
(160,0,l)
);
}
);
userData = {
com.schriftgestaltung.Glyphs.lastChange = "2021-03-11 21:46:06 +0000";
};
width = 711;
}
);
unicode = 208;
},
{
color = 3;
glyphname = Dcroat;
kernLeft = H;
kernRight = O;
layers = (
{
layerId = master01;
shapes = (
{
closed = 1;
nodes = (
(381,273,l),
(381,407,l),
(35,407,l),
(35,273,l)
);
},
{
closed = 1;
nodes = (
(250,0,l),
(250,690,l),
(90,690,l),
(90,0,l)
);
},
{
closed = 1;
nodes = (
(352,0,ls),
(539,0,o),
(684,128,o),
(684,345,cs),
(684,562,o),
(539,690,o),
(352,690,cs),
(164,690,l),
(164,550,l),
(337,550,ls),
(447,550,o),
(521,482,o),
(521,345,cs),
(521,208,o),
(447,140,o),
(337,140,cs),
(164,140,l),
(164,0,l)
);
}
);
userData = {
com.schriftgestaltung.Glyphs.lastChange = "2021-03-11 21:46:45 +0000";
};
width = 729;
},
{
layerId = master02;
shapes = (
{
closed = 1;
nodes = (
(323,278,l),
(323,404,l),
(29,404,l),
(29,278,l)
);
},
{
closed = 1;
nodes = (
(215,0,l),
(215,690,l),
(73,690,l),
(73,0,l)
);
},
{
closed = 1;
nodes = (
(298,0,ls),
(456,0,o),
(578,127,o),
(578,345,cs),
(578,563,o),
(456,690,o),
(298,690,cs),
(138,690,l),
(138,558,l),
(284,558,ls),
(374,558,o),
(434,486,o),
(434,345,cs),
(434,204,o),
(374,132,o),
(284,132,cs),
(138,132,l),
(138,0,l)
);
}
);
userData = {
com.schriftgestaltung.Glyphs.lastChange = "2021-03-11 05:51:58 +0000";
};
width = 614;
},
{
layerId = master03;
shapes = (
{
closed = 1;
nodes = (
(272,315,l),
(272,369,l),
(30,369,l),
(30,315,l)
);
},
{
closed = 1;
nodes = (
(152,0,l),
(152,690,l),
(90,690,l),
(90,0,l)
);
},
{
closed = 1;
nodes = (
(214,0,ls),
(372,0,o),
(486,112,o),
(486,345,cs),
(486,578,o),
(372,690,o),
(214,690,cs),
(120,690,l),
(120,636,l),
(209,636,ls),
(337,636,o),
(422,542,o),
(422,345,cs),
(422,148,o),
(337,54,o),
(209,54,cs),
(120,54,l),
(120,0,l)
);
}
);
userData = {
com.schriftgestaltung.Glyphs.lastChange = "2021-03-11 04:56:01 +0000";
};
width = 531;
},
{
layerId = master04;
shapes = (
{
closed = 1;
nodes = (
(290,307,l),
(290,384,l),
(28,384,l),
(28,307,l)
);
},
{
closed = 1;
nodes = (
(174,0,l),
(174,690,l),
(84,690,l),
(84,0,l)
);
},
{
closed = 1;
nodes = (
(270,0,ls),
(414,0,o),
(528,123,o),
(528,345,cs),
(528,567,o),
(414,690,o),
(270,690,cs),
(129,690,l),
(129,607,l),
(264,607,ls),
(363,607,o),
(435,513,o),
(435,345,cs),
(435,177,o),
(363,83,o),
(264,83,cs),
(129,83,l),
(129,0,l)
);
}
);
userData = {
com.schriftgestaltung.Glyphs.lastChange = "2021-03-11 04:56:33 +0000";
};
width = 573;
},
{
layerId = master05;
shapes = (
{
closed = 1;
nodes = (
(352,315,l),
(352,369,l),
(50,369,l),
(50,315,l)
);
},
{
closed = 1;
nodes = (
(182,0,l),
(182,690,l),
(120,690,l),
(120,0,l)
);
},
{
closed = 1;
nodes = (
(314,0,ls),
(492,0,o),
(626,112,o),
(626,345,cs),
(626,578,o),
(492,690,o),
(314,690,cs),
(150,690,l),
(150,636,l),
(309,636,ls),
(457,636,o),
(562,542,o),
(562,345,cs),
(562,148,o),
(457,54,o),
(309,54,cs),
(150,54,l),
(150,0,l)
);
}
);
userData = {
com.schriftgestaltung.Glyphs.lastChange = "2021-03-11 21:12:00 +0000";
};
width = 696;
},
{
layerId = master06;
shapes = (
{
closed = 1;
nodes = (
(356,305,l),
(356,385,l),
(35,385,l),
(35,305,l)
);
},
{
closed = 1;
nodes = (
(206,0,l),
(206,690,l),
(110,690,l),
(110,0,l)
);
},
{
closed = 1;
nodes = (
(333,0,ls),
(510,0,o),
(651,123,o),
(651,345,cs),
(651,567,o),
(510,690,o),
(333,690,cs),
(160,690,l),
(160,604,l),
(328,604,ls),
(456,604,o),
(552,511,o),
(552,345,cs),
(552,179,o),
(456,86,o),
(328,86,cs),
(160,86,l),
(160,0,l)
);
}
);
userData = {
com.schriftgestaltung.Glyphs.lastChange = "2021-03-11 21:46:06 +0000";
};
width = 711;
}
);
unicode = 272;
},
{
color = 9;
glyphname = E;
kernLeft = H;
kernRight = E;
layers = (
{
anchors = (
{
name = bottom;
pos = (318,0);
},
{
name = ogonek;
pos = (555,0);
},
{
name = top;
pos = (328,690);
}
);
layerId = master01;
shapes = (
{
closed = 1;
nodes = (
(245,0,l),
(245,690,l),
(85,690,l),
(85,0,l)
);
},
{
closed = 1;
nodes = (
(575,0,l),
(575,140,l),
(159,140,l),
(159,0,l)
);
},
{
closed = 1;
nodes = (
(523,282,l),
(523,414,l),
(159,414,l),
(159,282,l)
);
},
{
closed = 1;
nodes = (
(570,550,l),
(570,690,l),
(159,690,l),
(159,550,l)
);
}
);
userData = {
com.schriftgestaltung.Glyphs.lastChange = "2021-03-11 21:46:45 +0000";
};
width = 635;
},
{
anchors = (
{
name = bottom;
pos = (271,0);
},
{
name = ogonek;
pos = (455,0);
},
{
name = top;
pos = (271,690);
}
);
layerId = master02;
shapes = (
{
closed = 1;
nodes = (
(212,0,l),
(212,690,l),
(70,690,l),
(70,0,l)
);
},
{
closed = 1;
nodes = (
(476,0,l),
(476,132,l),
(135,132,l),
(135,0,l)
);
},
{
closed = 1;
nodes = (
(432,286,l),
(432,411,l),
(135,411,l),
(135,286,l)
);
},
{
closed = 1;
nodes = (
(472,558,l),
(472,690,l),
(135,690,l),
(135,558,l)
);
}
);
userData = {
com.schriftgestaltung.Glyphs.lastChange = "2021-03-17 10:39:14 +0000";
};
width = 521;
},
{
anchors = (
{
name = bottom;
pos = (240,0);
},
{
name = ogonek;
pos = (368,0);
},
{
name = top;
pos = (240,690);
}
);
layerId = master03;
shapes = (
{
closed = 1;
nodes = (
(139,0,l),
(139,690,l),
(77,690,l),
(77,0,l)
);
},
{
closed = 1;
nodes = (
(407,0,l),
(407,54,l),
(107,54,l),
(107,0,l)
);
},
{
closed = 1;
nodes = (
(356,322,l),
(356,374,l),
(107,374,l),
(107,322,l)
);
},
{
closed = 1;
nodes = (
(402,636,l),
(402,690,l),
(107,690,l),
(107,636,l)
);
}
);
userData = {
com.schriftgestaltung.Glyphs.lastChange = "2021-04-27 22:02:12 +0000";
};
width = 461;
},
{
anchors = (
{
name = bottom;
pos = (260,0);
},
{
name = ogonek;
pos = (410,0);
},
{
name = top;
pos = (260,690);
}
);
layerId = master04;
shapes = (
{
closed = 1;
nodes = (
(167,0,l),
(167,690,l),
(77,690,l),
(77,0,l)
);
},
{
closed = 1;
nodes = (
(446,0,l),
(446,83,l),
(122,83,l),
(122,0,l)
);
},
{
closed = 1;
nodes = (
(403,308,l),
(403,392,l),
(122,392,l),
(122,308,l)
);
},
{
closed = 1;
nodes = (
(442,607,l),
(442,690,l),
(122,690,l),
(122,607,l)
);
}
);
userData = {
com.schriftgestaltung.Glyphs.lastChange = "2021-03-11 04:56:33 +0000";
};
width = 500;
},
{
anchors = (
{
name = bottom;
pos = (316,0);
},
{
name = ogonek;
pos = (471,0);
},
{
name = top;
pos = (316,690);
}
);
layerId = master05;
shapes = (
{
closed = 1;
nodes = (
(172,0,l),
(172,690,l),
(110,690,l),
(110,0,l)
);
},
{
closed = 1;
nodes = (
(526,0,l),
(526,54,l),
(140,54,l),
(140,0,l)
);
},
{
closed = 1;
nodes = (
(475,322,l),
(475,374,l),
(140,374,l),
(140,322,l)
);
},
{
closed = 1;
nodes = (
(521,636,l),
(521,690,l),
(140,690,l),
(140,636,l)
);
}
);
userData = {
com.schriftgestaltung.Glyphs.lastChange = "2021-03-11 21:12:00 +0000";
};
width = 596;
},
{
anchors = (
{
name = bottom;
pos = (323,0);
},
{
name = ogonek;
pos = (533,0);
},
{
name = top;
pos = (323,690);
}
);
layerId = master06;
shapes = (
{
closed = 1;
nodes = (
(196,0,l),
(196,690,l),
(100,690,l),
(100,0,l)
);
},
{
closed = 1;
nodes = (
(551,0,l),
(551,86,l),
(150,86,l),
(150,0,l)
);
},
{
closed = 1;
nodes = (
(496,307,l),
(496,393,l),
(150,393,l),
(150,307,l)
);
},
{
closed = 1;
nodes = (
(546,604,l),
(546,690,l),
(150,690,l),
(150,604,l)
);
}
);
userData = {
com.schriftgestaltung.Glyphs.lastChange = "2021-03-11 21:46:06 +0000";
};
width = 621;
}
);
unicode = 69;
},
{
color = 9;
glyphname = Eopen;
kernRight = C;
layers = (
{
anchors = (
{
name = bottom;
pos = (251,0);
},
{
name = top;
pos = (251,690);
}
);
background = {
anchors = (
{
name = bottom;
pos = (261,0);
},
{
name = top;
pos = (261,690);
}
);
shapes = (
{
closed = 1;
nodes = (
(78,27,o),
(147,-8,o),
(240,-8,cs),
(373,-8,o),
(466,70,o),
(466,187,cs),
(466,303,o),
(368,370,o),
(239,370,cs),
(147,370,l),
(147,329,l),
(224,329,ls),
(336,329,o),
(402,280,o),
(402,192,cs),
(402,104,o),
(341,49,o),
(244,49,cs),
(163,49,o),
(121,76,o),
(92,121,c),
(46,82,l)
);
},
{
closed = 1;
nodes = (
(219,340,ls),
(345,340,o),
(441,403,o),
(441,513,cs),
(441,624,o),
(356,698,o),
(240,698,cs),
(180,698,o),
(114,677,o),
(72,629,c),
(109,589,l),
(139,622,o),
(182,641,o),
(237,641,cs),
(321,641,o),
(377,590,o),
(377,508,cs),
(377,426,o),
(313,381,o),
(204,381,cs),
(147,381,l),
(147,340,l)
);
}
);
};
layerId = master03;
shapes = (
{
closed = 1;
nodes = (
(420,121,l),
(391,76,o),
(349,49,o),
(268,49,cs),
(171,49,o),
(110,104,o),
(110,192,cs),
(110,280,o),
(176,329,o),
(288,329,cs),
(365,329,l),
(365,370,l),
(273,370,ls),
(144,370,o),
(46,303,o),
(46,187,cs),
(46,70,o),
(139,-8,o),
(272,-8,cs),
(360,-8,o),
(429,27,o),
(461,82,c)
);
},
{
closed = 1;
nodes = (
(365,381,l),
(308,381,ls),
(199,381,o),
(135,426,o),
(135,508,cs),
(135,590,o),
(191,641,o),
(275,641,cs),
(330,641,o),
(373,622,o),
(403,589,c),
(440,629,l),
(398,677,o),
(332,698,o),
(272,698,cs),
(156,698,o),
(71,624,o),
(71,513,cs),
(71,403,o),
(167,340,o),
(293,340,cs),
(365,340,l)
);
}
);
width = 497;
},
{
anchors = (
{
name = bottom;
pos = (259,0);
},
{
name = top;
pos = (259,690);
}
);
background = {
shapes = (
{
closed = 1;
nodes = (
(483,583,o),
(370,700,o),
(232,700,cs),
(162,700,o),
(100,671,o),
(56,622,c),
(112,560,l),
(140,593,o),
(180,612,o),
(225,612,cs),
(318,612,o),
(390,529,o),
(390,345,cs),
(390,160,o),
(312,78,o),
(224,78,cs),
(175,78,o),
(138,97,o),
(104,137,c),
(46,69,l),
(92,18,o),
(156,-10,o),
(225,-10,cs),
(363,-10,o),
(483,106,o),
(483,345,cs)
);
}
);
};
layerId = master04;
shapes = (
{
closed = 1;
nodes = (
(426,137,l),
(379,96,o),
(332,78,o),
(272,78,cs),
(188,78,o),
(139,123,o),
(139,199,cs),
(139,276,o),
(186,315,o),
(278,315,cs),
(388,315,l),
(388,380,l),
(267,380,ls),
(128,380,o),
(46,312,o),
(46,192,cs),
(46,76,o),
(129,-10,o),
(272,-10,cs),
(359,-10,o),
(425,14,o),
(477,67,c)
);
},
{
closed = 1;
nodes = (
(388,395,l),
(292,395,ls),
(206,395,o),
(161,432,o),
(161,501,cs),
(161,572,o),
(204,612,o),
(282,612,cs),
(335,612,o),
(378,595,o),
(419,559,c),
(472,624,l),
(418,676,o),
(354,700,o),
(284,700,cs),
(147,700,o),
(68,626,o),
(68,512,cs),
(68,407,o),
(148,335,o),
(275,335,cs),
(388,335,l)
);
}
);
width = 513;
},
{
anchors = (
{
name = bottom;
pos = (275,0);
},
{
name = top;
pos = (275,690);
}
);
background = {
shapes = (
{
closed = 1;
nodes = (
(516,560,o),
(409,702,o),
(235,702,cs),
(157,702,o),
(95,676,o),
(34,628,c),
(109,512,l),
(145,543,o),
(184,562,o),
(230,562,cs),
(307,562,o),
(371,493,o),
(371,340,cs),
(371,207,o),
(308,130,o),
(231,130,cs),
(182,130,o),
(141,152,o),
(106,186,c),
(30,68,l),
(85,16,o),
(150,-12,o),
(235,-12,cs),
(391,-12,o),
(516,107,o),
(516,347,cs)
);
}
);
};
layerId = master02;
shapes = (
{
closed = 1;
nodes = (
(447,186,l),
(412,150,o),
(355,130,o),
(288,130,cs),
(218,130,o),
(177,160,o),
(177,211,cs),
(177,267,o),
(217,289,o),
(290,289,cs),
(414,289,l),
(414,387,l),
(252,387,ls),
(109,387,o),
(32,312,o),
(32,201,cs),
(32,75,o),
(136,-12,o),
(288,-12,cs),
(385,-12,o),
(457,16,o),
(515,71,c)
);
},
{
closed = 1;
nodes = (
(414,410,l),
(306,410,ls),
(237,410,o),
(198,432,o),
(198,483,cs),
(198,532,o),
(238,562,o),
(303,562,cs),
(358,562,o),
(409,544,o),
(444,512,c),
(521,626,l),
(457,678,o),
(376,702,o),
(293,702,cs),
(152,702,o),
(57,629,o),
(57,510,cs),
(57,401,o),
(144,329,o),
(274,329,cs),
(414,329,l)
);
}
);
width = 549;
},
{
anchors = (
{
name = bottom;
pos = (289,0);
},
{
name = top;
pos = (289,690);
}
);
background = {
shapes = (
{
closed = 1;
nodes = (
(998,0,ls),
(1127,0,o),
(1225,70,o),
(1225,187,cs),
(1225,303,o),
(1127,370,o),
(998,370,cs),
(814,370,l),
(814,330,l),
(993,330,ls),
(1095,330,o),
(1161,280,o),
(1161,192,cs),
(1161,104,o),
(1095,54,o),
(993,54,cs),
(814,54,l),
(814,0,l)
);
},
{
closed = 1;
nodes = (
(978,340,ls),
(1104,340,o),
(1200,403,o),
(1200,513,cs),
(1200,624,o),
(1104,690,o),
(978,690,cs),
(814,690,l),
(814,636,l),
(973,636,ls),
(1072,636,o),
(1136,590,o),
(1136,508,cs),
(1136,426,o),
(1072,380,o),
(973,380,cs),
(814,380,l),
(814,340,l)
);
},
{
closed = 1;
nodes = (
(541,578,o),
(410,698,o),
(264,698,cs),
(173,698,o),
(103,668,o),
(51,604,c),
(93,565,l),
(133,616,o),
(187,641,o),
(261,641,cs),
(375,641,o),
(477,542,o),
(477,345,cs),
(477,148,o),
(377,49,o),
(252,49,cs),
(186,49,o),
(126,77,o),
(86,128,c),
(39,87,l),
(92,22,o),
(171,-8,o),
(250,-8,cs),
(410,-8,o),
(541,112,o),
(541,345,cs)
);
}
);
};
layerId = master05;
shapes = (
{
closed = 1;
nodes = (
(478,123,l),
(428,68,o),
(382,49,o),
(302,49,cs),
(197,49,o),
(134,102,o),
(134,189,cs),
(134,279,o),
(198,329,o),
(312,329,cs),
(409,329,l),
(409,370,l),
(297,370,ls),
(158,370,o),
(70,297,o),
(70,187,cs),
(70,69,o),
(164,-8,o),
(306,-8,cs),
(398,-8,o),
(471,22,o),
(519,82,c)
);
},
{
closed = 1;
nodes = (
(409,381,l),
(332,381,ls),
(221,381,o),
(159,428,o),
(159,511,cs),
(159,591,o),
(216,641,o),
(307,641,cs),
(371,641,o),
(425,620,o),
(470,577,c),
(508,619,l),
(457,670,o),
(388,698,o),
(309,698,cs),
(182,698,o),
(95,624,o),
(95,515,cs),
(95,409,o),
(182,342,o),
(317,342,cs),
(409,342,l)
);
}
);
width = 574;
},
{
anchors = (
{
name = bottom;
pos = (311,0);
},
{
name = top;
pos = (311,690);
}
);
background = {
shapes = (
{
closed = 1;
nodes = (
(581,573,o),
(444,700,o),
(278,700,cs),
(190,700,o),
(113,669,o),
(56,608,c),
(123,543,l),
(164,586,o),
(212,609,o),
(273,609,cs),
(391,609,o),
(482,517,o),
(482,345,cs),
(482,172,o),
(391,81,o),
(268,81,cs),
(205,81,o),
(152,103,o),
(110,150,c),
(46,79,l),
(106,20,o),
(179,-10,o),
(268,-10,cs),
(439,-10,o),
(581,119,o),
(581,345,cs)
);
}
);
};
layerId = master06;
shapes = (
{
closed = 1;
nodes = (
(513,146,l),
(459,100,o),
(404,81,o),
(322,81,cs),
(218,81,o),
(159,123,o),
(159,198,cs),
(159,272,o),
(210,312,o),
(307,312,cs),
(427,312,l),
(427,374,l),
(286,374,ls),
(144,374,o),
(60,300,o),
(60,191,cs),
(60,66,o),
(158,-10,o),
(327,-10,cs),
(432,-10,o),
(510,16,o),
(567,75,c)
);
},
{
closed = 1;
nodes = (
(427,398,l),
(321,398,ls),
(231,398,o),
(181,435,o),
(181,501,cs),
(181,571,o),
(231,609,o),
(325,609,cs),
(396,609,o),
(457,588,o),
(508,545,c),
(564,616,l),
(506,671,o),
(424,700,o),
(326,700,cs),
(176,700,o),
(82,626,o),
(82,508,cs),
(82,403,o),
(166,336,o),
(301,336,cs),
(427,336,l)
);
}
);
width = 617;
},
{
anchors = (
{
name = bottom;
pos = (323,0);
},
{
name = top;
pos = (323,690);
}
);
background = {
shapes = (
{
closed = 1;
nodes = (
(607,568,o),
(459,702,o),
(278,702,cs),
(191,702,o),
(115,678,o),
(49,632,c),
(126,504,l),
(165,532,o),
(215,552,o),
(270,552,cs),
(366,552,o),
(444,483,o),
(444,345,cs),
(444,207,o),
(366,138,o),
(269,138,cs),
(212,138,o),
(164,160,o),
(123,193,c),
(34,66,l),
(102,13,o),
(172,-12,o),
(273,-12,cs),
(451,-12,o),
(607,122,o),
(607,345,cs)
);
}
);
};
layerId = master01;
shapes = (
{
closed = 1;
nodes = (
(535,200,l),
(487,158,o),
(421,138,o),
(341,138,cs),
(250,138,o),
(213,175,o),
(213,219,cs),
(213,262,o),
(246,283,o),
(305,283,cs),
(462,283,l),
(462,387,l),
(280,387,ls),
(137,387,o),
(50,322,o),
(50,205,cs),
(50,75,o),
(167,-12,o),
(344,-12,cs),
(453,-12,o),
(539,14,o),
(606,71,c)
);
},
{
closed = 1;
nodes = (
(462,415,l),
(327,415,ls),
(267,415,o),
(234,435,o),
(234,476,cs),
(234,522,o),
(277,553,o),
(354,553,cs),
(425,553,o),
(488,535,o),
(532,500,c),
(609,626,l),
(541,675,o),
(450,702,o),
(342,702,cs),
(173,702,o),
(71,621,o),
(71,501,cs),
(71,393,o),
(158,325,o),
(302,325,cs),
(462,325,l)
);
}
);
width = 644;
}
);
metricLeft = "=|B";
metricRight = C;
unicode = 400;
},
{
color = 9;
glyphname = Ereversed;
layers = (
{
anchors = (
{
name = bottom;
pos = (224,0);
},
{
name = top;
pos = (225,690);
}
);
layerId = master03;
shapes = (
{
closed = 1;
nodes = (
(384,690,l),
(322,690,l),
(322,0,l),
(384,0,l)
);
},
{
closed = 1;
nodes = (
(354,54,l),
(54,54,l),
(54,0,l),
(354,0,l)
);
},
{
closed = 1;
nodes = (
(354,374,l),
(105,374,l),
(105,322,l),
(354,322,l)
);
},
{
closed = 1;
nodes = (
(354,690,l),
(59,690,l),
(59,636,l),
(354,636,l)
);
}
);
userData = {
com.schriftgestaltung.Glyphs.lastChange = "2021-04-27 22:02:12 +0000";
};
width = 461;
},
{
anchors = (
{
name = bottom;
pos = (239,0);
},
{
name = top;
pos = (239,690);
}
);
layerId = master04;
shapes = (
{
closed = 1;
nodes = (
(423,690,l),
(333,690,l),
(333,0,l),
(423,0,l)
);
},
{
closed = 1;
nodes = (
(378,83,l),
(54,83,l),
(54,0,l),
(378,0,l)
);
},
{
closed = 1;
nodes = (
(378,392,l),
(97,392,l),
(97,308,l),
(378,308,l)
);
},
{
closed = 1;
nodes = (
(378,690,l),
(58,690,l),
(58,607,l),
(378,607,l)
);
}
);
userData = {
com.schriftgestaltung.Glyphs.lastChange = "2021-03-11 04:56:33 +0000";
};
width = 500;
},
{
anchors = (
{
name = bottom;
pos = (250,0);
},
{
name = top;
pos = (250,690);
}
);
layerId = master02;
shapes = (
{
closed = 1;
nodes = (
(451,690,l),
(309,690,l),
(309,0,l),
(451,0,l)
);
},
{
closed = 1;
nodes = (
(386,132,l),
(45,132,l),
(45,0,l),
(386,0,l)
);
},
{
closed = 1;
nodes = (
(386,411,l),
(89,411,l),
(89,286,l),
(386,286,l)
);
},
{
closed = 1;
nodes = (
(386,690,l),
(49,690,l),
(49,558,l),
(386,558,l)
);
}
);
userData = {
com.schriftgestaltung.Glyphs.lastChange = "2021-03-17 10:39:14 +0000";
};
width = 520;
},
{
anchors = (
{
name = bottom;
pos = (285,0);
},
{
name = top;
pos = (285,690);
}
);
layerId = master05;
shapes = (
{
closed = 1;
nodes = (
(486,690,l),
(424,690,l),
(424,0,l),
(486,0,l)
);
},
{
closed = 1;
nodes = (
(456,54,l),
(70,54,l),
(70,0,l),
(456,0,l)
);
},
{
closed = 1;
nodes = (
(456,374,l),
(121,374,l),
(121,322,l),
(456,322,l)
);
},
{
closed = 1;
nodes = (
(456,690,l),
(75,690,l),
(75,636,l),
(456,636,l)
);
}
);
userData = {
com.schriftgestaltung.Glyphs.lastChange = "2021-03-11 21:12:00 +0000";
};
width = 596;
},
{
anchors = (
{
name = bottom;
pos = (293,0);
},
{
name = top;
pos = (293,690);
}
);
layerId = master06;
shapes = (
{
closed = 1;
nodes = (
(521,690,l),
(425,690,l),
(425,0,l),
(521,0,l)
);
},
{
closed = 1;
nodes = (
(471,86,l),
(70,86,l),
(70,0,l),
(471,0,l)
);
},
{
closed = 1;
nodes = (
(471,393,l),
(125,393,l),
(125,307,l),
(471,307,l)
);
},
{
closed = 1;
nodes = (
(471,690,l),
(75,690,l),
(75,604,l),
(471,604,l)
);
}
);
userData = {
com.schriftgestaltung.Glyphs.lastChange = "2021-03-11 21:46:06 +0000";
};
width = 621;
},
{
anchors = (
{
name = bottom;
pos = (312,0);
},
{
name = top;
pos = (312,690);
}
);
layerId = master01;
shapes = (
{
closed = 1;
nodes = (
(550,690,l),
(390,690,l),
(390,0,l),
(550,0,l)
);
},
{
closed = 1;
nodes = (
(476,140,l),
(60,140,l),
(60,0,l),
(476,0,l)
);
},
{
closed = 1;
nodes = (
(476,414,l),
(112,414,l),
(112,282,l),
(476,282,l)
);
},
{
closed = 1;
nodes = (
(476,690,l),
(65,690,l),
(65,550,l),
(476,550,l)
);
}
);
userData = {
com.schriftgestaltung.Glyphs.lastChange = "2021-03-11 21:46:45 +0000";
};
width = 635;
}
);
metricLeft = "=|E";
metricRight = H;
unicode = 398;
},
{
color = 9;
glyphname = Schwa;
kernLeft = O;
kernRight = O;
layers = (
{
anchors = (
{
name = bottom;
pos = (362,0);
},
{
name = top;
pos = (362,690);
}
);
layerId = master01;
shapes = (
{
closed = 1;
nodes = (
(45,122,o),
(188,-12,o),
(362,-12,cs),
(536,-12,o),
(679,120,o),
(679,345,cs),
(679,570,o),
(530,702,o),
(340,702,cs),
(250,702,o),
(150,670,o),
(90,635,c),
(145,500,l),
(185,525,o),
(260,552,o),
(320,552,cs),
(430,552,o),
(516,490,o),
(516,345,cs),
(516,200,o),
(450,131,o),
(362,131,cs),
(274,131,o),
(208,201,o),
(208,345,c),
(170,280,l),
(556,280,l),
(556,400,l),
(50,400,l),
(47,387,o),
(45,360,o),
(45,345,cs)
);
}
);
userData = {
com.schriftgestaltung.Glyphs.lastChange = "2021-03-11 23:13:14 +0000";
};
width = 724;
},
{
anchors = (
{
name = bottom;
pos = (305,0);
},
{
name = top;
pos = (305,690);
}
);
layerId = master02;
shapes = (
{
closed = 1;
nodes = (
(36,122,o),
(134,-10,o),
(299,-10,cs),
(463.793,-10,o),
(572,122,o),
(572,353,cs),
(572,565,o),
(463,702,o),
(297,702,cs),
(188,702,o),
(126,669.045,o),
(63,633,c),
(120,512,l),
(160,539.02,o),
(215,565,o),
(273,565,cs),
(372,565,o),
(433,502,o),
(433,340,cs),
(433,167.417,o),
(373,122,o),
(306,122,cs),
(231,122,o),
(175,166.438,o),
(175,325,c),
(148,283,l),
(449,283,l),
(449,405,l),
(42,405,l),
(40,392,o),
(36,367,o),
(36,318,cs)
);
}
);
userData = {
com.schriftgestaltung.Glyphs.lastChange = "2021-03-11 21:09:29 +0000";
};
width = 610;
},
{
anchors = (
{
name = bottom;
pos = (273,0);
},
{
name = top;
pos = (273,690);
}
);
layerId = master03;
shapes = (
{
closed = 1;
nodes = (
(45,132,o),
(118,-10,o),
(279,-10,cs),
(410,-10,o),
(501,132,o),
(501,345,cs),
(501,578,o),
(400,700,o),
(259,700,cs),
(186,700,o),
(139,679,o),
(77,636,c),
(107,587,l),
(158,622,o),
(197,640,o),
(255,640,cs),
(373,640,o),
(437,541,o),
(437,345,cs),
(437,169,o),
(382,50,o),
(279,50,cs),
(145,50,o),
(106,169,o),
(106,334,c),
(91,300,l),
(471,300,l),
(471,360,l),
(47,360,l),
(46,350,o),
(45,335,o),
(45,325,cs)
);
}
);
userData = {
com.schriftgestaltung.Glyphs.lastChange = "2021-03-11 20:56:43 +0000";
};
width = 546;
},
{
anchors = (
{
name = bottom;
pos = (285,0);
},
{
name = top;
pos = (285,690);
}
);
layerId = master04;
shapes = (
{
closed = 1;
nodes = (
(45,102,o),
(145,-10,o),
(284,-10,cs),
(416,-10,o),
(524,102.631,o),
(524,347,cs),
(524,578.687,o),
(415,700,o),
(268,700,cs),
(194,700,o),
(128,672.027,o),
(79,631,c),
(118,556,l),
(153.986,587.302,o),
(209.425,614,o),
(260,614,cs),
(363.593,614,o),
(433,524.669,o),
(433,347,cs),
(433,140.476,o),
(369,76,o),
(284,76,cs),
(199,76,o),
(133,149,o),
(133,334,c),
(116,284,l),
(452,284,l),
(452,368,l),
(47,368,l),
(46,359,o),
(45,345,o),
(45,324,c)
);
}
);
userData = {
com.schriftgestaltung.Glyphs.lastChange = "2021-03-11 21:03:33 +0000";
};
width = 569;
},
{
anchors = (
{
name = bottom;
pos = (363,0);
},
{
name = top;
pos = (363,690);
}
);
layerId = master05;
shapes = (
{
closed = 1;
nodes = (
(70,112,o),
(203,-10,o),
(364,-10,cs),
(525,-10,o),
(656,112,o),
(656,345,cs),
(656,578,o),
(525,700,o),
(344,700,cs),
(251,700,o),
(174,670,o),
(112,626,c),
(143,574,l),
(194,610,o),
(262,640,o),
(340,640,cs),
(498,640,o),
(592,541,o),
(592,345,cs),
(592,149,o),
(497,50,o),
(364,50,cs),
(230,50,o),
(131,149,o),
(131,334,c),
(116,300,l),
(626,300,l),
(626,360,l),
(72,360,l),
(71,350,o),
(70,335,o),
(70,325,cs)
);
}
);
userData = {
com.schriftgestaltung.Glyphs.lastChange = "2021-03-11 21:44:58 +0000";
};
width = 726;
},
{
anchors = (
{
name = bottom;
pos = (353,0);
},
{
name = top;
pos = (353,690);
}
);
layerId = master06;
shapes = (
{
closed = 1;
nodes = (
(60,112,o),
(192,-10,o),
(353,-10,cs),
(514,-10,o),
(646,112,o),
(646,345,cs),
(646,578,o),
(514,700,o),
(333,700,cs),
(240,700,o),
(164,670,o),
(102,626,c),
(148,548,l),
(196,582,o),
(266,611,o),
(333,611,cs),
(464,611,o),
(547,522,o),
(547,345,cs),
(547,168,o),
(464,79,o),
(353,79,cs),
(242,79,o),
(159,168,o),
(159,335,c),
(136,284,l),
(568,284,l),
(568,370,l),
(62,370,l),
(61,360,o),
(60,346,o),
(60,335,cs)
);
}
);
userData = {
com.schriftgestaltung.Glyphs.lastChange = "2021-03-11 21:49:28 +0000";
};
width = 706;
}
);
unicode = 399;
},
{
color = 9;
glyphname = F;
kernLeft = H;
layers = (
{
layerId = master01;
shapes = (
{
closed = 1;
nodes = (
(245,0,l),
(245,690,l),
(85,690,l),
(85,0,l)
);
},
{
closed = 1;
nodes = (
(515,247,l),
(515,387,l),
(159,387,l),
(159,247,l)
);
},
{
closed = 1;
nodes = (
(555,550,l),
(555,690,l),
(159,690,l),
(159,550,l)
);
}
);
userData = {
com.schriftgestaltung.Glyphs.lastChange = "2021-03-11 21:46:45 +0000";
};
width = 595;
},
{
layerId = master02;
shapes = (
{
closed = 1;
nodes = (
(212,0,l),
(212,690,l),
(70,690,l),
(70,0,l)
);
},
{
closed = 1;
nodes = (
(425,253,l),
(425,384,l),
(135,384,l),
(135,253,l)
);
},
{
closed = 1;
nodes = (
(459,558,l),
(459,690,l),
(135,690,l),
(135,558,l)
);
}
);
userData = {
com.schriftgestaltung.Glyphs.lastChange = "2021-03-11 05:51:32 +0000";
};
width = 494;
},
{
layerId = master03;
shapes = (
{
closed = 1;
nodes = (
(139,0,l),
(139,690,l),
(77,690,l),
(77,0,l)
);
},
{
closed = 1;
nodes = (
(341,301,l),
(341,355,l),
(107,355,l),
(107,301,l)
);
},
{
closed = 1;
nodes = (
(379,636,l),
(379,690,l),
(107,690,l),
(107,636,l)
);
}
);
userData = {
com.schriftgestaltung.Glyphs.lastChange = "2021-03-30 23:22:23 +0000";
};
width = 411;
},
{
layerId = master04;
shapes = (
{
closed = 1;
nodes = (
(167,0,l),
(167,690,l),
(77,690,l),
(77,0,l)
);
},
{
closed = 1;
nodes = (
(399,286,l),
(399,369,l),
(122,369,l),
(122,286,l)
);
},
{
closed = 1;
nodes = (
(430,607,l),
(430,690,l),
(122,690,l),
(122,607,l)
);
}
);
userData = {
com.schriftgestaltung.Glyphs.lastChange = "2021-03-11 04:56:33 +0000";
};
width = 462;
},
{
layerId = master05;
shapes = (
{
closed = 1;
nodes = (
(172,0,l),
(172,690,l),
(110,690,l),
(110,0,l)
);
},
{
closed = 1;
nodes = (
(470,301,l),
(470,355,l),
(140,355,l),
(140,301,l)
);
},
{
closed = 1;
nodes = (
(508,636,l),
(508,690,l),
(140,690,l),
(140,636,l)
);
}
);
userData = {
com.schriftgestaltung.Glyphs.lastChange = "2021-03-11 21:12:00 +0000";
};
width = 558;
},
{
layerId = master06;
shapes = (
{
closed = 1;
nodes = (
(196,0,l),
(196,690,l),
(100,690,l),
(100,0,l)
);
},
{
closed = 1;
nodes = (
(492,284,l),
(492,370,l),
(150,370,l),
(150,284,l)
);
},
{
closed = 1;
nodes = (
(531,604,l),
(531,690,l),
(150,690,l),
(150,604,l)
);
}
);
userData = {
com.schriftgestaltung.Glyphs.lastChange = "2021-03-11 21:46:06 +0000";
};
width = 571;
}
);
unicode = 70;
},
{
color = 9;
glyphname = G;
kernLeft = O;
kernRight = G;
layers = (
{
anchors = (
{
name = bottom;
pos = (377,0);
},
{
name = top;
pos = (377,690);
},
{
name = topright;
pos = (566,965);
}
);
layerId = master01;
shapes = (
{
closed = 1;
nodes = (
(45,122,o),
(204,-12,o),
(383,-12,cs),
(479,-12,o),
(562,19,o),
(643,81,c),
(489,149,l),
(455,134,o),
(418,128,o),
(390,128,cs),
(286,128,o),
(208,207,o),
(208,345,cs),
(208,483,o),
(289,554,o),
(391,554,cs),
(448,554,o),
(499,534,o),
(547,501,c),
(623,637,l),
(547,681,o),
(474,702,o),
(387,702,cs),
(204,702,o),
(45,568,o),
(45,345,cs)
);
},
{
closed = 1;
nodes = (
(575,249,l),
(575,382,l),
(359,382,l),
(359,249,l)
);
},
{
closed = 1;
nodes = (
(643,81,l),
(643,382,l),
(489,382,l),
(489,70,l)
);
}
);
userData = {
com.schriftgestaltung.Glyphs.lastChange = "2021-03-11 21:46:45 +0000";
};
width = 703;
},
{
anchors = (
{
name = bottom;
pos = (317,0);
},
{
name = top;
pos = (318,690);
},
{
name = topright;
pos = (475,965);
}
);
layerId = master02;
shapes = (
{
closed = 1;
nodes = (
(36,101,o),
(162,-12,o),
(322,-12,cs),
(403,-12,o),
(472,15.253,o),
(543,66,c),
(407,133,l),
(382,122,o),
(352,117,o),
(333,117,cs),
(236,117,o),
(181,190,o),
(181,345,cs),
(181,484,o),
(239,564,o),
(333,564,cs),
(381,564,o),
(423,548,o),
(462,518,c),
(526,641,l),
(461,682.265,o),
(399,702,o),
(326,702,cs),
(161,702,o),
(36,574,o),
(36,344,cs)
);
},
{
closed = 1;
nodes = (
(483,250,l),
(483,376,l),
(300,376,l),
(300,250,l)
);
},
{
closed = 1;
nodes = (
(543,66,l),
(543,376,l),
(406,376,l),
(406,60,l)
);
}
);
userData = {
com.schriftgestaltung.Glyphs.lastChange = "2021-03-11 05:51:32 +0000";
};
width = 591;
},
{
anchors = (
{
name = bottom;
pos = (256,0);
},
{
name = top;
pos = (256,690);
},
{
name = topright;
pos = (426,980);
}
);
layerId = master03;
shapes = (
{
closed = 1;
nodes = (
(45,112,o),
(136,-8,o),
(280,-8,cs),
(352,-8,o),
(413,25,o),
(457,87,c),
(409,117,l),
(377,69,o),
(334,47,o),
(280,47,cs),
(182,47,o),
(109,148,o),
(109,345,cs),
(109,542,o),
(171,641,o),
(276,641,cs),
(327,641,o),
(360,625,o),
(400,586,c),
(440,628,l),
(389,677,o),
(344,698,o),
(276,698,cs),
(138,698,o),
(45,578,o),
(45,345,cs)
);
},
{
closed = 1;
nodes = (
(427,276,l),
(427,330,l),
(284,330,l),
(284,276,l)
);
},
{
closed = 1;
nodes = (
(457,87,l),
(457,330,l),
(395,330,l),
(395,87,l)
);
}
);
userData = {
com.schriftgestaltung.Glyphs.lastChange = "2021-03-30 23:58:45 +0000";
};
width = 516;
},
{
anchors = (
{
name = bottom;
pos = (302,0);
},
{
name = top;
pos = (293,690);
},
{
name = topright;
pos = (458,975);
}
);
layerId = master04;
shapes = (
{
closed = 1;
nodes = (
(45,106,o),
(161,-10,o),
(304,-10,cs),
(388,-10,o),
(452,24,o),
(502,72,c),
(422,115,l),
(388,86,o),
(351,73,o),
(312,73,cs),
(212,73,o),
(138,160,o),
(138,345,c),
(138,530,o),
(211,612,o),
(308,612,cs),
(355,612,o),
(396,592,o),
(433,555,c),
(485,623,l),
(432,675,o),
(374,700,o),
(307,700,cs),
(165,700,o),
(45,584,o),
(45,345,c)
);
},
{
closed = 1;
nodes = (
(458,257,l),
(458,341,l),
(297,341,l),
(297,257,l)
);
},
{
closed = 1;
nodes = (
(502,72,l),
(502,341,l),
(413,341,l),
(413,60,l)
);
}
);
userData = {
com.schriftgestaltung.Glyphs.lastChange = "2021-03-11 04:56:33 +0000";
};
width = 561;
},
{
anchors = (
{
name = bottom;
pos = (361,0);
},
{
name = top;
pos = (361,690);
},
{
name = topright;
pos = (561,980);
}
);
layerId = master05;
shapes = (
{
closed = 1;
nodes = (
(70,112,o),
(206,-8,o),
(375,-8,cs),
(454,-8,o),
(536,25,o),
(592,87,c),
(544,117,l),
(502,69,o),
(436,47,o),
(375,47,cs),
(239,47,o),
(134,148,o),
(134,345,cs),
(134,542,o),
(241,641,o),
(371,641,cs),
(434,641,o),
(489,618,o),
(531,570,c),
(575,610,l),
(519,671,o),
(452,698,o),
(371,698,cs),
(208,698,o),
(70,578,o),
(70,345,cs)
);
},
{
closed = 1;
nodes = (
(562,276,l),
(562,330,l),
(379,330,l),
(379,276,l)
);
},
{
closed = 1;
nodes = (
(592,87,l),
(592,330,l),
(530,330,l),
(530,87,l)
);
}
);
userData = {
com.schriftgestaltung.Glyphs.lastChange = "2021-03-11 21:12:00 +0000";
};
width = 677;
},
{
anchors = (
{
name = bottom;
pos = (378,0);
},
{
name = top;
pos = (363,690);
},
{
name = topright;
pos = (532,975);
}
);
guides = (
{
angle = 90;
pos = (621,213);
}
);
layerId = master06;
shapes = (
{
closed = 1;
nodes = (
(60,116,o),
(200,-10,o),
(378,-10,cs),
(473,-10,o),
(560.25,28,o),
(621,82,c),
(542,126,l),
(495.519,91,o),
(446.133,76,o),
(389,76,cs),
(257,76,o),
(159,172,o),
(159,345,cs),
(159,518,o),
(254.252,609,o),
(383,609,cs),
(442,609,o),
(494,586,o),
(538,543,c),
(600,614,l),
(537,672,o),
(465,700,o),
(383,700,cs),
(207,700,o),
(60,574,o),
(60,345,cs)
);
},
{
closed = 1;
nodes = (
(571,257,l),
(571,343,l),
(375,343,l),
(375,257,l)
);
},
{
closed = 1;
nodes = (
(621,82,l),
(621,343,l),
(525,343,l),
(525,70,l)
);
}
);
userData = {
com.schriftgestaltung.Glyphs.lastChange = "2021-03-11 21:46:06 +0000";
};
width = 701;
}
);
unicode = 71;
},
{
color = 9;
glyphname = Gscript;
layers = (
{
background = {
shapes = (
{
closed = 1;
nodes = (
(398,-8,o),
(478,74,o),
(478,235,cs),
(478,690,l),
(416,690,l),
(416,235,ls),
(416,111,o),
(358,49,o),
(250,49,cs),
(187,49,o),
(129,78,o),
(99,124,c),
(56,87,l),
(90,30,o),
(170,-8,o),
(250,-8,cs)
);
},
{
closed = 1;
nodes = (
(380,238,o),
(451,339,o),
(451,468,cs),
(451,597,o),
(380,698,o),
(260,698,cs),
(133,698,o),
(44,604,o),
(44,468,cs),
(44,332,o),
(133,238,o),
(260,238,cs)
);
},
{
closed = 1;
nodes = (
(164,295,o),
(108,367,o),
(108,468,cs),
(108,569,o),
(164,641,o),
(262,641,cs),
(357,641,o),
(416,574,o),
(416,468,cs),
(416,362,o),
(357,295,o),
(262,295,cs)
);
}
);
};
layerId = master03;
shapes = (
{
closed = 1;
nodes = (
(398,-8,o),
(478,74,o),
(478,235,cs),
(478,690,l),
(416,690,l),
(416,235,ls),
(416,111,o),
(358,49,o),
(250,49,cs),
(187,49,o),
(129,78,o),
(99,124,c),
(56,87,l),
(90,30,o),
(170,-8,o),
(250,-8,cs)
);
},
{
closed = 1;
nodes = (
(380,218,o),
(451,323,o),
(451,458,cs),
(451,593,o),
(380,698,o),
(260,698,cs),
(133,698,o),
(44,600,o),
(44,458,cs),
(44,316,o),
(133,218,o),
(260,218,cs)
);
},
{
closed = 1;
nodes = (
(164,275,o),
(108,351,o),
(108,458,cs),
(108,565,o),
(164,641,o),
(262,641,cs),
(357,641,o),
(416,571,o),
(416,458,cs),
(416,345,o),
(357,275,o),
(262,275,cs)
);
}
);
userData = {
com.schriftgestaltung.Glyphs.lastChange = "2021-03-31 01:43:25 +0000";
};
width = 555;
},
{
layerId = master04;
shapes = (
{
closed = 1;
nodes = (
(443,-10,o),
(537,85,o),
(537,250,cs),
(537,690,l),
(447,690,l),
(447,250,ls),
(447,133,o),
(392,75,o),
(279,75,cs),
(219,75,o),
(163,100,o),
(127,141,c),
(73,71,l),
(122,20,o),
(200,-10,o),
(282,-10,cs)
);
},
{
closed = 1;
nodes = (
(408,210,o),
(489,306,o),
(489,455,cs),
(489,604,o),
(408,700,o),
(282,700,cs),
(143,700,o),
(45,598,o),
(45,455,cs),
(45,312,o),
(143,210,o),
(282,210,cs)
);
},
{
closed = 1;
nodes = (
(200,294,o),
(138,358,o),
(138,455,cs),
(138,552,o),
(200,616,o),
(293,616,cs),
(386,616,o),
(447,552,o),
(447,455,cs),
(447,358,o),
(386,294,o),
(293,294,cs)
);
}
);
userData = {
com.schriftgestaltung.Glyphs.lastChange = "2021-03-11 21:00:46 +0000";
};
width = 614;
},
{
layerId = master02;
shapes = (
{
closed = 1;
nodes = (
(473,-12,o),
(588,101,o),
(588,284,cs),
(588,690,l),
(446,690,l),
(446,284,ls),
(446,180,o),
(387,121,o),
(289,121,cs),
(224,121,o),
(157,147,o),
(112,189,c),
(39,76,l),
(108,17,o),
(195,-12,o),
(298,-12,cs)
);
},
{
closed = 1;
nodes = (
(419,198,o),
(482,299,o),
(482,450,cs),
(482,601,o),
(419,702,o),
(287,702,cs),
(143,702,o),
(36,597,o),
(36,450,cs),
(36,303,o),
(144,198,o),
(287,198,cs)
);
},
{
closed = 1;
nodes = (
(222,330,o),
(181,375,o),
(181,450,cs),
(181,525,o),
(232,570,o),
(314,570,cs),
(396,570,o),
(446,525,o),
(446,450,cs),
(446,375,o),
(406,330,o),
(314,330,cs)
);
}
);
userData = {
com.schriftgestaltung.Glyphs.lastChange = "2021-03-11 21:09:29 +0000";
};
width = 657;
},
{
background = {
shapes = (
{
closed = 1;
nodes = (
(70,112,o),
(200,-8,o),
(356,-8,cs),
(506,-8,o),
(619,108,o),
(619,345,cs),
(619,582,o),
(506,698,o),
(356,698,cs),
(200,698,o),
(70,578,o),
(70,345,cs)
);
},
{
closed = 1;
nodes = (
(134,542,o),
(233,641,o),
(358,641,cs),
(483,641,o),
(582,542,o),
(582,345,cs),
(582,148,o),
(483,49,o),
(358,49,cs),
(233,49,o),
(134,148,o),
(134,345,cs)
);
}
);
};
layerId = master05;
shapes = (
{
closed = 1;
nodes = (
(543,-8,o),
(644,74,o),
(644,265,cs),
(644,690,l),
(582,690,l),
(582,265,ls),
(582,111,o),
(508,49,o),
(353,49,cs),
(252,49,o),
(169,86,o),
(127,142,c),
(82,105,l),
(127,38,o),
(234,-8,o),
(350,-8,cs)
);
},
{
closed = 1;
nodes = (
(522,218,o),
(622,313,o),
(622,458,cs),
(622,603,o),
(522,698,o),
(356,698,cs),
(177,698,o),
(70,600,o),
(70,458,cs),
(70,316,o),
(177,218,o),
(356,218,cs)
);
},
{
closed = 1;
nodes = (
(209,275,o),
(134,351,o),
(134,458,cs),
(134,565,o),
(209,641,o),
(358,641,cs),
(507,641,o),
(582,570,o),
(582,458,cs),
(582,346,o),
(507,275,o),
(358,275,cs)
);
}
);
userData = {
com.schriftgestaltung.Glyphs.lastChange = "2021-03-11 21:44:19 +0000";
};
width = 754;
},
{
layerId = master06;
shapes = (
{
closed = 1;
nodes = (
(551,-10,o),
(663,90,o),
(663,273,cs),
(663,690,l),
(567,690,l),
(567,276,ls),
(567,140,o),
(499,79,o),
(349,79,cs),
(262,79,o),
(191,107,o),
(146,153,c),
(89,79,l),
(151,22,o),
(248,-10,o),
(353,-10,cs)
);
},
{
closed = 1;
nodes = (
(512,210,o),
(613,305,o),
(613,455,cs),
(613,605,o),
(512,700,o),
(353,700,cs),
(180,700,o),
(60,602,o),
(60,455,cs),
(60,308,o),
(180,210,o),
(353,210,cs)
);
},
{
closed = 1;
nodes = (
(232,298,o),
(159,357,o),
(159,455,cs),
(159,553,o),
(232,612,o),
(364,612,cs),
(496,612,o),
(567,554,o),
(567,455,cs),
(567,356,o),
(496,298,o),
(364,298,cs)
);
}
);
userData = {
com.schriftgestaltung.Glyphs.lastChange = "2021-03-11 21:49:28 +0000";
};
width = 763;
},
{
layerId = master01;
shapes = (
{
closed = 1;
nodes = (
(570,-12,o),
(696,104,o),
(696,314,cs),
(696,690,l),
(536,690,l),
(536,314,ls),
(536,184,o),
(474,127,o),
(341,127,cs),
(258,127,o),
(179,153,o),
(125,198,c),
(48,76,l),
(128,18,o),
(232,-12,o),
(354,-12,cs)
);
},
{
closed = 1;
nodes = (
(489,198,o),
(582,291,o),
(582,450,cs),
(582,609,o),
(489,702,o),
(332,702,cs),
(158,702,o),
(45,592,o),
(45,450,cs),
(45,308,o),
(159,198,o),
(332,198,cs)
);
},
{
closed = 1;
nodes = (
(263,334,o),
(208,379,o),
(208,450,cs),
(208,521,o),
(269,566,o),
(373,566,cs),
(476,566,o),
(536,522,o),
(536,450,cs),
(536,378,o),
(483,334,o),
(373,334,cs)
);
}
);
userData = {
com.schriftgestaltung.Glyphs.lastChange = "2021-03-11 23:13:14 +0000";
};
width = 781;
}
);
metricRight = H;
unicode = 42924;
},
{
color = 9;
glyphname = Gstroke;
kernLeft = O;
kernRight = G;
layers = (
{
anchors = (
{
name = bottom;
pos = (256,0);
},
{
name = top;
pos = (256,690);
}
);
layerId = master03;
shapes = (
{
closed = 1;
nodes = (
(45,112,o),
(136,-8,o),
(280,-8,cs),
(352,-8,o),
(413,25,o),
(457,87,c),
(409,117,l),
(377,69,o),
(334,47,o),
(280,47,cs),
(182,47,o),
(109,148,o),
(109,345,cs),
(109,542,o),
(171,641,o),
(276,641,cs),
(327,641,o),
(360,625,o),
(400,586,c),
(440,628,l),
(389,677,o),
(344,698,o),
(276,698,cs),
(138,698,o),
(45,578,o),
(45,345,cs)
);
},
{
closed = 1;
nodes = (
(427,276,l),
(427,330,l),
(284,330,l),
(284,276,l)
);
},
{
closed = 1;
nodes = (
(457,87,l),
(457,330,l),
(395,330,l),
(395,87,l)
);
},
{
closed = 1;
nodes = (
(527,164,l),
(527,214,l),
(266,214,l),
(266,164,l)
);
}
);
userData = {
com.schriftgestaltung.Glyphs.lastChange = "2021-03-30 23:58:45 +0000";
};
width = 516;
},
{
anchors = (
{
name = bottom;
pos = (302,0);
},
{
name = top;
pos = (293,690);
}
);
background = {
shapes = (
{
closed = 1;
nodes = (
(45,106,o),
(161,-10,o),
(304,-10,cs),
(388,-10,o),
(452,24,o),
(502,72,c),
(422,115,l),
(388,86,o),
(351,73,o),
(312,73,cs),
(212,73,o),
(138,160,o),
(138,345,c),
(138,530,o),
(211,612,o),
(308,612,cs),
(355,612,o),
(396,592,o),
(433,555,c),
(485,623,l),
(432,675,o),
(374,700,o),
(307,700,cs),
(165,700,o),
(45,584,o),
(45,345,c)
);
},
{
closed = 1;
nodes = (
(458,257,l),
(458,341,l),
(297,341,l),
(297,257,l)
);
},
{
closed = 1;
nodes = (
(502,72,l),
(502,341,l),
(413,341,l),
(413,60,l)
);
},
{
closed = 1;
nodes = (
(563,126,l),
(563,203,l),
(277,203,l),
(277,126,l)
);
}
);
};
layerId = master04;
shapes = (
{
closed = 1;
nodes = (
(45,106,o),
(161,-10,o),
(304,-10,cs),
(388,-10,o),
(452,20,o),
(502,54,c),
(422,105,l),
(388,86,o),
(351,73,o),
(312,73,cs),
(212,73,o),
(138,160,o),
(138,345,c),
(138,530,o),
(211,612,o),
(308,612,cs),
(355,612,o),
(396,592,o),
(433,555,c),
(485,623,l),
(432,675,o),
(374,700,o),
(307,700,cs),
(165,700,o),
(45,584,o),
(45,345,c)
);
},
{
closed = 1;
nodes = (
(458,277,l),
(458,361,l),
(297,361,l),
(297,277,l)
);
},
{
closed = 1;
nodes = (
(502,54,l),
(502,361,l),
(413,361,l),
(413,60,l)
);
},
{
closed = 1;
nodes = (
(563,141,l),
(563,218,l),
(277,218,l),
(277,141,l)
);
}
);
userData = {
com.schriftgestaltung.Glyphs.lastChange = "2021-03-11 04:56:33 +0000";
};
width = 561;
},
{
anchors = (
{
name = bottom;
pos = (317,0);
},
{
name = top;
pos = (318,690);
}
);
layerId = master02;
shapes = (
{
closed = 1;
nodes = (
(36,101,o),
(162,-12,o),
(322,-12,cs),
(403,-12,o),
(472,11,o),
(543,59,c),
(407,127,l),
(382,119,o),
(352,117,o),
(333,117,cs),
(236,117,o),
(181,190,o),
(181,345,cs),
(181,484,o),
(239,564,o),
(333,564,cs),
(381,564,o),
(423,548,o),
(462,518,c),
(526,641,l),
(461,682.265,o),
(399,702,o),
(326,702,cs),
(161,702,o),
(36,574,o),
(36,344,cs)
);
},
{
closed = 1;
nodes = (
(483,290,l),
(483,416,l),
(300,416,l),
(300,290,l)
);
},
{
closed = 1;
nodes = (
(543,59,l),
(543,416,l),
(406,416,l),
(406,60,l)
);
},
{
closed = 1;
nodes = (
(604,154,l),
(604,259,l),
(280,259,l),
(280,154,l)
);
}
);
userData = {
com.schriftgestaltung.Glyphs.lastChange = "2021-03-11 05:51:32 +0000";
};
width = 591;
},
{
anchors = (
{
name = bottom;
pos = (361,0);
},
{
name = top;
pos = (361,690);
}
);
layerId = master05;
shapes = (
{
closed = 1;
nodes = (
(70,112,o),
(206,-8,o),
(375,-8,cs),
(454,-8,o),
(536,25,o),
(592,87,c),
(544,117,l),
(502,69,o),
(436,47,o),
(375,47,cs),
(239,47,o),
(134,148,o),
(134,345,cs),
(134,542,o),
(241,641,o),
(371,641,cs),
(434,641,o),
(489,618,o),
(531,570,c),
(575,610,l),
(519,671,o),
(452,698,o),
(371,698,cs),
(208,698,o),
(70,578,o),
(70,345,cs)
);
},
{
closed = 1;
nodes = (
(562,276,l),
(562,330,l),
(379,330,l),
(379,276,l)
);
},
{
closed = 1;
nodes = (
(592,87,l),
(592,330,l),
(530,330,l),
(530,87,l)
);
},
{
closed = 1;
nodes = (
(672,157,l),
(672,207,l),
(359,207,l),
(359,157,l)
);
}
);
userData = {
com.schriftgestaltung.Glyphs.lastChange = "2021-03-11 21:12:00 +0000";
};
width = 677;
},
{
anchors = (
{
name = bottom;
pos = (378,0);
},
{
name = top;
pos = (363,690);
}
);
layerId = master06;
shapes = (
{
closed = 1;
nodes = (
(60,116,o),
(200,-10,o),
(378,-10,cs),
(473,-10,o),
(560,24,o),
(621,74,c),
(542,120,l),
(496,88,o),
(446.133,76,o),
(389,76,cs),
(257,76,o),
(159,172,o),
(159,345,cs),
(159,518,o),
(254.252,609,o),
(383,609,cs),
(442,609,o),
(494,586,o),
(538,543,c),
(600,614,l),
(537,672,o),
(465,700,o),
(383,700,cs),
(207,700,o),
(60,574,o),
(60,345,cs)
);
},
{
closed = 1;
nodes = (
(571,277,l),
(571,363,l),
(375,363,l),
(375,277,l)
);
},
{
closed = 1;
nodes = (
(621,74,l),
(621,363,l),
(525,363,l),
(525,70,l)
);
},
{
closed = 1;
nodes = (
(691,138,l),
(691,218,l),
(355,218,l),
(355,138,l)
);
}
);
userData = {
com.schriftgestaltung.Glyphs.lastChange = "2021-03-11 21:46:06 +0000";
};
width = 701;
},
{
anchors = (
{
name = bottom;
pos = (377,0);
},
{
name = top;
pos = (377,690);
}
);
layerId = master01;
shapes = (
{
closed = 1;
nodes = (
(45,122,o),
(204,-12,o),
(383,-12,cs),
(479,-12,o),
(562,13,o),
(643,73,c),
(489,144,l),
(455,130,o),
(418,126,o),
(390,126,cs),
(286,126,o),
(208,207,o),
(208,345,cs),
(208,483,o),
(289,554,o),
(391,554,cs),
(448,554,o),
(499,534,o),
(547,501,c),
(623,637,l),
(547,681,o),
(474,702,o),
(387,702,cs),
(204,702,o),
(45,568,o),
(45,345,cs)
);
},
{
closed = 1;
nodes = (
(575,289,l),
(575,422,l),
(359,422,l),
(359,289,l)
);
},
{
closed = 1;
nodes = (
(643,73,l),
(643,422,l),
(489,422,l),
(489,70,l)
);
},
{
closed = 1;
nodes = (
(713,154,l),
(713,259,l),
(339,259,l),
(339,154,l)
);
}
);
userData = {
com.schriftgestaltung.Glyphs.lastChange = "2021-03-11 21:46:45 +0000";
};
width = 703;
}
);
unicode = 484;
},
{
color = 9;
glyphname = H;
kernLeft = H;
kernRight = H;
layers = (
{
anchors = (
{
name = bottom;
pos = (377,0);
},
{
name = top;
pos = (377,690);
},
{
name = topright;
pos = (589,965);
}
);
layerId = master01;
shapes = (
{
closed = 1;
nodes = (
(245,0,l),
(245,690,l),
(85,690,l),
(85,0,l)
);
},
{
closed = 1;
nodes = (
(595,278,l),
(595,418,l),
(159,418,l),
(159,278,l)
);
},
{
closed = 1;
nodes = (
(669,0,l),
(669,690,l),
(509,690,l),
(509,0,l)
);
}
);
userData = {
com.schriftgestaltung.Glyphs.lastChange = "2021-03-11 21:46:45 +0000";
};
width = 754;
},
{
anchors = (
{
name = bottom;
pos = (318,0);
},
{
name = top;
pos = (318,690);
},
{
name = topright;
pos = (495,965);
}
);
layerId = master02;
shapes = (
{
closed = 1;
nodes = (
(212,0,l),
(212,690,l),
(70,690,l),
(70,0,l)
);
},
{
closed = 1;
nodes = (
(501,282,l),
(501,414,l),
(135,414,l),
(135,282,l)
);
},
{
closed = 1;
nodes = (
(566,0,l),
(566,690,l),
(424,690,l),
(424,0,l)
);
}
);
userData = {
com.schriftgestaltung.Glyphs.lastChange = "2021-03-11 05:51:32 +0000";
};
width = 635;
},
{
anchors = (
{
name = bottom;
pos = (275,0);
},
{
name = top;
pos = (275,690);
},
{
name = topright;
pos = (442,980);
}
);
layerId = master03;
shapes = (
{
closed = 1;
nodes = (
(139,0,l),
(139,690,l),
(77,690,l),
(77,0,l)
);
},
{
closed = 1;
nodes = (
(443,321,l),
(443,375,l),
(107,375,l),
(107,321,l)
);
},
{
closed = 1;
nodes = (
(473,0,l),
(473,690,l),
(411,690,l),
(411,0,l)
);
}
);
userData = {
com.schriftgestaltung.Glyphs.lastChange = "2021-03-31 00:02:32 +0000";
};
width = 550;
},
{
anchors = (
{
name = bottom;
pos = (297,0);
},
{
name = top;
pos = (297,690);
},
{
name = topright;
pos = (471,975);
}
);
layerId = master04;
shapes = (
{
closed = 1;
nodes = (
(167,0,l),
(167,690,l),
(77,690,l),
(77,0,l)
);
},
{
closed = 1;
nodes = (
(471,309,l),
(471,392,l),
(122,392,l),
(122,309,l)
);
},
{
closed = 1;
nodes = (
(516,0,l),
(516,690,l),
(426,690,l),
(426,0,l)
);
}
);
userData = {
com.schriftgestaltung.Glyphs.lastChange = "2021-03-11 04:56:33 +0000";
};
width = 593;
},
{
anchors = (
{
name = bottom;
pos = (358,0);
},
{
name = top;
pos = (358,690);
},
{
name = topright;
pos = (575,980);
}
);
layerId = master05;
shapes = (
{
closed = 1;
nodes = (
(172,0,l),
(172,690,l),
(110,690,l),
(110,0,l)
);
},
{
closed = 1;
nodes = (
(576,321,l),
(576,375,l),
(140,375,l),
(140,321,l)
);
},
{
closed = 1;
nodes = (
(606,0,l),
(606,690,l),
(544,690,l),
(544,0,l)
);
}
);
userData = {
com.schriftgestaltung.Glyphs.lastChange = "2021-03-11 21:12:00 +0000";
};
width = 716;
},
{
anchors = (
{
name = bottom;
pos = (368,0);
},
{
name = top;
pos = (368,690);
},
{
name = topright;
pos = (588,975);
}
);
layerId = master06;
shapes = (
{
closed = 1;
nodes = (
(196,0,l),
(196,690,l),
(100,690,l),
(100,0,l)
);
},
{
closed = 1;
nodes = (
(586,307,l),
(586,393,l),
(150,393,l),
(150,307,l)
);
},
{
closed = 1;
nodes = (
(636,0,l),
(636,690,l),
(540,690,l),
(540,0,l)
);
}
);
userData = {
com.schriftgestaltung.Glyphs.lastChange = "2021-03-11 21:46:06 +0000";
};
width = 736;
}
);
unicode = 72;
},
{
color = 3;
glyphname = Hbar;
kernLeft = H;
kernRight = H;
layers = (
{
layerId = master01;
shapes = (
{
closed = 1;
nodes = (
(250,0,l),
(250,690,l),
(90,690,l),
(90,0,l)
);
},
{
closed = 1;
nodes = (
(600,268,l),
(600,408,l),
(164,408,l),
(164,268,l)
);
},
{
closed = 1;
nodes = (
(674,0,l),
(674,690,l),
(514,690,l),
(514,0,l)
);
},
{
closed = 1;
nodes = (
(734,506,l),
(734,630,l),
(30,630,l),
(30,506,l)
);
}
);
userData = {
com.schriftgestaltung.Glyphs.lastChange = "2021-03-11 21:46:45 +0000";
};
width = 764;
},
{
layerId = master02;
shapes = (
{
closed = 1;
nodes = (
(216,0,l),
(216,690,l),
(74,690,l),
(74,0,l)
);
},
{
closed = 1;
nodes = (
(505,274,l),
(505,406,l),
(139,406,l),
(139,274,l)
);
},
{
closed = 1;
nodes = (
(570,0,l),
(570,690,l),
(428,690,l),
(428,0,l)
);
},
{
closed = 1;
nodes = (
(619,509,l),
(619,625,l),
(25,625,l),
(25,509,l)
);
}
);
userData = {
com.schriftgestaltung.Glyphs.lastChange = "2021-02-19 05:50:52 +0000";
};
width = 644;
},
{
layerId = master03;
shapes = (
{
closed = 1;
nodes = (
(167,0,l),
(167,690,l),
(105,690,l),
(105,0,l)
);
},
{
closed = 1;
nodes = (
(481,321,l),
(481,375,l),
(135,375,l),
(135,321,l)
);
},
{
closed = 1;
nodes = (
(511,0,l),
(511,690,l),
(449,690,l),
(449,0,l)
);
},
{
closed = 1;
nodes = (
(586,526,l),
(586,580,l),
(30,580,l),
(30,526,l)
);
}
);
userData = {
com.schriftgestaltung.Glyphs.lastChange = "2021-03-11 04:50:28 +0000";
};
width = 616;
},
{
layerId = master04;
shapes = (
{
closed = 1;
nodes = (
(171,0,l),
(171,690,l),
(81,690,l),
(81,0,l)
);
},
{
closed = 1;
nodes = (
(475,309,l),
(475,392,l),
(126,392,l),
(126,309,l)
);
},
{
closed = 1;
nodes = (
(520,0,l),
(520,690,l),
(430,690,l),
(430,0,l)
);
},
{
closed = 1;
nodes = (
(577,526,l),
(577,593,l),
(24,593,l),
(24,526,l)
);
}
);
userData = {
com.schriftgestaltung.Glyphs.lastChange = "2021-03-11 04:56:33 +0000";
};
width = 601;
},
{
layerId = master05;
shapes = (
{
closed = 1;
nodes = (
(177,0,l),
(177,690,l),
(115,690,l),
(115,0,l)
);
},
{
closed = 1;
nodes = (
(581,321,l),
(581,375,l),
(145,375,l),
(145,321,l)
);
},
{
closed = 1;
nodes = (
(611,0,l),
(611,690,l),
(549,690,l),
(549,0,l)
);
},
{
closed = 1;
nodes = (
(686,526,l),
(686,580,l),
(40,580,l),
(40,526,l)
);
}
);
userData = {
com.schriftgestaltung.Glyphs.lastChange = "2021-03-18 04:14:55 +0000";
};
width = 726;
},
{
layerId = master06;
shapes = (
{
closed = 1;
nodes = (
(201,0,l),
(201,690,l),
(105,690,l),
(105,0,l)
);
},
{
closed = 1;
nodes = (
(591,307,l),
(591,393,l),
(155,393,l),
(155,307,l)
);
},
{
closed = 1;
nodes = (
(641,0,l),
(641,690,l),
(545,690,l),
(545,0,l)
);
},
{
closed = 1;
nodes = (
(716,525,l),
(716,595,l),
(30,595,l),
(30,525,l)
);
}
);
userData = {
com.schriftgestaltung.Glyphs.lastChange = "2021-03-11 21:46:06 +0000";
};
width = 746;
}
);
unicode = 294;
},
{
color = 9;
glyphname = I;
kernLeft = I;
kernRight = I;
layers = (
{
anchors = (
{
name = bottom;
pos = (235,0);
},
{
name = ogonek;
pos = (283,0);
},
{
name = top;
pos = (235,690);
}
);
layerId = master01;
shapes = (
{
closed = 1;
nodes = (
(405,0,l),
(405,120,l),
(65,120,l),
(65,0,l)
);
},
{
closed = 1;
nodes = (
(405,570,l),
(405,690,l),
(65,690,l),
(65,570,l)
);
},
{
closed = 1;
nodes = (
(315,0,l),
(315,690,l),
(155,690,l),
(155,0,l)
);
}
);
userData = {
com.schriftgestaltung.Glyphs.lastChange = "2021-03-17 12:07:56 +0000";
};
width = 470;
},
{
anchors = (
{
name = bottom;
pos = (198,0);
},
{
name = ogonek;
pos = (229,0);
},
{
name = top;
pos = (198,690);
}
);
layerId = master02;
shapes = (
{
closed = 1;
nodes = (
(339,0,l),
(339,119,l),
(58,119,l),
(58,0,l)
);
},
{
closed = 1;
nodes = (
(339,571,l),
(339,690,l),
(58,690,l),
(58,571,l)
);
},
{
closed = 1;
nodes = (
(269,0,l),
(269,690,l),
(127,690,l),
(127,0,l)
);
}
);
userData = {
com.schriftgestaltung.Glyphs.lastChange = "2021-03-17 12:12:17 +0000";
};
width = 396;
},
{
anchors = (
{
name = bottom;
pos = (156,0);
},
{
name = ogonek;
pos = (196,0);
},
{
name = top;
pos = (156,690);
}
);
layerId = master03;
shapes = (
{
closed = 1;
nodes = (
(252,0,l),
(252,50,l),
(60,50,l),
(60,0,l)
);
},
{
closed = 1;
nodes = (
(252,640,l),
(252,690,l),
(60,690,l),
(60,640,l)
);
},
{
closed = 1;
nodes = (
(187,0,l),
(187,690,l),
(125,690,l),
(125,0,l)
);
}
);
userData = {
com.schriftgestaltung.Glyphs.lastChange = "2021-03-17 15:00:03 +0000";
};
width = 312;
},
{
anchors = (
{
name = bottom;
pos = (178,0);
},
{
name = ogonek;
pos = (296,0);
},
{
name = top;
pos = (178,690);
}
);
layerId = master04;
shapes = (
{
closed = 1;
nodes = (
(296,0,l),
(296,79,l),
(60,79,l),
(60,0,l)
);
},
{
closed = 1;
nodes = (
(296,611,l),
(296,690,l),
(60,690,l),
(60,611,l)
);
},
{
closed = 1;
nodes = (
(223,0,l),
(223,690,l),
(133,690,l),
(133,0,l)
);
}
);
userData = {
com.schriftgestaltung.Glyphs.lastChange = "2021-03-17 15:40:39 +0000";
};
width = 356;
},
{
anchors = (
{
name = bottom;
pos = (226,-4);
},
{
name = ogonek;
pos = (305,0);
},
{
name = top;
pos = (226,690);
}
);
layerId = master05;
shapes = (
{
closed = 1;
nodes = (
(362,0,l),
(362,50,l),
(90,50,l),
(90,0,l)
);
},
{
closed = 1;
nodes = (
(362,640,l),
(362,690,l),
(90,690,l),
(90,640,l)
);
},
{
closed = 1;
nodes = (
(257,0,l),
(257,690,l),
(195,690,l),
(195,0,l)
);
}
);
userData = {
com.schriftgestaltung.Glyphs.lastChange = "2021-03-17 12:06:51 +0000";
};
width = 452;
},
{
anchors = (
{
name = bottom;
pos = (228,0);
},
{
name = ogonek;
pos = (294,0);
},
{
name = top;
pos = (228,690);
}
);
layerId = master06;
shapes = (
{
closed = 1;
nodes = (
(376,0,l),
(376,81,l),
(80,81,l),
(80,0,l)
);
},
{
closed = 1;
nodes = (
(376,609,l),
(376,690,l),
(80,690,l),
(80,609,l)
);
},
{
closed = 1;
nodes = (
(276,0,l),
(276,690,l),
(180,690,l),
(180,0,l)
);
}
);
userData = {
com.schriftgestaltung.Glyphs.lastChange = "2021-03-17 12:09:05 +0000";
};
width = 456;
}
);
unicode = 73;
},
{
color = 3;
glyphname = IJ;
kernLeft = H;
kernRight = U;
layers = (
{
layerId = master01;
shapes = (
{
closed = 1;
nodes = (
(245,0,l),
(245,690,l),
(85,690,l),
(85,0,l)
);
},
{
closed = 1;
nodes = (
(370,0,o),
(424,-12,o),
(483,-12,cs),
(622,-12,o),
(744,80,o),
(744,245,cs),
(744,690,l),
(584,690,l),
(584,265,ls),
(584,177,o),
(541,132,o),
(473,132,cs),
(438,132,o),
(410,143,o),
(390,157,c),
(328,26,l)
);
}
);
userData = {
com.schriftgestaltung.Glyphs.lastChange = "2021-03-11 21:46:45 +0000";
};
width = 819;
},
{
layerId = master02;
shapes = (
{
closed = 1;
nodes = (
(212,0,l),
(212,690,l),
(70,690,l),
(70,0,l)
);
},
{
closed = 1;
nodes = (
(315,0,o),
(362,-12,o),
(413,-12,cs),
(531,-12,o),
(636,79,o),
(636,244,cs),
(636,690,l),
(494,690,l),
(494,262,ls),
(494,170,o),
(459,124,o),
(404,124,cs),
(374,124,o),
(351,135,o),
(334,149,c),
(279,26,l)
);
}
);
userData = {
com.schriftgestaltung.Glyphs.lastChange = "2021-03-11 05:51:32 +0000";
};
width = 697;
},
{
layerId = master03;
shapes = (
{
closed = 1;
nodes = (
(139,0,l),
(139,690,l),
(77,690,l),
(77,0,l)
);
},
{
closed = 1;
nodes = (
(265,3,o),
(305,-8,o),
(349,-8,cs),
(453,-8,o),
(513,68,o),
(513,215,cs),
(513,690,l),
(451,690,l),
(451,220,ls),
(451,106,o),
(419,49,o),
(349,49,cs),
(314,49,o),
(282,60,o),
(257,77,c),
(229,27,l)
);
}
);
userData = {
com.schriftgestaltung.Glyphs.lastChange = "2021-03-17 00:53:09 +0000";
};
width = 582;
},
{
layerId = master04;
shapes = (
{
closed = 1;
nodes = (
(167,0,l),
(167,690,l),
(77,690,l),
(77,0,l)
);
},
{
closed = 1;
nodes = (
(275,2,o),
(311,-10,o),
(350,-10,cs),
(454,-10,o),
(539,75,o),
(539,236,cs),
(539,690,l),
(450,690,l),
(450,245,ls),
(450,127,o),
(410,75,o),
(347,75,cs),
(320,75,o),
(297,85,o),
(279,101,c),
(244,25,l)
);
}
);
userData = {
com.schriftgestaltung.Glyphs.lastChange = "2021-03-11 05:51:48 +0000";
};
width = 608;
},
{
layerId = master05;
shapes = (
{
closed = 1;
nodes = (
(172,0,l),
(172,690,l),
(110,690,l),
(110,0,l)
);
},
{
closed = 1;
nodes = (
(338,4,o),
(377,-8,o),
(419,-8,cs),
(534,-8,o),
(626,68,o),
(626,215,cs),
(626,690,l),
(564,690,l),
(564,220,ls),
(564,106,o),
(500,49,o),
(419,49,cs),
(386,49,o),
(358,59,o),
(333,77,c),
(305,27,l)
);
}
);
userData = {
com.schriftgestaltung.Glyphs.lastChange = "2021-03-11 21:12:00 +0000";
};
width = 726;
},
{
layerId = master06;
shapes = (
{
closed = 1;
nodes = (
(196,0,l),
(196,690,l),
(100,690,l),
(100,0,l)
);
},
{
closed = 1;
nodes = (
(334,2,o),
(376,-10,o),
(421,-10,cs),
(548,-10,o),
(649,75,o),
(649,236,cs),
(649,690,l),
(555,690,l),
(555,246,ls),
(555,130,o),
(503,78,o),
(420,78,cs),
(386,78,o),
(358,88,o),
(334,104,c),
(296,25,l)
);
}
);
userData = {
com.schriftgestaltung.Glyphs.lastChange = "2021-03-11 21:46:06 +0000";
};
width = 739;
}
);
metricLeft = H;
metricRight = J;
unicode = 306;
},
{
color = 9;
glyphname = Iotaafrican;
layers = (
{
anchors = (
{
name = bottom;
pos = (141,0);
},
{
name = ogonek;
pos = (110,0);
},
{
name = top;
pos = (141,690);
}
);
background = {
shapes = (
{
closed = 1;
nodes = (
(172,0,l),
(172,690,l),
(110,690,l),
(110,0,l)
);
}
);
};
layerId = master03;
shapes = (
{
closed = 1;
nodes = (
(293,57,l),
(276,49,o),
(260,45,o),
(242,45,cs),
(194,45,o),
(172,73,o),
(172,136,cs),
(172,690,l),
(110,690,l),
(110,131,ls),
(110,40,o),
(155,-10,o),
(237,-10,cs),
(261,-10,o),
(287,-4,o),
(306,6,c)
);
}
);
userData = {
com.schriftgestaltung.Glyphs.lastChange = "2021-03-11 20:57:47 +0000";
};
width = 297;
},
{
anchors = (
{
name = bottom;
pos = (122,0);
},
{
name = ogonek;
pos = (77,0);
},
{
name = top;
pos = (122,690);
}
);
background = {
shapes = (
{
closed = 1;
nodes = (
(167,0,l),
(167,690,l),
(77,690,l),
(77,0,l)
);
}
);
};
layerId = master04;
shapes = (
{
closed = 1;
nodes = (
(261,76,l),
(248,71,o),
(236,67,o),
(222,67,cs),
(186,67,o),
(167,94,o),
(167,142,cs),
(167,690,l),
(77,690,l),
(77,138,ls),
(77,41,o),
(129,-10,o),
(208,-10,cs),
(233,-10,o),
(258,-5,o),
(275,4,c)
);
}
);
userData = {
com.schriftgestaltung.Glyphs.lastChange = "2021-03-11 21:04:16 +0000";
};
width = 262;
},
{
anchors = (
{
name = bottom;
pos = (141,0);
},
{
name = ogonek;
pos = (70,0);
},
{
name = top;
pos = (141,690);
}
);
background = {
shapes = (
{
closed = 1;
nodes = (
(212,0,l),
(212,690,l),
(70,690,l),
(70,0,l)
);
}
);
};
layerId = master02;
shapes = (
{
closed = 1;
nodes = (
(294,135,l),
(275,128,o),
(267,126,o),
(257,126,cs),
(226,126,o),
(212,145,o),
(212,185,cs),
(212,690,l),
(70,690,l),
(70,173,ls),
(70,58,o),
(130,-10,o),
(232,-10,cs),
(259,-10,o),
(292,-2,o),
(315,9,c)
);
}
);
userData = {
com.schriftgestaltung.Glyphs.lastChange = "2021-03-11 21:10:55 +0000";
};
width = 298;
},
{
anchors = (
{
name = bottom;
pos = (141,0);
},
{
name = ogonek;
pos = (110,0);
},
{
name = top;
pos = (141,690);
}
);
background = {
shapes = (
{
closed = 1;
nodes = (
(172,0,l),
(172,690,l),
(110,690,l),
(110,0,l)
);
}
);
};
layerId = master05;
shapes = (
{
closed = 1;
nodes = (
(293,57,l),
(276,49,o),
(260,45,o),
(242,45,cs),
(194,45,o),
(172,73,o),
(172,136,cs),
(172,690,l),
(110,690,l),
(110,131,ls),
(110,41,o),
(157,-10,o),
(239,-10,cs),
(262,-10,o),
(289,-4,o),
(306,6,c)
);
}
);
userData = {
com.schriftgestaltung.Glyphs.lastChange = "2021-03-11 21:45:03 +0000";
};
width = 303;
},
{
anchors = (
{
name = bottom;
pos = (148,0);
},
{
name = ogonek;
pos = (100,0);
},
{
name = top;
pos = (148,690);
}
);
background = {
shapes = (
{
closed = 1;
nodes = (
(196,0,l),
(196,690,l),
(100,690,l),
(100,0,l)
);
}
);
};
layerId = master06;
shapes = (
{
closed = 1;
nodes = (
(309,80,l),
(288,73,o),
(275,71,o),
(260,71,cs),
(218,71,o),
(196,99,o),
(196,155,cs),
(196,690,l),
(100,690,l),
(100,149,ls),
(100,50,o),
(155,-10,o),
(255,-10,cs),
(279,-10,o),
(305,-5,o),
(327,4,c)
);
}
);
userData = {
com.schriftgestaltung.Glyphs.lastChange = "2021-03-11 23:04:45 +0000";
};
width = 308;
},
{
anchors = (
{
name = bottom;
pos = (165,0);
},
{
name = ogonek;
pos = (85,0);
},
{
name = top;
pos = (165,690);
}
);
background = {
shapes = (
{
closed = 1;
nodes = (
(245,0,l),
(245,690,l),
(85,690,l),
(85,0,l)
);
}
);
};
layerId = master01;
shapes = (
{
closed = 1;
nodes = (
(348,130,l),
(329,124,o),
(316,121,o),
(303,121,cs),
(264,121,o),
(245,147,o),
(245,203,cs),
(245,690,l),
(85,690,l),
(85,190,ls),
(85,57,o),
(149,-10,o),
(277,-10,cs),
(306,-10,o),
(344,-4,o),
(371,8,c)
);
}
);
userData = {
com.schriftgestaltung.Glyphs.lastChange = "2021-03-11 23:22:59 +0000";
};
width = 350;
}
);
unicode = 406;
},
{
color = 9;
glyphname = J;
kernLeft = J;
kernRight = U;
layers = (
{
anchors = (
{
name = top;
pos = (332,690);
}
);
layerId = master01;
shapes = (
{
closed = 1;
nodes = (
(68,21,o),
(137,-12,o),
(223,-12,c),
(372,-12,o),
(494,80,o),
(494,245,cs),
(494,690,l),
(334,690,l),
(334,265,ls),
(334,177,o),
(291,131,o),
(218,131,c),
(173,131,o),
(134,154,o),
(111,186,c),
(15,74,l)
);
},
{
closed = 1;
nodes = (
(440,570,l),
(440,690,l),
(170,690,l),
(170,570,l)
);
}
);
userData = {
com.schriftgestaltung.Glyphs.lastChange = "2021-03-11 23:09:35 +0000";
};
width = 569;
},
{
anchors = (
{
name = top;
pos = (277,690);
}
);
layerId = master02;
shapes = (
{
closed = 1;
nodes = (
(57,18,o),
(115,-12,o),
(188,-12,cs),
(316,-12,o),
(416,79,o),
(416,244,cs),
(416,690,l),
(274,690,l),
(274,262,ls),
(274,169,o),
(240,121,o),
(178,121,cs),
(136,121,o),
(104,142,o),
(84,164,c),
(11,64,l)
);
},
{
closed = 1;
nodes = (
(369,576,l),
(369,690,l),
(138,690,l),
(138,576,l)
);
}
);
userData = {
com.schriftgestaltung.Glyphs.lastChange = "2021-03-11 21:48:16 +0000";
};
width = 477;
},
{
anchors = (
{
name = top;
pos = (238,690);
}
);
layerId = master03;
shapes = (
{
closed = 1;
nodes = (
(70,25,o),
(116,-8,o),
(180,-8,c),
(289,-8,o),
(329,63,o),
(329,205,cs),
(329,690,l),
(267,690,l),
(267,210,ls),
(267,95,o),
(245,49,o),
(178,49,c),
(131,49,o),
(104,82,o),
(75,119,c),
(32,82,l)
);
},
{
closed = 1;
nodes = (
(303,640,l),
(303,690,l),
(147,690,l),
(147,640,l)
);
}
);
userData = {
com.schriftgestaltung.Glyphs.lastChange = "2021-03-31 00:11:49 +0000";
};
width = 398;
},
{
anchors = (
{
name = top;
pos = (274,690);
}
);
layerId = master04;
shapes = (
{
closed = 1;
nodes = (
(66.402,35,o),
(126.101,-10,o),
(203,-10,cs),
(316.777,-10,o),
(389,71,o),
(389,236,cs),
(389,690,l),
(300,690,l),
(300,245,ls),
(300,119,o),
(262,75,o),
(201,75,cs),
(146,75,o),
(114,113,o),
(90,149,c),
(32,94,l)
);
},
{
closed = 1;
nodes = (
(354,611,l),
(354,690,l),
(158,690,l),
(158,611,l)
);
}
);
userData = {
com.schriftgestaltung.Glyphs.lastChange = "2021-03-11 05:41:02 +0000";
};
width = 458;
},
{
anchors = (
{
name = top;
pos = (315,690);
}
);
layerId = master05;
shapes = (
{
closed = 1;
nodes = (
(98,25,o),
(160,-8,o),
(229,-8,c),
(344,-8,o),
(436,68,o),
(436,215,cs),
(436,690,l),
(374,690,l),
(374,220,ls),
(374,106,o),
(310,49,o),
(229,49,c),
(177,49,o),
(136,73,o),
(102,119,c),
(55,87,l)
);
},
{
closed = 1;
nodes = (
(410,640,l),
(410,690,l),
(194,690,l),
(194,640,l)
);
}
);
userData = {
com.schriftgestaltung.Glyphs.lastChange = "2021-03-11 21:48:32 +0000";
};
width = 536;
},
{
anchors = (
{
name = top;
pos = (345,690);
}
);
layerId = master06;
shapes = (
{
closed = 1;
nodes = (
(86,39,o),
(168,-10,o),
(255,-10,cs),
(382,-10,o),
(483,75,o),
(483,236,cs),
(483,690,l),
(389,690,l),
(389,246,ls),
(389,130,o),
(337,78,o),
(254,78,cs),
(187,78,o),
(140,119,o),
(116,163,c),
(45,107,l)
);
},
{
closed = 1;
nodes = (
(443,609,l),
(443,690,l),
(207,690,l),
(207,609,l)
);
}
);
userData = {
com.schriftgestaltung.Glyphs.lastChange = "2021-03-11 21:48:54 +0000";
};
width = 573;
}
);
unicode = 74;
},
{
color = 9;
glyphname = K;
kernLeft = H;
kernRight = K;
layers = (
{
anchors = (
{
name = bottom;
pos = (360,0);
},
{
name = top;
pos = (360,690);
},
{
name = topright;
pos = (573,965);
}
);
layerId = master01;
shapes = (
{
closed = 1;
nodes = (
(245,0,l),
(245,690,l),
(85,690,l),
(85,0,l)
);
},
{
closed = 1;
nodes = (
(343,311,l),
(364,336,l),
(662,690,l),
(463,690,l),
(189,331,l),
(189,128,l)
);
},
{
closed = 1;
nodes = (
(481,0,l),
(675,0,l),
(398,408,l),
(295,292,l)
);
}
);
userData = {
com.schriftgestaltung.Glyphs.lastChange = "2021-03-11 21:46:45 +0000";
};
width = 675;
},
{
anchors = (
{
name = bottom;
pos = (310,0);
},
{
name = top;
pos = (310,690);
},
{
name = topright;
pos = (496,965);
}
);
layerId = master02;
shapes = (
{
closed = 1;
nodes = (
(212,0,l),
(212,690,l),
(70,690,l),
(70,0,l)
);
},
{
closed = 1;
nodes = (
(299,334,l),
(325,344,l),
(565,690,l),
(406,690,l),
(155,328,l),
(155,117,l)
);
},
{
closed = 1;
nodes = (
(412,0,l),
(573,0,l),
(343,428,l),
(257,298,l)
);
}
);
userData = {
com.schriftgestaltung.Glyphs.lastChange = "2021-03-11 21:48:16 +0000";
};
width = 571;
},
{
anchors = (
{
name = bottom;
pos = (257,0);
},
{
name = top;
pos = (257,690);
},
{
name = topright;
pos = (455,980);
}
);
layerId = master03;
shapes = (
{
closed = 1;
nodes = (
(139,0,l),
(139,690,l),
(77,690,l),
(77,0,l)
);
},
{
closed = 1;
nodes = (
(213,349,l),
(220,357,l),
(478,690,l),
(412,690,l),
(133,329,l),
(133,246,l)
);
},
{
closed = 1;
nodes = (
(391,0,l),
(457,0,l),
(232,381,l),
(191,345,l)
);
}
);
userData = {
com.schriftgestaltung.Glyphs.lastChange = "2021-03-31 00:14:28 +0000";
};
width = 487;
},
{
anchors = (
{
name = bottom;
pos = (280,0);
},
{
name = top;
pos = (280,690);
},
{
name = topright;
pos = (452,975);
}
);
layerId = master04;
shapes = (
{
closed = 1;
nodes = (
(166,0,l),
(166,690,l),
(77,690,l),
(77,0,l)
);
},
{
closed = 1;
nodes = (
(250,352,l),
(262,352,l),
(495,690,l),
(389,690,l),
(144,336,l),
(144,203,l)
);
},
{
closed = 1;
nodes = (
(405,0,l),
(511,0,l),
(279,402,l),
(216,335,l)
);
}
);
userData = {
com.schriftgestaltung.Glyphs.lastChange = "2021-03-11 05:41:02 +0000";
};
width = 520;
},
{
anchors = (
{
name = bottom;
pos = (340,0);
},
{
name = top;
pos = (340,690);
},
{
name = topright;
pos = (546,980);
}
);
layerId = master05;
shapes = (
{
closed = 1;
nodes = (
(172,0,l),
(172,690,l),
(110,690,l),
(110,0,l)
);
},
{
closed = 1;
nodes = (
(287,357,l),
(294,365,l),
(573,690,l),
(498,690,l),
(166,299,l),
(166,216,l)
);
},
{
closed = 1;
nodes = (
(512,0,l),
(590,0,l),
(302,392,l),
(262,348,l)
);
}
);
userData = {
com.schriftgestaltung.Glyphs.lastChange = "2021-03-11 21:48:32 +0000";
};
width = 615;
},
{
anchors = (
{
name = bottom;
pos = (340,0);
},
{
name = top;
pos = (340,690);
},
{
name = topright;
pos = (558,975);
}
);
layerId = master06;
shapes = (
{
closed = 1;
nodes = (
(196,0,l),
(196,690,l),
(100,690,l),
(100,0,l)
);
},
{
closed = 1;
nodes = (
(300,343,l),
(307,351,l),
(606,690,l),
(489,690,l),
(180,331,l),
(180,207,l)
);
},
{
closed = 1;
nodes = (
(507,0,l),
(626,0,l),
(331,402,l),
(270,333,l)
);
}
);
userData = {
com.schriftgestaltung.Glyphs.lastChange = "2021-03-11 21:48:54 +0000";
};
width = 641;
}
);
unicode = 75;
},
{
color = 9;
glyphname = L;
kernLeft = H;
kernRight = L;
layers = (
{
anchors = (
{
name = bottom;
pos = (320,0);
},
{
name = caron.alt;
pos = (370,680);
},
{
name = top;
pos = (165,690);
},
{
name = topright;
pos = (535,965);
}
);
layerId = master01;
shapes = (
{
closed = 1;
nodes = (
(245,0,l),
(245,690,l),
(85,690,l),
(85,0,l)
);
},
{
closed = 1;
nodes = (
(555,0,l),
(555,140,l),
(159,140,l),
(159,0,l)
);
}
);
userData = {
com.schriftgestaltung.Glyphs.lastChange = "2021-03-11 23:09:59 +0000";
};
width = 590;
},
{
anchors = (
{
name = bottom;
pos = (274,0);
},
{
name = caron.alt;
pos = (312,680);
},
{
name = top;
pos = (141,690);
},
{
name = topright;
pos = (451,965);
}
);
layerId = master02;
shapes = (
{
closed = 1;
nodes = (
(212,0,l),
(212,690,l),
(70,690,l),
(70,0,l)
);
},
{
closed = 1;
nodes = (
(471,0,l),
(471,132,l),
(135,132,l),
(135,0,l)
);
}
);
userData = {
com.schriftgestaltung.Glyphs.lastChange = "2021-03-11 21:08:38 +0000";
};
width = 500;
},
{
anchors = (
{
name = bottom;
pos = (208,0);
},
{
name = caron.alt;
pos = (260,680);
},
{
name = top;
pos = (108,690);
},
{
name = topright;
pos = (319,980);
}
);
layerId = master03;
shapes = (
{
closed = 1;
nodes = (
(139,0,l),
(139,690,l),
(77,690,l),
(77,0,l)
);
},
{
closed = 1;
nodes = (
(339,0,l),
(339,54,l),
(107,54,l),
(107,0,l)
);
}
);
userData = {
com.schriftgestaltung.Glyphs.lastChange = "2021-03-31 00:14:43 +0000";
};
width = 370;
},
{
anchors = (
{
name = bottom;
pos = (249,0);
},
{
name = caron.alt;
pos = (288,680);
},
{
name = top;
pos = (122,690);
},
{
name = topright;
pos = (401,975);
}
);
layerId = master04;
shapes = (
{
closed = 1;
nodes = (
(167,0,l),
(167,690,l),
(77,690,l),
(77,0,l)
);
},
{
closed = 1;
nodes = (
(421,0,l),
(421,83,l),
(122,83,l),
(122,0,l)
);
}
);
userData = {
com.schriftgestaltung.Glyphs.lastChange = "2021-03-11 05:41:02 +0000";
};
width = 452;
},
{
anchors = (
{
name = bottom;
pos = (300,0);
},
{
name = caron.alt;
pos = (352,680);
},
{
name = top;
pos = (141,690);
},
{
name = topright;
pos = (472,980);
}
);
layerId = master05;
shapes = (
{
closed = 1;
nodes = (
(172,0,l),
(172,690,l),
(110,690,l),
(110,0,l)
);
},
{
closed = 1;
nodes = (
(492,0,l),
(492,54,l),
(140,54,l),
(140,0,l)
);
}
);
userData = {
com.schriftgestaltung.Glyphs.lastChange = "2021-03-11 21:44:02 +0000";
};
width = 542;
},
{
anchors = (
{
name = bottom;
pos = (308,0);
},
{
name = caron.alt;
pos = (356,680);
},
{
name = top;
pos = (148,690);
},
{
name = topright;
pos = (496,975);
}
);
layerId = master06;
shapes = (
{
closed = 1;
nodes = (
(196,0,l),
(196,690,l),
(100,690,l),
(100,0,l)
);
},
{
closed = 1;
nodes = (
(516,0,l),
(516,86,l),
(150,86,l),
(150,0,l)
);
}
);
userData = {
com.schriftgestaltung.Glyphs.lastChange = "2021-03-11 21:48:54 +0000";
};
width = 556;
}
);
unicode = 76;
},
{
color = 9;
glyphname = Lbar;
kernRight = L;
layers = (
{
layerId = master03;
shapes = (
{
closed = 1;
nodes = (
(206,0,l),
(206,690,l),
(144,690,l),
(144,0,l)
);
},
{
closed = 1;
nodes = (
(406,0,l),
(406,54,l),
(174,54,l),
(174,0,l)
);
},
{
closed = 1;
nodes = (
(341,363,l),
(341,413,l),
(14,413,l),
(14,363,l)
);
}
);
width = 437;
},
{
layerId = master04;
shapes = (
{
closed = 1;
nodes = (
(242,0,l),
(242,690,l),
(152,690,l),
(152,0,l)
);
},
{
closed = 1;
nodes = (
(496,0,l),
(496,83,l),
(197,83,l),
(197,0,l)
);
},
{
closed = 1;
nodes = (
(384,350,l),
(384,427,l),
(15,427,l),
(15,350,l)
);
}
);
width = 527;
},
{
layerId = master02;
shapes = (
{
closed = 1;
nodes = (
(280,0,l),
(280,690,l),
(138,690,l),
(138,0,l)
);
},
{
closed = 1;
nodes = (
(539,0,l),
(539,132,l),
(203,132,l),
(203,0,l)
);
},
{
closed = 1;
nodes = (
(408,343,l),
(408,455,l),
(15,455,l),
(15,343,l)
);
}
);
width = 568;
},
{
layerId = master05;
shapes = (
{
closed = 1;
nodes = (
(238,0,l),
(238,690,l),
(176,690,l),
(176,0,l)
);
},
{
closed = 1;
nodes = (
(558,0,l),
(558,54,l),
(206,54,l),
(206,0,l)
);
},
{
closed = 1;
nodes = (
(389,363,l),
(389,413,l),
(30,413,l),
(30,363,l)
);
}
);
width = 608;
},
{
layerId = master06;
shapes = (
{
closed = 1;
nodes = (
(284,0,l),
(284,690,l),
(188,690,l),
(188,0,l)
);
},
{
closed = 1;
nodes = (
(604,0,l),
(604,86,l),
(238,86,l),
(238,0,l)
);
},
{
closed = 1;
nodes = (
(447,350,l),
(447,427,l),
(30,427,l),
(30,350,l)
);
}
);
width = 644;
},
{
layerId = master01;
shapes = (
{
closed = 1;
nodes = (
(308,0,l),
(308,690,l),
(148,690,l),
(148,0,l)
);
},
{
closed = 1;
nodes = (
(618,0,l),
(618,140,l),
(222,140,l),
(222,0,l)
);
},
{
closed = 1;
nodes = (
(431,343,l),
(431,455,l),
(30,455,l),
(30,343,l)
);
}
);
width = 653;
}
);
metricRight = L;
unicode = 573;
},
{
color = 9;
glyphname = Lbelt;
kernRight = L;
layers = (
{
anchors = (
{
name = bottom;
pos = (275,0);
},
{
name = caron.alt;
pos = (327,680);
},
{
name = top;
pos = (175,690);
}
);
layerId = master03;
shapes = (
{
closed = 1;
nodes = (
(206,0,l),
(206,690,l),
(144,690,l),
(144,0,l)
);
},
{
closed = 1;
nodes = (
(406,0,l),
(406,54,l),
(174,54,l),
(174,0,l)
);
},
{
closed = 1;
nodes = (
(342,321,l),
(342,371,l),
(115,371,ls),
(71,371,o),
(49,392,o),
(49,429,cs),
(49,462,o),
(67,487,o),
(98,487,cs),
(126,487,o),
(144,462,o),
(144,424,c),
(156,424,l),
(156,488,o),
(135,534,o),
(86,534,cs),
(34,534,o),
(-4,489,o),
(-4,428,cs),
(-4,364,o),
(48,321,o),
(126,321,cs)
);
}
);
userData = {
com.schriftgestaltung.Glyphs.lastChange = "2021-03-31 00:14:43 +0000";
};
width = 437;
},
{
anchors = (
{
name = bottom;
pos = (324,0);
},
{
name = caron.alt;
pos = (363,680);
},
{
name = top;
pos = (197,690);
}
);
layerId = master04;
shapes = (
{
closed = 1;
nodes = (
(242,0,l),
(242,690,l),
(152,690,l),
(152,0,l)
);
},
{
closed = 1;
nodes = (
(496,0,l),
(496,83,l),
(197,83,l),
(197,0,l)
);
},
{
closed = 1;
nodes = (
(384,308,l),
(384,385,l),
(143,385,ls),
(99,385,o),
(79,403,o),
(79,432,cs),
(79,457,o),
(95,476,o),
(116,476,cs),
(138,476,o),
(152,457,o),
(152,426,c),
(164,425,l),
(164,503,o),
(138,548,o),
(90,548,cs),
(42,548,o),
(-2,503,o),
(-2,437,cs),
(-2,356,o),
(54,308,o),
(158,308,cs)
);
}
);
userData = {
com.schriftgestaltung.Glyphs.lastChange = "2021-03-11 05:41:02 +0000";
};
width = 527;
},
{
anchors = (
{
name = bottom;
pos = (362,0);
},
{
name = caron.alt;
pos = (400,680);
},
{
name = top;
pos = (229,690);
}
);
layerId = master02;
metricWidth = "=Lbar+20";
shapes = (
{
closed = 1;
nodes = (
(300,0,l),
(300,690,l),
(158,690,l),
(158,0,l)
);
},
{
closed = 1;
nodes = (
(559,0,l),
(559,132,l),
(223,132,l),
(223,0,l)
);
},
{
closed = 1;
nodes = (
(428,290,l),
(428,402,l),
(152,402,ls),
(119,402,o),
(102,415,o),
(102,441,cs),
(102,462,o),
(114,478,o),
(133,478,cs),
(146,478,o),
(158,470,o),
(158,446,c),
(164,446,l),
(164,522,o),
(136,565,o),
(87,565,cs),
(31,565,o),
(-13,513,o),
(-13,439,cs),
(-13,349,o),
(48,290,o),
(174,290,cs)
);
}
);
userData = {
com.schriftgestaltung.Glyphs.lastChange = "2021-03-11 21:08:38 +0000";
};
width = 588;
},
{
anchors = (
{
name = bottom;
pos = (366,0);
},
{
name = caron.alt;
pos = (418,680);
},
{
name = top;
pos = (207,690);
}
);
layerId = master05;
shapes = (
{
closed = 1;
nodes = (
(238,0,l),
(238,690,l),
(176,690,l),
(176,0,l)
);
},
{
closed = 1;
nodes = (
(558,0,l),
(558,54,l),
(206,54,l),
(206,0,l)
);
},
{
closed = 1;
nodes = (
(389,321,l),
(389,371,l),
(141,371,ls),
(88,371,o),
(61,392,o),
(61,431,cs),
(61,462,o),
(83,487,o),
(120,487,cs),
(154,487,o),
(176,462,o),
(176,424,c),
(188,424,l),
(188,488,o),
(164,534,o),
(109,534,cs),
(51,534,o),
(8,489,o),
(8,428,cs),
(8,364,o),
(61,321,o),
(148,321,cs)
);
}
);
userData = {
com.schriftgestaltung.Glyphs.lastChange = "2021-03-11 21:44:02 +0000";
};
width = 608;
},
{
anchors = (
{
name = bottom;
pos = (396,0);
},
{
name = caron.alt;
pos = (444,680);
},
{
name = top;
pos = (236,690);
}
);
layerId = master06;
shapes = (
{
closed = 1;
nodes = (
(284,0,l),
(284,690,l),
(188,690,l),
(188,0,l)
);
},
{
closed = 1;
nodes = (
(604,0,l),
(604,86,l),
(238,86,l),
(238,0,l)
);
},
{
closed = 1;
nodes = (
(447,307,l),
(447,384,l),
(177,384,ls),
(121,384,o),
(100,402,o),
(100,431,cs),
(100,456,o),
(116,475,o),
(143,475,cs),
(170,475,o),
(188,456,o),
(188,425,c),
(200,424,l),
(200,502,o),
(171,547,o),
(118,547,cs),
(62,547,o),
(15,502,o),
(15,436,cs),
(15,355,o),
(77,307,o),
(193,307,cs)
);
}
);
userData = {
com.schriftgestaltung.Glyphs.lastChange = "2021-03-11 21:48:54 +0000";
};
width = 644;
},
{
anchors = (
{
name = bottom;
pos = (413,0);
},
{
name = caron.alt;
pos = (463,680);
},
{
name = top;
pos = (258,690);
}
);
layerId = master01;
metricWidth = "=Lbar+30";
shapes = (
{
closed = 1;
nodes = (
(338,0,l),
(338,690,l),
(178,690,l),
(178,0,l)
);
},
{
closed = 1;
nodes = (
(648,0,l),
(648,140,l),
(252,140,l),
(252,0,l)
);
},
{
closed = 1;
nodes = (
(461,290,l),
(461,402,l),
(156,402,ls),
(121,402,o),
(102,415,o),
(102,441,cs),
(102,462,o),
(118,478,o),
(144,478,cs),
(162,478,o),
(178,470,o),
(178,446,c),
(183,446,l),
(183,522,o),
(152,565,o),
(98,565,cs),
(36,565,o),
(-13,513,o),
(-13,439,cs),
(-13,349,o),
(45,290,o),
(174,290,cs)
);
}
);
userData = {
com.schriftgestaltung.Glyphs.lastChange = "2021-03-11 23:09:59 +0000";
};
width = 683;
}
);
metricRight = L;
metricWidth = Lbar;
unicode = 42925;
},
{
color = 9;
glyphname = Lmiddletilde;
kernRight = L;
layers = (
{
background = {
shapes = (
{
closed = 1;
nodes = (
(56,306,l),
(67,381,o),
(94,409,o),
(121,409,c),
(165,409,o),
(173,301,o),
(240,301,c),
(293,301,o),
(335,355,o),
(344,451,c),
(300,451,l),
(289,376,o),
(267,348,o),
(241,348,c),
(200,348,o),
(192,456,o),
(121,456,c),
(67,456,o),
(21,401,o),
(12,306,c)
);
},
{
closed = 1;
nodes = (
(217,0,l),
(217,690,l),
(155,690,l),
(155,0,l)
);
},
{
closed = 1;
nodes = (
(417,0,l),
(417,54,l),
(185,54,l),
(185,0,l)
);
}
);
};
layerId = master03;
shapes = (
{
closed = 1;
nodes = (
(54,306,l),
(56,381,o),
(83,409,o),
(117,409,cs),
(173,409,o),
(194,301,o),
(264,301,cs),
(323,301,o),
(362,355,o),
(362,451,c),
(318,451,l),
(316,376,o),
(294,348,o),
(261,348,cs),
(208,348,o),
(187,456,o),
(113,456,cs),
(53,456,o),
(10,401,o),
(10,306,c)
);
},
{
closed = 1;
nodes = (
(217,0,l),
(217,690,l),
(155,690,l),
(155,0,l)
);
},
{
closed = 1;
nodes = (
(417,0,l),
(417,54,l),
(185,54,l),
(185,0,l)
);
}
);
width = 448;
},
{
layerId = master04;
shapes = (
{
closed = 1;
nodes = (
(68,312,l),
(68,372,o),
(93,392,o),
(122,392,cs),
(164,392,o),
(227,302,o),
(288,302,cs),
(356,302,o),
(397,360,o),
(397,465,c),
(334,465,l),
(334,404,o),
(309,385,o),
(279,385,cs),
(239,385,o),
(180,475,o),
(119,475,cs),
(48,475,o),
(5,415,o),
(5,312,c)
);
},
{
closed = 1;
nodes = (
(246,0,l),
(246,690,l),
(156,690,l),
(156,0,l)
);
},
{
closed = 1;
nodes = (
(500,0,l),
(500,83,l),
(201,83,l),
(201,0,l)
);
}
);
width = 531;
},
{
background = {
shapes = (
{
closed = 1;
nodes = (
(402,303,o),
(457,378,o),
(457,491,c),
(364,491,l),
(364,446,o),
(342,414,o),
(311,414,cs),
(261,414,o),
(207,493,o),
(150,493,cs),
(54,493,o),
(0,421,o),
(0,305,c),
(93,305,l),
(93,351,o),
(114,381,o),
(146,381,cs),
(194,381,o),
(250,303,o),
(309,303,cs)
);
},
{
closed = 1;
nodes = (
(297,0,l),
(297,735,l),
(160,715,l),
(160,0,l)
);
}
);
};
layerId = master02;
shapes = (
{
closed = 1;
nodes = (
(93,305,l),
(93,351,o),
(114,381,o),
(146,381,cs),
(194,381,o),
(255,303,o),
(314,303,cs),
(407,303,o),
(462,378,o),
(462,491,c),
(369,491,l),
(369,446,o),
(347,414,o),
(316,414,cs),
(266,414,o),
(207,493,o),
(150,493,cs),
(54,493,o),
(0,421,o),
(0,305,c)
);
},
{
closed = 1;
nodes = (
(302,0,l),
(302,690,l),
(160,690,l),
(160,0,l)
);
},
{
closed = 1;
nodes = (
(561,0,l),
(561,132,l),
(225,132,l),
(225,0,l)
);
}
);
width = 590;
},
{
layerId = master05;
shapes = (
{
closed = 1;
nodes = (
(54,306,l),
(56,381,o),
(80,409,o),
(117,409,cs),
(181,409,o),
(202,301,o),
(285,301,cs),
(348,301,o),
(392,355,o),
(392,451,c),
(348,451,l),
(346,376,o),
(322,348,o),
(286,348,cs),
(219,348,o),
(198,456,o),
(117,456,cs),
(53,456,o),
(10,401,o),
(10,306,c)
);
},
{
closed = 1;
nodes = (
(232,0,l),
(232,690,l),
(170,690,l),
(170,0,l)
);
},
{
closed = 1;
nodes = (
(552,0,l),
(552,54,l),
(200,54,l),
(200,0,l)
);
}
);
width = 602;
},
{
layerId = master06;
shapes = (
{
closed = 1;
nodes = (
(68,311,l),
(68,366,o),
(88,394,o),
(127,394,cs),
(189,394,o),
(234,306,o),
(320,306,cs),
(390,306,o),
(443,374,o),
(443,466,c),
(380,466,l),
(380,416,o),
(359,383,o),
(321,383,cs),
(261,383,o),
(215,471,o),
(128,471,cs),
(52,471,o),
(5,411,o),
(5,311,c)
);
},
{
closed = 1;
nodes = (
(272,0,l),
(272,690,l),
(176,690,l),
(176,0,l)
);
},
{
closed = 1;
nodes = (
(592,0,l),
(592,86,l),
(226,86,l),
(226,0,l)
);
}
);
width = 632;
},
{
background = {
shapes = (
{
closed = 1;
nodes = (
(103,305,l),
(103,351,o),
(124,381,o),
(156,381,cs),
(204,381,o),
(265,303,o),
(324,303,cs),
(417,303,o),
(472,378,o),
(472,491,c),
(379,491,l),
(379,446,o),
(357,414,o),
(326,414,cs),
(276,414,o),
(217,493,o),
(160,493,cs),
(64,493,o),
(10,421,o),
(10,305,c)
);
}
);
};
layerId = master01;
shapes = (
{
closed = 1;
nodes = (
(95,305,l),
(95,351,o),
(118,381,o),
(159,381,cs),
(215,381,o),
(295,303,o),
(363,303,cs),
(455,303,o),
(524,372,o),
(524,491,c),
(429,491,l),
(429,447,o),
(405,414,o),
(364,414,cs),
(306,414,o),
(229,493,o),
(163,493,cs),
(67,493,o),
(0,427,o),
(0,305,c)
);
},
{
closed = 1;
nodes = (
(342,0,l),
(342,690,l),
(182,690,l),
(182,0,l)
);
},
{
closed = 1;
nodes = (
(652,0,l),
(652,140,l),
(256,140,l),
(256,0,l)
);
}
);
width = 687;
}
);
metricRight = L;
unicode = 11362;
},
{
color = 9;
glyphname = Lslash;
kernLeft = H;
kernRight = L;
layers = (
{
layerId = master01;
shapes = (
{
closed = 1;
nodes = (
(250,0,l),
(250,690,l),
(90,690,l),
(90,0,l)
);
},
{
closed = 1;
nodes = (
(560,0,l),
(560,140,l),
(164,140,l),
(164,0,l)
);
},
{
closed = 1;
nodes = (
(370,360,l),
(370,510,l),
(30,320,l),
(30,170,l)
);
}
);
userData = {
com.schriftgestaltung.Glyphs.lastChange = "2021-03-11 23:09:59 +0000";
};
width = 595;
},
{
layerId = master02;
shapes = (
{
closed = 1;
nodes = (
(215,0,l),
(215,690,l),
(73,690,l),
(73,0,l)
);
},
{
closed = 1;
nodes = (
(474,0,l),
(474,132,l),
(138,132,l),
(138,0,l)
);
},
{
closed = 1;
nodes = (
(312,364,l),
(312,506,l),
(25,317,l),
(25,176,l)
);
}
);
userData = {
com.schriftgestaltung.Glyphs.lastChange = "2021-03-11 21:08:56 +0000";
};
width = 503;
},
{
layerId = master03;
shapes = (
{
closed = 1;
nodes = (
(147,0,l),
(147,690,l),
(85,690,l),
(85,0,l)
);
},
{
closed = 1;
nodes = (
(377,0,l),
(377,54,l),
(115,54,l),
(115,0,l)
);
},
{
closed = 1;
nodes = (
(257,360,l),
(257,420,l),
(30,280,l),
(30,220,l)
);
}
);
userData = {
com.schriftgestaltung.Glyphs.lastChange = "2021-03-11 05:54:46 +0000";
};
width = 412;
},
{
layerId = master04;
shapes = (
{
closed = 1;
nodes = (
(174,0,l),
(174,690,l),
(84,690,l),
(84,0,l)
);
},
{
closed = 1;
nodes = (
(428,0,l),
(428,83,l),
(129,83,l),
(129,0,l)
);
},
{
closed = 1;
nodes = (
(288,392,l),
(288,478,l),
(27,299,l),
(27,212,l)
);
}
);
userData = {
com.schriftgestaltung.Glyphs.lastChange = "2021-03-11 05:54:55 +0000";
};
width = 459;
},
{
layerId = master05;
shapes = (
{
closed = 1;
nodes = (
(182,0,l),
(182,690,l),
(120,690,l),
(120,0,l)
);
},
{
closed = 1;
nodes = (
(502,0,l),
(502,54,l),
(150,54,l),
(150,0,l)
);
},
{
closed = 1;
nodes = (
(332,380,l),
(332,440,l),
(45,280,l),
(45,220,l)
);
}
);
userData = {
com.schriftgestaltung.Glyphs.lastChange = "2021-03-11 21:44:02 +0000";
};
width = 552;
},
{
layerId = master06;
shapes = (
{
closed = 1;
nodes = (
(206,0,l),
(206,690,l),
(110,690,l),
(110,0,l)
);
},
{
closed = 1;
nodes = (
(526,0,l),
(526,86,l),
(160,86,l),
(160,0,l)
);
},
{
closed = 1;
nodes = (
(356,390,l),
(356,480,l),
(35,300,l),
(35,210,l)
);
}
);
userData = {
com.schriftgestaltung.Glyphs.lastChange = "2021-03-11 21:48:54 +0000";
};
width = 566;
}
);
unicode = 321;
},
{
color = 9;
glyphname = M;
kernLeft = H;
kernRight = H;
layers = (
{
anchors = (
{
name = bottom;
pos = (427,0);
},
{
name = top;
pos = (427,690);
},
{
name = topright;
pos = (693,965);
}
);
layerId = master01;
shapes = (
{
closed = 1;
nodes = (
(238,0,l),
(238,690,l),
(85,690,l),
(85,0,l)
);
},
{
closed = 1;
nodes = (
(374,141,l),
(435,141,l),
(435,335,l),
(304,690,l),
(157,690,l)
);
},
{
closed = 1;
nodes = (
(480,141,l),
(697,690,l),
(550,690,l),
(419,335,l),
(419,141,l)
);
},
{
closed = 1;
nodes = (
(769,0,l),
(769,690,l),
(616,690,l),
(616,0,l)
);
}
);
userData = {
com.schriftgestaltung.Glyphs.lastChange = "2021-03-11 23:09:59 +0000";
};
width = 854;
},
{
anchors = (
{
name = bottom;
pos = (360,0);
},
{
name = top;
pos = (360,690);
},
{
name = topright;
pos = (583,965);
}
);
layerId = master02;
shapes = (
{
closed = 1;
nodes = (
(205,0,l),
(205,690,l),
(70,690,l),
(70,0,l)
);
},
{
closed = 1;
nodes = (
(307,143,l),
(366,143,l),
(370,322,l),
(243,690,l),
(139,690,l)
);
},
{
closed = 1;
nodes = (
(413,143,l),
(581,690,l),
(477,690,l),
(350,322,l),
(354,143,l)
);
},
{
closed = 1;
nodes = (
(650,0,l),
(650,690,l),
(515,690,l),
(515,0,l)
);
}
);
userData = {
com.schriftgestaltung.Glyphs.lastChange = "2021-03-11 21:08:38 +0000";
};
width = 719;
},
{
anchors = (
{
name = bottom;
pos = (302,0);
},
{
name = top;
pos = (302,690);
},
{
name = topright;
pos = (496,980);
}
);
layerId = master03;
shapes = (
{
closed = 1;
nodes = (
(139,0,l),
(139,690,l),
(77,690,l),
(77,0,l)
);
},
{
closed = 1;
nodes = (
(268,175,l),
(315,175,l),
(303,254,l),
(180,690,l),
(118,690,l)
);
},
{
closed = 1;
nodes = (
(335,175,l),
(484,690,l),
(425,690,l),
(301,254,l),
(290,175,l)
);
},
{
closed = 1;
nodes = (
(527,0,l),
(527,690,l),
(465,690,l),
(465,0,l)
);
}
);
userData = {
com.schriftgestaltung.Glyphs.lastChange = "2021-03-31 01:16:59 +0000";
};
width = 604;
},
{
anchors = (
{
name = bottom;
pos = (337,0);
},
{
name = top;
pos = (337,690);
},
{
name = topright;
pos = (552,975);
}
);
guides = (
{
pos = (235,536);
}
);
layerId = master04;
shapes = (
{
closed = 1;
nodes = (
(165,0,l),
(165,690,l),
(77,690,l),
(77,0,l)
);
},
{
closed = 1;
nodes = (
(301,156,l),
(348,156,l),
(348,255,l),
(191,690,l),
(111,690,l)
);
},
{
closed = 1;
nodes = (
(372,156,l),
(561,690,l),
(482,690,l),
(325,255,l),
(325,156,l)
);
},
{
closed = 1;
nodes = (
(596,0,l),
(596,690,l),
(508,690,l),
(508,0,l)
);
}
);
userData = {
com.schriftgestaltung.Glyphs.lastChange = "2021-03-11 05:54:55 +0000";
com.typemytype.robofont.guideline.magnetic.QutHHUhOQl = 5;
};
width = 673;
},
{
anchors = (
{
name = bottom;
pos = (415,0);
},
{
name = top;
pos = (415,690);
},
{
name = topright;
pos = (689,980);
}
);
layerId = master05;
shapes = (
{
closed = 1;
nodes = (
(172,0,l),
(172,690,l),
(110,690,l),
(110,0,l)
);
},
{
closed = 1;
nodes = (
(390,175,l),
(417,175,l),
(417,254,l),
(213,690,l),
(144,690,l)
);
},
{
closed = 1;
nodes = (
(440,175,l),
(686,690,l),
(617,690,l),
(413,254,l),
(413,175,l)
);
},
{
closed = 1;
nodes = (
(720,0,l),
(720,690,l),
(658,690,l),
(658,0,l)
);
}
);
userData = {
com.schriftgestaltung.Glyphs.lastChange = "2021-03-11 21:44:02 +0000";
};
width = 830;
},
{
anchors = (
{
name = bottom;
pos = (418,0);
},
{
name = top;
pos = (418,690);
},
{
name = topright;
pos = (688,975);
}
);
layerId = master06;
shapes = (
{
closed = 1;
nodes = (
(196,0,l),
(196,690,l),
(100,690,l),
(100,0,l)
);
},
{
closed = 1;
nodes = (
(388,155,l),
(430,155,l),
(436,250,l),
(241,690,l),
(143,690,l)
);
},
{
closed = 1;
nodes = (
(448,155,l),
(693,690,l),
(595,690,l),
(400,250,l),
(406,155,l)
);
},
{
closed = 1;
nodes = (
(736,0,l),
(736,690,l),
(640,690,l),
(640,0,l)
);
}
);
userData = {
com.schriftgestaltung.Glyphs.lastChange = "2021-03-11 21:48:54 +0000";
};
width = 836;
}
);
unicode = 77;
},
{
color = 9;
glyphname = N;
kernLeft = H;
kernRight = H;
layers = (
{
anchors = (
{
name = bottom;
pos = (380,0);
},
{
name = top;
pos = (397,690);
},
{
name = topright;
pos = (602,965);
}
);
layerId = master01;
shapes = (
{
closed = 1;
nodes = (
(229,0,l),
(229,690,l),
(85,690,l),
(85,0,l)
);
},
{
closed = 1;
nodes = (
(480,0,l),
(629,0,l),
(290,690,l),
(141,690,l)
);
},
{
closed = 1;
nodes = (
(674,0,l),
(674,690,l),
(530,690,l),
(530,0,l)
);
}
);
userData = {
com.schriftgestaltung.Glyphs.lastChange = "2021-03-11 23:09:59 +0000";
};
width = 759;
},
{
anchors = (
{
name = bottom;
pos = (320,0);
},
{
name = top;
pos = (334,690);
},
{
name = topright;
pos = (506,965);
}
);
layerId = master02;
shapes = (
{
closed = 1;
nodes = (
(196,0,l),
(196,690,l),
(70,690,l),
(70,0,l)
);
},
{
closed = 1;
nodes = (
(411,0,l),
(542,0,l),
(239,690,l),
(108,690,l)
);
},
{
closed = 1;
nodes = (
(569,0,l),
(569,690,l),
(443,690,l),
(443,0,l)
);
}
);
userData = {
com.schriftgestaltung.Glyphs.lastChange = "2021-03-11 21:08:38 +0000";
};
width = 639;
},
{
anchors = (
{
name = bottom;
pos = (265,0);
},
{
name = top;
pos = (279,690);
},
{
name = topright;
pos = (422,980);
}
);
background = {
shapes = (
{
closed = 1;
nodes = (
(139,0,l),
(139,690,l),
(77,690,l),
(77,0,l)
);
},
{
closed = 1;
nodes = (
(371,0,l),
(419,14,l),
(162,690,l),
(100,690,l)
);
},
{
closed = 1;
nodes = (
(249,-187,o),
(277,-193,o),
(299,-193,c),
(380,-193,o),
(433,-136,o),
(433,-48,cs),
(433,690,l),
(371,690,l),
(371,-47,ls),
(371,-112,o),
(343,-138,o),
(297,-138,c),
(278,-138,o),
(260,-134,o),
(242,-126,c),
(229,-177,l)
);
}
);
};
layerId = master03;
shapes = (
{
closed = 1;
nodes = (
(139,0,l),
(139,690,l),
(77,690,l),
(77,0,l)
);
},
{
closed = 1;
nodes = (
(369,0,l),
(430,0,l),
(161,690,l),
(100,690,l)
);
},
{
closed = 1;
nodes = (
(453,0,l),
(453,690,l),
(391,690,l),
(391,0,l)
);
}
);
userData = {
com.schriftgestaltung.Glyphs.lastChange = "2021-03-31 15:59:08 +0000";
};
width = 530;
},
{
anchors = (
{
name = bottom;
pos = (300,0);
},
{
name = top;
pos = (313,690);
},
{
name = topright;
pos = (480,975);
}
);
layerId = master04;
shapes = (
{
closed = 1;
nodes = (
(163,0,l),
(163,690,l),
(77,690,l),
(77,0,l)
);
},
{
closed = 1;
nodes = (
(413,0,l),
(500,0,l),
(189,690,l),
(102,690,l)
);
},
{
closed = 1;
nodes = (
(523,0,l),
(523,690,l),
(437,690,l),
(437,0,l)
);
}
);
userData = {
com.schriftgestaltung.Glyphs.lastChange = "2021-03-11 05:54:55 +0000";
};
width = 600;
},
{
anchors = (
{
name = bottom;
pos = (363,0);
},
{
name = top;
pos = (377,690);
},
{
name = topright;
pos = (585,980);
}
);
layerId = master05;
shapes = (
{
closed = 1;
nodes = (
(172,0,l),
(172,690,l),
(110,690,l),
(110,0,l)
);
},
{
closed = 1;
nodes = (
(531,0,l),
(598,0,l),
(195,690,l),
(128,690,l)
);
},
{
closed = 1;
nodes = (
(616,0,l),
(616,690,l),
(554,690,l),
(554,0,l)
);
}
);
userData = {
com.schriftgestaltung.Glyphs.lastChange = "2021-03-11 21:44:02 +0000";
};
width = 726;
},
{
anchors = (
{
name = bottom;
pos = (373,0);
},
{
name = top;
pos = (389,690);
},
{
name = topright;
pos = (598,975);
}
);
layerId = master06;
shapes = (
{
closed = 1;
nodes = (
(196,0,l),
(196,690,l),
(100,690,l),
(100,0,l)
);
},
{
closed = 1;
nodes = (
(500,0,l),
(602,0,l),
(246,690,l),
(144,690,l)
);
},
{
closed = 1;
nodes = (
(646,0,l),
(646,690,l),
(550,690,l),
(550,0,l)
);
}
);
userData = {
com.schriftgestaltung.Glyphs.lastChange = "2021-03-11 21:48:54 +0000";
};
width = 746;
}
);
unicode = 78;
},
{
color = 3;
glyphname = Nhookleft;
kernLeft = j;
kernRight = H;
layers = (
{
layerId = master01;
shapes = (
{
closed = 1;
nodes = (
(-24,-190,o),
(15,-197,o),
(46,-197,cs),
(161,-197,o),
(229,-129,o),
(229,8,cs),
(229,690,l),
(85,690,l),
(85,16,ls),
(85,-46,o),
(59,-66,o),
(16,-66,cs),
(0,-66,o),
(-14,-63,o),
(-35,-57,c),
(-51,-181,l)
);
},
{
closed = 1;
nodes = (
(480,0,l),
(629,0,l),
(290,690,l),
(141,690,l)
);
},
{
closed = 1;
nodes = (
(674,0,l),
(674,690,l),
(530,690,l),
(530,0,l)
);
}
);
userData = {
com.schriftgestaltung.Glyphs.lastChange = "2021-03-11 23:09:59 +0000";
};
width = 759;
},
{
background = {
shapes = (
{
closed = 1;
nodes = (
(196,0,l),
(196,690,l),
(70,690,l),
(70,0,l)
);
},
{
closed = 1;
nodes = (
(411,0,l),
(542,0,l),
(239,690,l),
(108,690,l)
);
},
{
closed = 1;
nodes = (
(569,0,l),
(569,690,l),
(443,690,l),
(443,0,l)
);
}
);
};
layerId = master02;
shapes = (
{
closed = 1;
nodes = (
(-21,-190,o),
(14,-197,o),
(40,-197,cs),
(139,-197,o),
(196,-130,o),
(196,2,cs),
(196,690,l),
(70,690,l),
(70,9,ls),
(70,-52,o),
(48,-73,o),
(12,-73,cs),
(-1,-73,o),
(-12,-70,o),
(-31,-64,c),
(-44,-181,l)
);
},
{
closed = 1;
nodes = (
(401,0,l),
(532,0,l),
(249,690,l),
(118,690,l)
);
},
{
closed = 1;
nodes = (
(569,0,l),
(569,690,l),
(443,690,l),
(443,0,l)
);
}
);
userData = {
com.schriftgestaltung.Glyphs.lastChange = "2021-02-19 06:20:23 +0000";
};
width = 639;
},
{
background = {
shapes = (
{
closed = 1;
nodes = (
(139,0,l),
(139,690,l),
(77,690,l),
(77,0,l)
);
},
{
closed = 1;
nodes = (
(369,0,l),
(430,0,l),
(161,690,l),
(100,690,l)
);
},
{
closed = 1;
nodes = (
(453,0,l),
(453,690,l),
(391,690,l),
(391,0,l)
);
}
);
};
layerId = master03;
shapes = (
{
closed = 1;
nodes = (
(-45,-187,o),
(-17,-193,o),
(5,-193,cs),
(86,-193,o),
(139,-136,o),
(139,-48,cs),
(139,690,l),
(77,690,l),
(77,-47,ls),
(77,-112,o),
(49,-138,o),
(3,-138,cs),
(-16,-138,o),
(-34,-134,o),
(-52,-126,c),
(-65,-177,l)
);
},
{
closed = 1;
nodes = (
(369,0,l),
(430,0,l),
(161,690,l),
(100,690,l)
);
},
{
closed = 1;
nodes = (
(453,0,l),
(453,690,l),
(391,690,l),
(391,0,l)
);
}
);
userData = {
com.schriftgestaltung.Glyphs.lastChange = "2021-03-17 01:02:22 +0000";
};
width = 530;
},
{
layerId = master04;
shapes = (
{
closed = 1;
nodes = (
(-17,-189,o),
(7,-195,o),
(30,-195,cs),
(108,-195,o),
(164,-134,o),
(164,-36,cs),
(164,690,l),
(77,690,l),
(77,-33,ls),
(77,-90,o),
(56,-117,o),
(20,-117,cs),
(5,-117,o),
(-8,-113,o),
(-22,-108,c),
(-35,-181,l)
);
},
{
closed = 1;
nodes = (
(396,0,l),
(487,0,l),
(206,690,l),
(115,690,l)
);
},
{
closed = 1;
nodes = (
(523,0,l),
(523,690,l),
(436,690,l),
(436,0,l)
);
}
);
userData = {
com.schriftgestaltung.Glyphs.lastChange = "2021-03-11 21:00:37 +0000";
};
width = 600;
},
{
layerId = master05;
shapes = (
{
closed = 1;
nodes = (
(-12,-187,o),
(16,-193,o),
(38,-193,cs),
(119,-193,o),
(172,-136,o),
(172,-48,cs),
(172,690,l),
(110,690,l),
(110,-47,ls),
(110,-112,o),
(82,-138,o),
(36,-138,cs),
(17,-138,o),
(-1,-134,o),
(-19,-126,c),
(-32,-177,l)
);
},
{
closed = 1;
nodes = (
(531,0,l),
(598,0,l),
(195,690,l),
(128,690,l)
);
},
{
closed = 1;
nodes = (
(616,0,l),
(616,690,l),
(554,690,l),
(554,0,l)
);
}
);
userData = {
com.schriftgestaltung.Glyphs.lastChange = "2021-03-11 21:44:02 +0000";
};
width = 726;
},
{
layerId = master06;
shapes = (
{
closed = 1;
nodes = (
(-20,-189,o),
(7,-195,o),
(34,-195,cs),
(126,-195,o),
(196,-134,o),
(196,-34,cs),
(196,690,l),
(100,690,l),
(100,-30,ls),
(100,-88,o),
(74,-114,o),
(28,-114,cs),
(8,-114,o),
(-9,-110,o),
(-25,-105,c),
(-41,-181,l)
);
},
{
closed = 1;
nodes = (
(500,0,l),
(602,0,l),
(246,690,l),
(144,690,l)
);
},
{
closed = 1;
nodes = (
(646,0,l),
(646,690,l),
(550,690,l),
(550,0,l)
);
}
);
userData = {
com.schriftgestaltung.Glyphs.lastChange = "2021-03-11 21:49:09 +0000";
};
width = 746;
}
);
unicode = 413;
},
{
color = 9;
glyphname = Eng;
kernLeft = H;
kernRight = H;
layers = (
{
anchors = (
{
name = topright;
pos = (602,965);
}
);
layerId = master01;
shapes = (
{
closed = 1;
nodes = (
(229,0,l),
(229,690,l),
(85,690,l),
(85,0,l)
);
},
{
closed = 1;
nodes = (
(530,0,l),
(660,40,l),
(290,690,l),
(137,690,l)
);
},
{
closed = 1;
nodes = (
(421,-190,o),
(460,-197,o),
(491,-197,cs),
(606,-197,o),
(674,-129,o),
(674,8,cs),
(674,690,l),
(530,690,l),
(530,16,ls),
(530,-46,o),
(504,-66,o),
(461,-66,cs),
(445,-66,o),
(431,-63,o),
(410,-57,c),
(394,-181,l)
);
}
);
userData = {
com.schriftgestaltung.Glyphs.lastChange = "2021-03-11 23:09:59 +0000";
};
width = 759;
},
{
anchors = (
{
name = topright;
pos = (506,965);
}
);
background = {
shapes = (
{
closed = 1;
nodes = (
(196,0,l),
(196,690,l),
(70,690,l),
(70,0,l)
);
},
{
closed = 1;
nodes = (
(411,0,l),
(542,0,l),
(239,690,l),
(108,690,l)
);
},
{
closed = 1;
nodes = (
(569,0,l),
(569,690,l),
(443,690,l),
(443,0,l)
);
}
);
};
layerId = master02;
shapes = (
{
closed = 1;
nodes = (
(196,0,l),
(196,690,l),
(70,690,l),
(70,0,l)
);
},
{
closed = 1;
nodes = (
(443,0,l),
(556,37,l),
(249,690,l),
(114,690,l)
);
},
{
closed = 1;
nodes = (
(353,-190,o),
(387,-197,o),
(413,-197,cs),
(513,-197,o),
(569,-130,o),
(569,2,cs),
(569,690,l),
(443,690,l),
(443,9,ls),
(443,-52,o),
(421,-73,o),
(385,-73,cs),
(372,-73,o),
(361,-70,o),
(343,-64,c),
(329,-181,l)
);
}
);
userData = {
com.schriftgestaltung.Glyphs.lastChange = "2021-03-11 21:09:29 +0000";
};
width = 639;
},
{
anchors = (
{
name = topright;
pos = (422,980);
}
);
background = {
shapes = (
{
closed = 1;
nodes = (
(139,0,l),
(139,690,l),
(77,690,l),
(77,0,l)
);
},
{
closed = 1;
nodes = (
(369,0,l),
(430,0,l),
(161,690,l),
(100,690,l)
);
},
{
closed = 1;
nodes = (
(453,0,l),
(453,690,l),
(391,690,l),
(391,0,l)
);
}
);
};
layerId = master03;
shapes = (
{
closed = 1;
nodes = (
(139,0,l),
(139,690,l),
(77,690,l),
(77,0,l)
);
},
{
closed = 1;
nodes = (
(391,-5,l),
(450,0,l),
(161,690,l),
(100,690,l)
);
},
{
closed = 1;
nodes = (
(269,-187,o),
(297,-193,o),
(319,-193,c),
(400,-193,o),
(453,-136,o),
(453,-48,cs),
(453,690,l),
(391,690,l),
(391,-47,ls),
(391,-112,o),
(363,-138,o),
(317,-138,c),
(298,-138,o),
(280,-134,o),
(262,-126,c),
(249,-177,l)
);
}
);
userData = {
com.schriftgestaltung.Glyphs.lastChange = "2021-03-17 01:04:51 +0000";
};
width = 530;
},
{
anchors = (
{
name = topright;
pos = (480,975);
}
);
layerId = master04;
shapes = (
{
closed = 1;
nodes = (
(164,0,l),
(164,690,l),
(77,690,l),
(77,0,l)
);
},
{
closed = 1;
nodes = (
(436,0,l),
(518,19,l),
(206,690,l),
(113,690,l)
);
},
{
closed = 1;
nodes = (
(342,-189,o),
(366,-195,o),
(389,-195,cs),
(467,-195,o),
(523,-134,o),
(523,-36,cs),
(523,690,l),
(436,690,l),
(436,-33,ls),
(436,-90,o),
(415,-117,o),
(379,-117,cs),
(364,-117,o),
(351,-113,o),
(337,-108,c),
(324,-181,l)
);
}
);
userData = {
com.schriftgestaltung.Glyphs.lastChange = "2021-03-11 21:00:37 +0000";
};
width = 600;
},
{
anchors = (
{
name = topright;
pos = (585,980);
}
);
layerId = master05;
shapes = (
{
closed = 1;
nodes = (
(172,0,l),
(172,690,l),
(110,690,l),
(110,0,l)
);
},
{
closed = 1;
nodes = (
(554,0,l),
(612,14,l),
(195,690,l),
(128,690,l)
);
},
{
closed = 1;
nodes = (
(432,-187,o),
(460,-193,o),
(482,-193,c),
(563,-193,o),
(616,-136,o),
(616,-48,cs),
(616,690,l),
(554,690,l),
(554,-47,ls),
(554,-112,o),
(526,-138,o),
(480,-138,c),
(461,-138,o),
(443,-134,o),
(425,-126,c),
(412,-177,l)
);
}
);
userData = {
com.schriftgestaltung.Glyphs.lastChange = "2021-03-11 21:44:02 +0000";
};
width = 726;
},
{
anchors = (
{
name = topright;
pos = (598,975);
}
);
layerId = master06;
shapes = (
{
closed = 1;
nodes = (
(196,0,l),
(196,690,l),
(100,690,l),
(100,0,l)
);
},
{
closed = 1;
nodes = (
(550,0,l),
(642,20,l),
(246,690,l),
(142,690,l)
);
},
{
closed = 1;
nodes = (
(430,-189,o),
(457,-195,o),
(484,-195,cs),
(576,-195,o),
(646,-134,o),
(646,-34,cs),
(646,690,l),
(550,690,l),
(550,-30,ls),
(550,-88,o),
(524,-114,o),
(478,-114,cs),
(458,-114,o),
(441,-110,o),
(425,-105,c),
(409,-181,l)
);
}
);
userData = {
com.schriftgestaltung.Glyphs.lastChange = "2021-03-11 21:49:09 +0000";
};
width = 746;
}
);
unicode = 330;
},
{
color = 9;
glyphname = O;
kernLeft = O;
kernRight = O;
layers = (
{
anchors = (
{
name = bottom;
pos = (372,0);
},
{
name = horn;
pos = (443,690);
},
{
name = ogonek;
pos = (430,0);
},
{
name = top;
pos = (372,690);
}
);
layerId = master01;
shapes = (
{
closed = 1;
nodes = (
(45,122,o),
(192,-12,o),
(372,-12,cs),
(552,-12,o),
(699,122,o),
(699,345,cs),
(699,568,o),
(552,702,o),
(372,702,cs),
(192,702,o),
(45,568,o),
(45,345,cs)
);
},
{
closed = 1;
nodes = (
(208,489,o),
(278,559,o),
(372,559,cs),
(466,559,o),
(536,489,o),
(536,345,cs),
(536,201,o),
(466,131,o),
(372,131,cs),
(278,131,o),
(208,201,o),
(208,345,cs)
);
}
);
userData = {
com.schriftgestaltung.Glyphs.lastChange = "2021-03-17 22:39:17 +0000";
};
width = 744;
},
{
anchors = (
{
name = bottom;
pos = (314,0);
},
{
name = horn;
pos = (384,690);
},
{
name = ogonek;
pos = (376,0);
},
{
name = top;
pos = (314,690);
}
);
layerId = master02;
shapes = (
{
closed = 1;
nodes = (
(36,111,o),
(151,-12,o),
(314,-12,c),
(476,-12,o),
(591,111,o),
(591,345,cs),
(591,579,o),
(476,702,o),
(314,702,cs),
(151,702,o),
(36,579,o),
(36,345,cs)
);
},
{
closed = 1;
nodes = (
(181,504,o),
(231,567,o),
(314,567,cs),
(396,567,o),
(446,504,o),
(446,345,cs),
(446,186,o),
(396,123,o),
(314,123,c),
(231,123,o),
(181,186,o),
(181,345,cs)
);
}
);
userData = {
com.schriftgestaltung.Glyphs.lastChange = "2021-03-17 22:31:53 +0000";
};
width = 627;
},
{
anchors = (
{
name = bottom;
pos = (263,0);
},
{
name = horn;
pos = (307,690);
},
{
name = ogonek;
pos = (305,0);
},
{
name = top;
pos = (263,690);
}
);
layerId = master03;
shapes = (
{
closed = 1;
nodes = (
(45,152,o),
(105,-8,o),
(263,-8,cs),
(421,-8,o),
(481,152,o),
(481,345,cs),
(481,538,o),
(421,698,o),
(263,698,cs),
(105,698,o),
(45,538,o),
(45,345,cs)
);
},
{
closed = 1;
nodes = (
(109,502,o),
(138,641,o),
(263,641,cs),
(388,641,o),
(417,502,o),
(417,345,cs),
(417,188,o),
(388,49,o),
(263,49,cs),
(138,49,o),
(109,188,o),
(109,345,cs)
);
}
);
userData = {
com.schriftgestaltung.Glyphs.lastChange = "2021-03-31 01:24:09 +0000";
};
width = 526;
},
{
anchors = (
{
name = bottom;
pos = (292,0);
},
{
name = horn;
pos = (334,690);
},
{
name = ogonek;
pos = (318,0);
},
{
name = top;
pos = (292,690);
}
);
layerId = master04;
shapes = (
{
closed = 1;
nodes = (
(45,101,o),
(157,-10,o),
(293,-10,cs),
(428,-10,o),
(540,101,o),
(540,345,cs),
(540,589,o),
(428,700,o),
(293,700,cs),
(157,700,o),
(45,589,o),
(45,345,cs)
);
},
{
closed = 1;
nodes = (
(138,534,o),
(204,614,o),
(293,614,cs),
(381,614,o),
(447,534,o),
(447,345,cs),
(447,156,o),
(381,76,o),
(293,76,cs),
(204,76,o),
(138,156,o),
(138,345,cs)
);
}
);
userData = {
com.schriftgestaltung.Glyphs.lastChange = "2021-03-17 02:39:00 +0000";
};
width = 585;
},
{
anchors = (
{
name = bottom;
pos = (358,0);
},
{
name = horn;
pos = (420,690);
},
{
name = ogonek;
pos = (400,0);
},
{
name = top;
pos = (358,690);
}
);
layerId = master05;
shapes = (
{
closed = 1;
nodes = (
(70,112,o),
(200,-8,o),
(358,-8,cs),
(516,-8,o),
(646,112,o),
(646,345,cs),
(646,578,o),
(516,698,o),
(358,698,cs),
(200,698,o),
(70,578,o),
(70,345,cs)
);
},
{
closed = 1;
nodes = (
(134,542,o),
(233,641,o),
(358,641,cs),
(483,641,o),
(582,542,o),
(582,345,cs),
(582,148,o),
(483,49,o),
(358,49,cs),
(233,49,o),
(134,148,o),
(134,345,cs)
);
}
);
userData = {
com.schriftgestaltung.Glyphs.lastChange = "2021-03-17 04:00:09 +0000";
};
width = 716;
},
{
anchors = (
{
name = bottom;
pos = (363,0);
},
{
name = horn;
pos = (443,690);
},
{
name = ogonek;
pos = (400,0);
},
{
name = top;
pos = (363,690);
}
);
layerId = master06;
shapes = (
{
closed = 1;
nodes = (
(60,112,o),
(197,-10,o),
(363,-10,cs),
(529,-10,o),
(666,112,o),
(666,345,cs),
(666,578,o),
(529,700,o),
(363,700,cs),
(197,700,o),
(60,578,o),
(60,345,cs)
);
},
{
closed = 1;
nodes = (
(159,522,o),
(246,611,o),
(363,611,cs),
(480,611,o),
(567,522,o),
(567,345,cs),
(567,168,o),
(480,79,o),
(363,79,cs),
(246,79,o),
(159,168,o),
(159,345,cs)
);
}
);
userData = {
com.schriftgestaltung.Glyphs.lastChange = "2021-03-17 03:15:01 +0000";
};
width = 726;
}
);
unicode = 79;
},
{
color = 9;
glyphname = Ocenteredtilde;
layers = (
{
layerId = master03;
shapes = (
{
closed = 1;
nodes = (
(45,152,o),
(105,-8,o),
(263,-8,cs),
(421,-8,o),
(481,152,o),
(481,345,cs),
(481,538,o),
(421,698,o),
(263,698,cs),
(105,698,o),
(45,538,o),
(45,345,cs)
);
},
{
closed = 1;
nodes = (
(109,502,o),
(138,641,o),
(263,641,cs),
(388,641,o),
(417,502,o),
(417,345,cs),
(417,188,o),
(388,49,o),
(263,49,cs),
(138,49,o),
(109,188,o),
(109,345,cs)
);
},
{
closed = 1;
nodes = (
(431,321,l),
(431,375,l),
(95,375,l),
(95,321,l)
);
}
);
width = 526;
},
{
layerId = master04;
shapes = (
{
closed = 1;
nodes = (
(45,101,o),
(157,-10,o),
(293,-10,cs),
(428,-10,o),
(540,101,o),
(540,345,cs),
(540,589,o),
(428,700,o),
(293,700,cs),
(157,700,o),
(45,589,o),
(45,345,cs)
);
},
{
closed = 1;
nodes = (
(138,534,o),
(204,614,o),
(293,614,cs),
(381,614,o),
(447,534,o),
(447,345,cs),
(447,156,o),
(381,76,o),
(293,76,cs),
(204,76,o),
(138,156,o),
(138,345,cs)
);
},
{
closed = 1;
nodes = (
(465,310,l),
(465,391,l),
(120,391,l),
(120,310,l)
);
}
);
width = 585;
},
{
layerId = master02;
shapes = (
{
closed = 1;
nodes = (
(36,111,o),
(151,-12,o),
(314,-12,c),
(476,-12,o),
(591,111,o),
(591,345,cs),
(591,579,o),
(476,702,o),
(314,702,cs),
(151,702,o),
(36,579,o),
(36,345,cs)
);
},
{
closed = 1;
nodes = (
(181,504,o),
(231,567,o),
(314,567,cs),
(396,567,o),
(446,504,o),
(446,345,cs),
(446,186,o),
(396,123,o),
(314,123,c),
(231,123,o),
(181,186,o),
(181,345,cs)
);
},
{
closed = 1;
nodes = (
(469,284,l),
(469,412,l),
(158,412,l),
(158,284,l)
);
}
);
width = 627;
},
{
layerId = master05;
shapes = (
{
closed = 1;
nodes = (
(70,112,o),
(200,-8,o),
(358,-8,cs),
(516,-8,o),
(646,112,o),
(646,345,cs),
(646,578,o),
(516,698,o),
(358,698,cs),
(200,698,o),
(70,578,o),
(70,345,cs)
);
},
{
closed = 1;
nodes = (
(134,542,o),
(233,641,o),
(358,641,cs),
(483,641,o),
(582,542,o),
(582,345,cs),
(582,148,o),
(483,49,o),
(358,49,cs),
(233,49,o),
(134,148,o),
(134,345,cs)
);
},
{
closed = 1;
nodes = (
(599,322,l),
(599,374,l),
(117,374,l),
(117,322,l)
);
}
);
width = 716;
},
{
layerId = master06;
shapes = (
{
closed = 1;
nodes = (
(60,112,o),
(197,-10,o),
(363,-10,cs),
(529,-10,o),
(666,112,o),
(666,345,cs),
(666,578,o),
(529,700,o),
(363,700,cs),
(197,700,o),
(60,578,o),
(60,345,cs)
);
},
{
closed = 1;
nodes = (
(159,522,o),
(246,611,o),
(363,611,cs),
(480,611,o),
(567,522,o),
(567,345,cs),
(567,168,o),
(480,79,o),
(363,79,cs),
(246,79,o),
(159,168,o),
(159,345,cs)
);
},
{
closed = 1;
nodes = (
(585,308,l),
(585,392,l),
(141,392,l),
(141,308,l)
);
}
);
width = 726;
},
{
layerId = master01;
shapes = (
{
closed = 1;
nodes = (
(45,122,o),
(192,-12,o),
(372,-12,cs),
(552,-12,o),
(699,122,o),
(699,345,cs),
(699,568,o),
(552,702,o),
(372,702,cs),
(192,702,o),
(45,568,o),
(45,345,cs)
);
},
{
closed = 1;
nodes = (
(208,489,o),
(278,559,o),
(372,559,cs),
(466,559,o),
(536,489,o),
(536,345,cs),
(536,201,o),
(466,131,o),
(372,131,cs),
(278,131,o),
(208,201,o),
(208,345,cs)
);
},
{
closed = 1;
nodes = (
(562,279,l),
(562,417,l),
(182,417,l),
(182,279,l)
);
}
);
width = 744;
}
);
unicode = 415;
},
{
color = 9;
glyphname = Oopen;
kernRight = O;
layers = (
{
anchors = (
{
name = bottom;
pos = (242,0);
},
{
name = top;
pos = (242,690);
}
);
background = {
shapes = (
{
closed = 1;
nodes = (
(438,578,o),
(355,698,o),
(205,698,cs),
(150,698,o),
(96,675,o),
(59,629,c),
(99,589,l),
(135,627,o),
(168,641,o),
(203,641,cs),
(328,641,o),
(374,542,o),
(374,345,c),
(374,148,o),
(316,49,o),
(200,49,c),
(156,49,o),
(108,76,o),
(76,121,c),
(36,87,l),
(72,27,o),
(141,-8,o),
(200,-8,c),
(358,-8,o),
(438,112,o),
(438,345,c)
);
}
);
};
layerId = master03;
shapes = (
{
closed = 1;
nodes = (
(438,578,o),
(361,698,o),
(216,698,cs),
(157,698,o),
(101,673,o),
(59,629,c),
(99,589,l),
(130,622,o),
(168,641,o),
(213,641,cs),
(328,641,o),
(374,542,o),
(374,345,cs),
(374,148,o),
(316,49,o),
(200,49,cs),
(153,49,o),
(111,76,o),
(82,121,c),
(36,82,l),
(68,27,o),
(137,-8,o),
(197,-8,cs),
(354,-8,o),
(438,112,o),
(438,345,cs)
);
}
);
width = 483;
},
{
anchors = (
{
name = bottom;
pos = (259,0);
},
{
name = top;
pos = (259,690);
}
);
background = {
shapes = (
{
closed = 1;
nodes = (
(473,583,o),
(355,700,o),
(213,700,cs),
(145,700,o),
(83,671,o),
(43,622,c),
(102,560,l),
(131,594,o),
(170,612,o),
(212,612,cs),
(308,612,o),
(380,529,o),
(380,345,cs),
(380,160,o),
(302,78,o),
(211,78,cs),
(164,78,o),
(124,97,o),
(91,135,c),
(37,75,l),
(88,20,o),
(146,-10,o),
(218,-10,cs),
(357,-10,o),
(473,106,o),
(473,345,cs)
);
}
);
};
layerId = master04;
shapes = (
{
closed = 1;
nodes = (
(473,583,o),
(360,700,o),
(222,700,cs),
(152,700,o),
(90,671,o),
(46,622,c),
(102,560,l),
(130,593,o),
(170,612,o),
(215,612,cs),
(308,612,o),
(380,529,o),
(380,345,cs),
(380,160,o),
(302,78,o),
(214,78,cs),
(165,78,o),
(128,97,o),
(94,137,c),
(36,69,l),
(82,18,o),
(146,-10,o),
(215,-10,cs),
(353,-10,o),
(473,106,o),
(473,345,cs)
);
}
);
width = 518;
},
{
anchors = (
{
name = bottom;
pos = (275,0);
},
{
name = top;
pos = (275,690);
}
);
background = {
shapes = (
{
closed = 1;
nodes = (
(514,560,o),
(399,702,o),
(225,702,cs),
(150,702,o),
(93,676,o),
(32,628,c),
(107,512,l),
(143,542,o),
(182,562,o),
(228,562,cs),
(305,562,o),
(369,483,o),
(369,340,cs),
(369,207,o),
(304,130,o),
(225,130,cs),
(180,130,o),
(139,152,o),
(104,186,c),
(28,76,l),
(86,22,o),
(151,-12,o),
(241,-12,cs),
(389,-12,o),
(514,104,o),
(514,347,cs)
);
}
);
};
layerId = master02;
shapes = (
{
closed = 1;
nodes = (
(514,560,o),
(407,702,o),
(233,702,cs),
(155,702,o),
(93,676,o),
(32,628,c),
(107,512,l),
(143,543,o),
(182,562,o),
(228,562,cs),
(305,562,o),
(369,493,o),
(369,340,cs),
(369,207,o),
(306,130,o),
(229,130,cs),
(180,130,o),
(139,152,o),
(104,186,c),
(28,68,l),
(83,16,o),
(148,-12,o),
(233,-12,cs),
(389,-12,o),
(514,107,o),
(514,347,cs)
);
}
);
width = 550;
},
{
anchors = (
{
name = bottom;
pos = (314,0);
},
{
name = top;
pos = (314,690);
}
);
layerId = master05;
shapes = (
{
closed = 1;
nodes = (
(557,578,o),
(426,698,o),
(280,698,cs),
(189,698,o),
(119,668,o),
(67,604,c),
(109,565,l),
(149,616,o),
(203,641,o),
(277,641,cs),
(391,641,o),
(493,542,o),
(493,345,cs),
(493,148,o),
(393,49,o),
(268,49,cs),
(202,49,o),
(142,77,o),
(102,128,c),
(55,87,l),
(108,22,o),
(187,-8,o),
(266,-8,cs),
(426,-8,o),
(557,112,o),
(557,345,cs)
);
}
);
width = 627;
},
{
anchors = (
{
name = bottom;
pos = (323,0);
},
{
name = top;
pos = (323,690);
}
);
background = {
shapes = (
{
closed = 1;
nodes = (
(585,573,o),
(443,700,o),
(272,700,cs),
(192,700,o),
(119,666,o),
(59,608,c),
(127,543,l),
(168,586,o),
(217,609,o),
(272,609,cs),
(395,609,o),
(486,517,o),
(486,345,cs),
(486,172,o),
(395,81,o),
(272,81,cs),
(210,81,o),
(157,103,o),
(116,149,c),
(51,84,l),
(111,23,o),
(185,-10,o),
(272,-10,cs),
(443,-10,o),
(585,116,o),
(585,345,cs)
);
}
);
};
layerId = master06;
shapes = (
{
closed = 1;
nodes = (
(585,573,o),
(448,700,o),
(282,700,cs),
(194,700,o),
(117,669,o),
(60,608,c),
(127,543,l),
(168,586,o),
(216,609,o),
(277,609,cs),
(395,609,o),
(486,517,o),
(486,345,cs),
(486,172,o),
(395,81,o),
(272,81,cs),
(209,81,o),
(156,103,o),
(114,150,c),
(50,79,l),
(110,20,o),
(183,-10,o),
(272,-10,cs),
(443,-10,o),
(585,119,o),
(585,345,cs)
);
}
);
width = 645;
},
{
anchors = (
{
name = bottom;
pos = (327,0);
},
{
name = top;
pos = (327,690);
}
);
layerId = master01;
shapes = (
{
closed = 1;
nodes = (
(608,568,o),
(460,702,o),
(279,702,cs),
(192,702,o),
(116,678,o),
(50,632,c),
(127,504,l),
(166,532,o),
(216,552,o),
(271,552,cs),
(367,552,o),
(445,483,o),
(445,345,cs),
(445,207,o),
(367,138,o),
(270,138,cs),
(213,138,o),
(165,160,o),
(124,193,c),
(35,66,l),
(103,13,o),
(173,-12,o),
(274,-12,cs),
(452,-12,o),
(608,122,o),
(608,345,cs)
);
}
);
width = 653;
}
);
metricLeft = "=|C";
metricRight = O;
unicode = 390;
},
{
color = 3;
glyphname = Oslash;
kernLeft = O;
kernRight = O;
layers = (
{
anchors = (
{
name = top;
pos = (372,690);
}
);
layerId = master01;
shapes = (
{
closed = 1;
nodes = (
(110,-12,l),
(719,620,l),
(634,702,l),
(25,70,l)
);
},
{
ref = O;
}
);
userData = {
com.schriftgestaltung.Glyphs.lastChange = "2021-03-17 03:56:05 +0000";
};
width = 744;
},
{
anchors = (
{
name = top;
pos = (314,690);
}
);
layerId = master02;
shapes = (
{
closed = 1;
nodes = (
(94,-12,l),
(608,624,l),
(533,702,l),
(19,66,l)
);
},
{
ref = O;
}
);
userData = {
com.schriftgestaltung.Glyphs.lastChange = "2021-03-17 03:10:26 +0000";
};
width = 627;
},
{
anchors = (
{
name = top;
pos = (273,690);
}
);
layerId = master03;
shapes = (
{
closed = 1;
nodes = (
(75,-1,l),
(508,668,l),
(468,694,l),
(36,26,l)
);
},
{
ref = O;
}
);
userData = {
com.schriftgestaltung.Glyphs.lastChange = "2021-03-17 03:58:14 +0000";
};
width = 546;
},
{
anchors = (
{
name = top;
pos = (292,690);
}
);
layerId = master04;
shapes = (
{
closed = 1;
nodes = (
(80,-10,l),
(556,651,l),
(505,700,l),
(29,39,l)
);
},
{
ref = O;
}
);
userData = {
com.schriftgestaltung.Glyphs.lastChange = "2021-03-17 02:43:08 +0000";
};
width = 585;
},
{
anchors = (
{
name = top;
pos = (358,690);
}
);
layerId = master05;
shapes = (
{
closed = 1;
nodes = (
(75,-10,l),
(681,661,l),
(641,698,l),
(35,27,l)
);
},
{
ref = O;
}
);
userData = {
com.schriftgestaltung.Glyphs.lastChange = "2021-03-17 04:00:04 +0000";
};
width = 716;
},
{
anchors = (
{
name = top;
pos = (363,690);
}
);
layerId = master06;
shapes = (
{
closed = 1;
nodes = (
(96,-10,l),
(686,649,l),
(630,700,l),
(40,41,l)
);
},
{
ref = O;
}
);
userData = {
com.schriftgestaltung.Glyphs.lastChange = "2021-03-17 03:57:09 +0000";
};
width = 726;
}
);
unicode = 216;
},
{
color = 3;
glyphname = OE;
kernLeft = O;
kernRight = E;
layers = (
{
layerId = master01;
shapes = (
{
closed = 1;
nodes = (
(45,122,o),
(210,0,o),
(412,0,cs),
(502,0,l),
(502,140,l),
(412,140,ls),
(295,140,o),
(208,201,o),
(208,345,cs),
(208,489,o),
(295,550,o),
(412,550,cs),
(502,550,l),
(502,690,l),
(412,690,ls),
(210,690,o),
(45,568,o),
(45,345,cs)
);
},
{
closed = 1;
nodes = (
(640,0,l),
(640,690,l),
(480,690,l),
(480,0,l)
);
},
{
closed = 1;
nodes = (
(940,0,l),
(940,140,l),
(554,140,l),
(554,0,l)
);
},
{
closed = 1;
nodes = (
(888,282,l),
(888,414,l),
(554,414,l),
(554,282,l)
);
},
{
closed = 1;
nodes = (
(935,550,l),
(935,690,l),
(554,690,l),
(554,550,l)
);
}
);
userData = {
com.schriftgestaltung.Glyphs.lastChange = "2021-03-11 23:13:14 +0000";
};
width = 1000;
},
{
layerId = master02;
shapes = (
{
closed = 1;
nodes = (
(36,121,o),
(176,0,o),
(347,0,cs),
(421,0,l),
(421,132,l),
(347,132,ls),
(251,132,o),
(181,196,o),
(181,345,cs),
(181,494,o),
(251,558,o),
(347,558,cs),
(421,558,l),
(421,690,l),
(347,690,ls),
(176,690,o),
(36,569,o),
(36,345,cs)
);
},
{
closed = 1;
nodes = (
(545,0,l),
(545,690,l),
(403,690,l),
(403,0,l)
);
},
{
closed = 1;
nodes = (
(793,0,l),
(793,132,l),
(468,132,l),
(468,0,l)
);
},
{
closed = 1;
nodes = (
(750,286,l),
(750,411,l),
(468,411,l),
(468,286,l)
);
},
{
closed = 1;
nodes = (
(789,558,l),
(789,690,l),
(468,690,l),
(468,558,l)
);
}
);
userData = {
com.schriftgestaltung.Glyphs.lastChange = "2021-03-11 21:09:29 +0000";
};
width = 842;
},
{
layerId = master03;
shapes = (
{
closed = 1;
nodes = (
(45,132,o),
(153,0,o),
(333,0,cs),
(389,0,l),
(389,54,l),
(333,54,ls),
(186,54,o),
(109,168,o),
(109,345,cs),
(109,522,o),
(186,636,o),
(333,636,cs),
(389,636,l),
(389,690,l),
(333,690,ls),
(153,690,o),
(45,558,o),
(45,345,cs)
);
},
{
closed = 1;
nodes = (
(438,0,l),
(438,690,l),
(376,690,l),
(376,0,l)
);
},
{
closed = 1;
nodes = (
(692,0,l),
(692,54,l),
(406,54,l),
(406,0,l)
);
},
{
closed = 1;
nodes = (
(641,322,l),
(641,374,l),
(406,374,l),
(406,322,l)
);
},
{
closed = 1;
nodes = (
(687,636,l),
(687,690,l),
(406,690,l),
(406,636,l)
);
}
);
userData = {
com.schriftgestaltung.Glyphs.lastChange = "2021-03-11 20:56:07 +0000";
};
width = 747;
},
{
layerId = master04;
shapes = (
{
closed = 1;
nodes = (
(45,111,o),
(168.731,0,o),
(331,0,cs),
(406,0,l),
(406,83,l),
(331,83,ls),
(214.6,83,o),
(137,166,o),
(137,345,cs),
(137,524,o),
(214.6,607,o),
(331,607,cs),
(406,607,l),
(406,690,l),
(331,690,ls),
(168.731,690,o),
(45,579,o),
(45,345,cs)
);
},
{
closed = 1;
nodes = (
(474,0,l),
(474,690,l),
(384,690,l),
(384,0,l)
);
},
{
closed = 1;
nodes = (
(735,0,l),
(735,83,l),
(429,83,l),
(429,0,l)
);
},
{
closed = 1;
nodes = (
(692,308,l),
(692,392,l),
(429,392,l),
(429,308,l)
);
},
{
closed = 1;
nodes = (
(731,607,l),
(731,690,l),
(429,690,l),
(429,607,l)
);
}
);
userData = {
com.schriftgestaltung.Glyphs.lastChange = "2021-03-11 21:00:46 +0000";
};
width = 789;
},
{
layerId = master05;
shapes = (
{
closed = 1;
nodes = (
(70,112,o),
(218,0,o),
(398,0,cs),
(483,0,l),
(483,54,l),
(398,54,ls),
(251,54,o),
(134,148,o),
(134,345,cs),
(134,542,o),
(251,636,o),
(398,636,cs),
(483,636,l),
(483,690,l),
(398,690,ls),
(218,690,o),
(70,578,o),
(70,345,cs)
);
},
{
closed = 1;
nodes = (
(532,0,l),
(532,690,l),
(470,690,l),
(470,0,l)
);
},
{
closed = 1;
nodes = (
(866,0,l),
(866,54,l),
(500,54,l),
(500,0,l)
);
},
{
closed = 1;
nodes = (
(815,322,l),
(815,374,l),
(500,374,l),
(500,322,l)
);
},
{
closed = 1;
nodes = (
(861,636,l),
(861,690,l),
(500,690,l),
(500,636,l)
);
}
);
userData = {
com.schriftgestaltung.Glyphs.lastChange = "2021-03-11 21:44:19 +0000";
};
width = 936;
},
{
layerId = master06;
shapes = (
{
closed = 1;
nodes = (
(60,112,o),
(217,0,o),
(408,0,cs),
(509,0,l),
(509,86,l),
(408,86,ls),
(265,86,o),
(159,168,o),
(159,345,cs),
(159,522,o),
(265,604,o),
(408,604,cs),
(509,604,l),
(509,690,l),
(408,690,ls),
(217,690,o),
(60,578,o),
(60,345,cs)
);
},
{
closed = 1;
nodes = (
(576,0,l),
(576,690,l),
(480,690,l),
(480,0,l)
);
},
{
closed = 1;
nodes = (
(911,0,l),
(911,86,l),
(530,86,l),
(530,0,l)
);
},
{
closed = 1;
nodes = (
(856,307,l),
(856,393,l),
(530,393,l),
(530,307,l)
);
},
{
closed = 1;
nodes = (
(906,604,l),
(906,690,l),
(530,690,l),
(530,604,l)
);
}
);
userData = {
com.schriftgestaltung.Glyphs.lastChange = "2021-03-11 21:49:28 +0000";
};
width = 981;
}
);
unicode = 338;
},
{
color = 9;
glyphname = P;
kernLeft = H;
layers = (
{
anchors = (
{
name = top;
pos = (327,690);
},
{
name = topright;
pos = (533,965);
}
);
layerId = master01;
shapes = (
{
closed = 1;
nodes = (
(245,0,l),
(245,690,l),
(85,690,l),
(85,0,l)
);
},
{
closed = 1;
nodes = (
(337,190,ls),
(493,190,o),
(614,283,o),
(614,440,cs),
(614,597,o),
(493,690,o),
(337,690,cs),
(159,690,l),
(159,550,l),
(322,550,ls),
(399,550,o),
(451,514,o),
(451,440,cs),
(451,366,o),
(399,330,o),
(322,330,cs),
(159,330,l),
(159,190,l)
);
}
);
userData = {
com.schriftgestaltung.Glyphs.lastChange = "2021-03-11 23:13:14 +0000";
};
width = 654;
},
{
anchors = (
{
name = top;
pos = (276,690);
},
{
name = topright;
pos = (448,965);
}
);
layerId = master02;
shapes = (
{
closed = 1;
nodes = (
(212,0,l),
(212,690,l),
(70,690,l),
(70,0,l)
);
},
{
closed = 1;
nodes = (
(264,201,ls),
(416,201,o),
(520,287,o),
(520,443,cs),
(520,609,o),
(427,690,o),
(274,690,cs),
(135,690,l),
(135,558,l),
(260,558,ls),
(340,558,o),
(375,520,o),
(375,443,cs),
(375,366,o),
(340,328,o),
(260,328,cs),
(135,328,l),
(135,201,l)
);
}
);
userData = {
com.schriftgestaltung.Glyphs.lastChange = "2021-03-11 21:09:29 +0000";
};
width = 552;
},
{
anchors = (
{
name = top;
pos = (239,690);
},
{
name = topright;
pos = (407,980);
}
);
layerId = master03;
shapes = (
{
closed = 1;
nodes = (
(139,0,l),
(139,690,l),
(77,690,l),
(77,0,l)
);
},
{
closed = 1;
nodes = (
(208,250,ls),
(345,250,o),
(439,332,o),
(439,470,cs),
(439,608,o),
(345,690,o),
(208,690,cs),
(107,690,l),
(107,636,l),
(203,636,ls),
(313,636,o),
(375,577,o),
(375,470,cs),
(375,363,o),
(313,304,o),
(203,304,cs),
(107,304,l),
(107,250,l)
);
}
);
userData = {
com.schriftgestaltung.Glyphs.lastChange = "2021-03-31 01:29:45 +0000";
};
width = 477;
},
{
anchors = (
{
name = top;
pos = (255,690);
},
{
name = topright;
pos = (426,975);
}
);
layerId = master04;
shapes = (
{
closed = 1;
nodes = (
(167,0,l),
(167,690,l),
(77,690,l),
(77,0,l)
);
},
{
closed = 1;
nodes = (
(245,232,ls),
(376.806,232,o),
(472,305,o),
(472,461,cs),
(472,623,o),
(381,690,o),
(255,690,cs),
(122,690,l),
(122,607,l),
(248,607,ls),
(335,607,o),
(380,565,o),
(380,461,cs),
(380,357,o),
(334,315,o),
(248,315,cs),
(122,315,l),
(122,232,l)
);
}
);
userData = {
com.schriftgestaltung.Glyphs.lastChange = "2021-03-11 21:00:46 +0000";
};
width = 510;
},
{
anchors = (
{
name = top;
pos = (308,690);
},
{
name = topright;
pos = (529,980);
}
);
layerId = master05;
shapes = (
{
closed = 1;
nodes = (
(172,0,l),
(172,690,l),
(110,690,l),
(110,0,l)
);
},
{
closed = 1;
nodes = (
(319,250,ls),
(456,250,o),
(561,332,o),
(561,470,cs),
(561,608,o),
(456,690,o),
(319,690,cs),
(140,690,l),
(140,636,l),
(314,636,ls),
(423.99,636,o),
(497,577,o),
(497,470,cs),
(497,363,o),
(423.99,304,o),
(314,304,cs),
(140,304,l),
(140,250,l)
);
}
);
userData = {
com.schriftgestaltung.Glyphs.lastChange = "2021-03-11 21:44:19 +0000";
};
width = 616;
},
{
anchors = (
{
name = top;
pos = (316,690);
},
{
name = topright;
pos = (533,975);
}
);
layerId = master06;
shapes = (
{
closed = 1;
nodes = (
(196,0,l),
(196,690,l),
(100,690,l),
(100,0,l)
);
},
{
closed = 1;
nodes = (
(328,230,ls),
(469,230,o),
(582,311,o),
(582,460,cs),
(582,609,o),
(469,690,o),
(328,690,cs),
(150,690,l),
(150,604,l),
(323,604,ls),
(415,604,o),
(483,553,o),
(483,460,cs),
(483,367,o),
(414,316,o),
(323,316,cs),
(150,316,l),
(150,230,l)
);
}
);
userData = {
com.schriftgestaltung.Glyphs.lastChange = "2021-03-11 21:49:28 +0000";
};
width = 632;
}
);
unicode = 80;
},
{
color = 3;
glyphname = Thorn;
kernLeft = H;
layers = (
{
layerId = master01;
shapes = (
{
closed = 1;
nodes = (
(245,0,l),
(245,690,l),
(85,690,l),
(85,0,l)
);
},
{
closed = 1;
nodes = (
(347,100,ls),
(497.368,100,o),
(614,191,o),
(614,345,cs),
(614,498.86,o),
(497.368,590,o),
(347,590,cs),
(159,590,l),
(159,450,l),
(332,450,ls),
(403.031,450,o),
(451,415.636,o),
(451,345,cs),
(451,274,o),
(403.031,240,o),
(332,240,cs),
(159,240,l),
(159,100,l)
);
}
);
userData = {
com.schriftgestaltung.Glyphs.lastChange = "2021-03-11 23:13:14 +0000";
};
width = 654;
},
{
layerId = master02;
shapes = (
{
closed = 1;
nodes = (
(212,0,l),
(212,690,l),
(70,690,l),
(70,0,l)
);
},
{
closed = 1;
nodes = (
(264,106,ls),
(416,106,o),
(520,189.291,o),
(520,341,cs),
(520,505.347,o),
(427,585,o),
(274,585,cs),
(135,585,l),
(135,453,l),
(260,453,ls),
(340,453,o),
(375,417.655,o),
(375,345,cs),
(375,272.648,o),
(340,238,o),
(260,238,cs),
(135,238,l),
(135,106,l)
);
}
);
userData = {
com.schriftgestaltung.Glyphs.lastChange = "2021-03-11 21:09:29 +0000";
};
width = 552;
},
{
layerId = master03;
shapes = (
{
closed = 1;
nodes = (
(142,0,l),
(142,690,l),
(80,690,l),
(80,0,l)
);
},
{
closed = 1;
nodes = (
(224,150,ls),
(327,150,o),
(411,223,o),
(411,345,cs),
(411,467,o),
(327,540,o),
(224,540,cs),
(110,540,l),
(110,486,l),
(219,486,ls),
(294,486,o),
(347,436,o),
(347,345,cs),
(347,254,o),
(294,204,o),
(219,204,cs),
(110,204,l),
(110,150,l)
);
}
);
userData = {
com.schriftgestaltung.Glyphs.lastChange = "2021-03-11 20:56:07 +0000";
};
width = 451;
},
{
layerId = master04;
shapes = (
{
closed = 1;
nodes = (
(167,0,l),
(167,690,l),
(77,690,l),
(77,0,l)
);
},
{
closed = 1;
nodes = (
(255,137,l),
(394,137,o),
(472,214,o),
(472,345,cs),
(472,477,o),
(394,553,o),
(255,553,c),
(122,553,l),
(122,470,l),
(249,470,l),
(352,470,o),
(380,423,o),
(380,345,cs),
(380,268,o),
(352,220,o),
(249,220,c),
(122,220,l),
(122,137,l)
);
}
);
userData = {
com.schriftgestaltung.Glyphs.lastChange = "2021-03-11 21:00:46 +0000";
};
width = 510;
},
{
layerId = master05;
shapes = (
{
closed = 1;
nodes = (
(172,0,l),
(172,690,l),
(110,690,l),
(110,0,l)
);
},
{
closed = 1;
nodes = (
(344,150,ls),
(466.847,150,o),
(561,222.682,o),
(561,345,cs),
(561,467.318,o),
(466.847,540,o),
(344,540,cs),
(140,540,l),
(140,486,l),
(339,486,ls),
(433.973,486,o),
(497,435.886,o),
(497,345,cs),
(497,254.114,o),
(433.973,204,o),
(339,204,cs),
(140,204,l),
(140,150,l)
);
}
);
userData = {
com.schriftgestaltung.Glyphs.lastChange = "2021-03-11 21:44:19 +0000";
};
width = 616;
},
{
layerId = master06;
shapes = (
{
closed = 1;
nodes = (
(196,0,l),
(196,690,l),
(100,690,l),
(100,0,l)
);
},
{
closed = 1;
nodes = (
(343,135,ls),
(475.673,135,o),
(582,208.957,o),
(582,345,cs),
(582,481.043,o),
(475.673,555,o),
(343,555,cs),
(150,555,l),
(150,469,l),
(338,469,ls),
(421.375,469,o),
(483,425.083,o),
(483,345,cs),
(483,264.917,o),
(420.469,221,o),
(338,221,cs),
(150,221,l),
(150,135,l)
);
}
);
userData = {
com.schriftgestaltung.Glyphs.lastChange = "2021-03-11 21:49:28 +0000";
};
width = 632;
}
);
unicode = 222;
},
{
color = 9;
glyphname = Q;
kernLeft = O;
kernRight = O;
layers = (
{
anchors = (
{
name = top;
pos = (372,690);
},
{
name = topright;
pos = (618,965);
}
);
layerId = master01;
shapes = (
{
closed = 1;
nodes = (
(450,-114,o),
(535,-172,o),
(680,-172,c),
(680,-22,l),
(605,-22,o),
(560,0,o),
(540,60,c),
(415,10,l)
);
},
{
closed = 1;
nodes = (
(45,122,o),
(192,-12,o),
(372,-12,cs),
(552,-12,o),
(699,122,o),
(699,345,cs),
(699,568,o),
(552,702,o),
(372,702,cs),
(192,702,o),
(45,568,o),
(45,345,cs)
);
},
{
closed = 1;
nodes = (
(208,489,o),
(278,559,o),
(372,559,cs),
(466,559,o),
(536,489,o),
(536,345,cs),
(536,201,o),
(466,131,o),
(372,131,cs),
(278,131,o),
(208,201,o),
(208,345,cs)
);
}
);
userData = {
com.schriftgestaltung.Glyphs.lastChange = "2021-03-11 23:13:14 +0000";
};
width = 744;
},
{
anchors = (
{
name = top;
pos = (314,690);
},
{
name = topright;
pos = (519,965);
}
);
layerId = master02;
shapes = (
{
closed = 1;
nodes = (
(379,-113,o),
(451,-170,o),
(574,-171,c),
(574,-29,l),
(512,-29,o),
(475,-7,o),
(459,56,c),
(348,10,l)
);
},
{
closed = 1;
nodes = (
(36,111,o),
(151,-12,o),
(314,-12,c),
(476,-12,o),
(591,111,o),
(591,345,cs),
(591,579,o),
(476,702,o),
(314,702,cs),
(151,702,o),
(36,579,o),
(36,345,cs)
);
},
{
closed = 1;
nodes = (
(181,504,o),
(231,567,o),
(314,567,cs),
(396,567,o),
(446,504,o),
(446,345,cs),
(446,186,o),
(396,123,o),
(314,123,c),
(231,123,o),
(181,186,o),
(181,345,cs)
);
}
);
userData = {
com.schriftgestaltung.Glyphs.lastChange = "2021-03-11 21:09:29 +0000";
};
width = 627;
},
{
anchors = (
{
name = top;
pos = (273,690);
},
{
name = topright;
pos = (469,980);
}
);
layerId = master03;
shapes = (
{
closed = 1;
nodes = (
(360,-83,o),
(405,-139,o),
(491,-150,c),
(491,-87,l),
(439,-80,o),
(403,-40,o),
(389,29,c),
(339,7,l)
);
},
{
closed = 1;
nodes = (
(45,142,o),
(115,-8,o),
(273,-8,cs),
(431,-8,o),
(501,142,o),
(501,345,cs),
(501,548,o),
(431,698,o),
(273,698,cs),
(115,698,o),
(45,548,o),
(45,345,cs)
);
},
{
closed = 1;
nodes = (
(109,512,o),
(148,641,o),
(273,641,cs),
(398,641,o),
(437,512,o),
(437,345,cs),
(437,178,o),
(398,49,o),
(273,49,cs),
(148,49,o),
(109,178,o),
(109,345,cs)
);
}
);
userData = {
com.schriftgestaltung.Glyphs.lastChange = "2021-03-31 01:36:02 +0000";
};
width = 546;
},
{
anchors = (
{
name = top;
pos = (293,690);
},
{
name = topright;
pos = (494,975);
}
);
layerId = master04;
shapes = (
{
closed = 1;
nodes = (
(348,-108,o),
(414,-160,o),
(525,-165,c),
(525,-74,l),
(460,-74,o),
(421,-46,o),
(401,35,c),
(326,9,l)
);
},
{
closed = 1;
nodes = (
(45,101,o),
(157,-10,o),
(293,-10,cs),
(428,-10,o),
(540,101,o),
(540,345,cs),
(540,589,o),
(428,700,o),
(293,700,cs),
(157,700,o),
(45,589,o),
(45,345,cs)
);
},
{
closed = 1;
nodes = (
(138,534,o),
(204,614,o),
(293,614,cs),
(381,614,o),
(447,534,o),
(447,345,cs),
(447,156,o),
(381,76,o),
(293,76,cs),
(204,76,o),
(138,156,o),
(138,345,cs)
);
}
);
userData = {
com.schriftgestaltung.Glyphs.lastChange = "2021-03-11 21:00:46 +0000";
};
width = 585;
},
{
anchors = (
{
name = top;
pos = (358,690);
},
{
name = topright;
pos = (614,980);
}
);
layerId = master05;
shapes = (
{
closed = 1;
nodes = (
(451,-97,o),
(527,-146,o),
(641,-150,c),
(641,-87,l),
(559,-87,o),
(498,-58,o),
(474,29,c),
(424,7,l)
);
},
{
closed = 1;
nodes = (
(70,112,o),
(200,-8,o),
(358,-8,cs),
(516,-8,o),
(646,112,o),
(646,345,cs),
(646,578,o),
(516,698,o),
(358,698,cs),
(200,698,o),
(70,578,o),
(70,345,cs)
);
},
{
closed = 1;
nodes = (
(134,542,o),
(233,641,o),
(358,641,cs),
(483,641,o),
(582,542,o),
(582,345,cs),
(582,148,o),
(483,49,o),
(358,49,cs),
(233,49,o),
(134,148,o),
(134,345,cs)
);
}
);
userData = {
com.schriftgestaltung.Glyphs.lastChange = "2021-03-11 21:44:19 +0000";
};
width = 716;
},
{
anchors = (
{
name = top;
pos = (363,690);
},
{
name = topright;
pos = (617,975);
}
);
layerId = master06;
shapes = (
{
closed = 1;
nodes = (
(445,-108,o),
(520,-161,o),
(656,-165,c),
(656,-71,l),
(573,-71,o),
(523,-44,o),
(496,36,c),
(420,9,l)
);
},
{
closed = 1;
nodes = (
(60,112,o),
(197,-10,o),
(363,-10,cs),
(529,-10,o),
(666,112,o),
(666,345,cs),
(666,578,o),
(529,700,o),
(363,700,cs),
(197,700,o),
(60,578,o),
(60,345,cs)
);
},
{
closed = 1;
nodes = (
(159,522,o),
(246,611,o),
(363,611,cs),
(480,611,o),
(567,522,o),
(567,345,cs),
(567,168,o),
(480,79,o),
(363,79,cs),
(246,79,o),
(159,168,o),
(159,345,cs)
);
}
);
userData = {
com.schriftgestaltung.Glyphs.lastChange = "2021-03-11 21:49:28 +0000";
};
width = 726;
}
);
unicode = 81;
},
{
color = 9;
glyphname = R;
kernLeft = H;
kernRight = R;
layers = (
{
anchors = (
{
name = bottom;
pos = (346,0);
},
{
name = top;
pos = (322,690);
},
{
name = topright;
pos = (523,965);
}
);
layerId = master01;
shapes = (
{
closed = 1;
nodes = (
(245,0,l),
(245,690,l),
(85,690,l),
(85,0,l)
);
},
{
closed = 1;
nodes = (
(347,240,ls),
(492,240,o),
(604,322,o),
(604,460,cs),
(604,604,o),
(492,690,o),
(347,690,cs),
(159,690,l),
(159,550,l),
(332,550,ls),
(397,550,o),
(441,521,o),
(441,460,cs),
(441,399,o),
(397,370,o),
(332,370,cs),
(159,370,l),
(159,240,l)
);
},
{
closed = 1;
nodes = (
(447,0,l),
(624,0,l),
(455,290,l),
(296,290,l)
);
}
);
userData = {
com.schriftgestaltung.Glyphs.lastChange = "2021-03-11 23:13:14 +0000";
};
width = 659;
},
{
anchors = (
{
name = bottom;
pos = (294,0);
},
{
name = top;
pos = (271,690);
},
{
name = topright;
pos = (439,965);
}
);
layerId = master02;
shapes = (
{
closed = 1;
nodes = (
(212,0,l),
(212,690,l),
(70,690,l),
(70,0,l)
);
},
{
closed = 1;
nodes = (
(293,243,ls),
(416,243,o),
(511,324,o),
(511,462,cs),
(511,605,o),
(416,690,o),
(293,690,cs),
(135,690,l),
(135,558,l),
(269,558,l),
(335,558,o),
(366,527,o),
(366,462,cs),
(366,398,o),
(336,366,o),
(269,366,c),
(135,366,l),
(135,243,l)
);
},
{
closed = 1;
nodes = (
(375,0,l),
(528,0,l),
(388,290,l),
(252,290,l)
);
}
);
userData = {
com.schriftgestaltung.Glyphs.lastChange = "2021-03-11 21:09:29 +0000";
};
width = 555;
},
{
anchors = (
{
name = bottom;
pos = (263,0);
},
{
name = top;
pos = (222,690);
},
{
name = topright;
pos = (396,980);
}
);
layerId = master03;
shapes = (
{
closed = 1;
nodes = (
(139,0,l),
(139,690,l),
(77,690,l),
(77,0,l)
);
},
{
closed = 1;
nodes = (
(193,276,ls),
(335,276,o),
(428,354,o),
(428,483,cs),
(428,612,o),
(336,690,o),
(201,690,cs),
(107,690,l),
(107,636,l),
(196,636,ls),
(304,636,o),
(364,581,o),
(364,483,cs),
(364,385,o),
(296,330,o),
(188,330,cs),
(107,330,l),
(107,276,l)
);
},
{
closed = 1;
nodes = (
(386,0,l),
(458,0,l),
(269,290,l),
(203,290,l)
);
}
);
userData = {
com.schriftgestaltung.Glyphs.lastChange = "2021-03-31 01:43:25 +0000";
};
width = 498;
},
{
anchors = (
{
name = bottom;
pos = (274,0);
},
{
name = top;
pos = (255,690);
},
{
name = topright;
pos = (421,975);
}
);
layerId = master04;
shapes = (
{
closed = 1;
nodes = (
(167,0,l),
(167,690,l),
(77,690,l),
(77,0,l)
);
},
{
closed = 1;
nodes = (
(240,261,l),
(371,261,o),
(467,334,o),
(467,476,cs),
(467,627,o),
(375,690,o),
(250,690,c),
(122,690,l),
(122,607,l),
(238,607,l),
(327,607,o),
(375,568,o),
(375,476,cs),
(375,383,o),
(326,342,o),
(238,342,c),
(122,342,l),
(122,261,l)
);
},
{
closed = 1;
nodes = (
(380,0,l),
(482,0,l),
(335,290,l),
(238,290,l)
);
}
);
userData = {
com.schriftgestaltung.Glyphs.lastChange = "2021-03-11 21:00:46 +0000";
};
width = 522;
},
{
anchors = (
{
name = bottom;
pos = (335,0);
},
{
name = top;
pos = (289,690);
},
{
name = topright;
pos = (509,980);
}
);
layerId = master05;
shapes = (
{
closed = 1;
nodes = (
(172,0,l),
(172,690,l),
(110,690,l),
(110,0,l)
);
},
{
closed = 1;
nodes = (
(304,276,ls),
(439,276,o),
(541,354,o),
(541,483,cs),
(541,612,o),
(439,690,o),
(304,690,cs),
(140,690,l),
(140,636,l),
(299,636,ls),
(407,636,o),
(477,581,o),
(477,483,cs),
(477,385,o),
(407,330,o),
(299,330,cs),
(140,330,l),
(140,276,l)
);
},
{
closed = 1;
nodes = (
(498,0,l),
(571,0,l),
(380,290,l),
(313,290,l)
);
}
);
userData = {
com.schriftgestaltung.Glyphs.lastChange = "2021-03-11 21:44:19 +0000";
};
width = 626;
},
{
anchors = (
{
name = bottom;
pos = (339,0);
},
{
name = top;
pos = (318,690);
},
{
name = topright;
pos = (528,975);
}
);
layerId = master06;
shapes = (
{
closed = 1;
nodes = (
(196,0,l),
(196,690,l),
(100,690,l),
(100,0,l)
);
},
{
closed = 1;
nodes = (
(333,260,ls),
(468,260,o),
(577,335,o),
(577,475,cs),
(577,614,o),
(468,690,o),
(333,690,cs),
(150,690,l),
(150,604,l),
(328,604,ls),
(414,604,o),
(478,558,o),
(478,475,cs),
(478,391,o),
(413,343,o),
(328,343,cs),
(150,343,l),
(150,260,l)
);
},
{
closed = 1;
nodes = (
(481,0,l),
(595,0,l),
(406,290,l),
(301,290,l)
);
}
);
userData = {
com.schriftgestaltung.Glyphs.lastChange = "2021-03-11 21:49:28 +0000";
};
width = 650;
}
);
unicode = 82;
},
{
color = 9;
glyphname = S;
kernLeft = S;
kernRight = S;
layers = (
{
anchors = (
{
name = bottom;
pos = (309,0);
},
{
name = top;
pos = (330,690);
},
{
name = topright;
pos = (511,965);
}
);
layerId = master01;
shapes = (
{
closed = 1;
nodes = (
(120,20,o),
(215,-12,o),
(309,-12,c),
(500,-12,o),
(593,85,o),
(593,195,c),
(593,296,o),
(526,370,o),
(356,426,cs),
(262,457,o),
(231,482,o),
(231,513,c),
(231,541,o),
(261,566,o),
(317,566,c),
(386,566,o),
(453,539,o),
(508,500,c),
(579,627,l),
(518,669,o),
(421,702,o),
(330,702,c),
(159,702,o),
(70,610,o),
(70,500,c),
(70,409,o),
(135,330,o),
(299,277,cs),
(404,243,o),
(428,212,o),
(428,184,c),
(428,152,o),
(391,126,o),
(326,126,c),
(253,126,o),
(170,159,o),
(111,207,c),
(35,74,l)
);
}
);
userData = {
com.schriftgestaltung.Glyphs.lastChange = "2021-03-12 00:12:57 +0000";
};
width = 638;
},
{
anchors = (
{
name = bottom;
pos = (258,0);
},
{
name = top;
pos = (279,690);
},
{
name = topright;
pos = (428,965);
}
);
layerId = master02;
shapes = (
{
closed = 1;
nodes = (
(98,20,o),
(175,-12,o),
(260,-12,c),
(413,-12,o),
(502,84,o),
(502,203,cs),
(502,292,o),
(444,366,o),
(302,423,cs),
(227,454.297,o),
(201,479.725,o),
(201,512,cs),
(201,545.067,o),
(229.227,574,o),
(282,574,cs),
(334.63,574,o),
(386.352,550.118,o),
(429,516,c),
(490,635,l),
(440.209,673.286,o),
(360.152,702,o),
(284,702,cs),
(133.674,702,o),
(58,609,o),
(58,502,cs),
(58,411,o),
(117,349,o),
(251,291,cs),
(342,252,o),
(354,223,o),
(354,194,c),
(354,152,o),
(324,119,o),
(264,119,cs),
(207,119,o),
(140.278,149,o),
(94,191,c),
(28,72,l)
);
}
);
userData = {
com.schriftgestaltung.Glyphs.lastChange = "2021-03-11 21:09:29 +0000";
};
width = 538;
},
{
anchors = (
{
name = bottom;
pos = (238,0);
},
{
name = top;
pos = (241,690);
},
{
name = topright;
pos = (403,980);
}
);
background = {
shapes = (
{
closed = 1;
nodes = (
(94,18,o),
(162,-8,o),
(237,-8,c),
(376,-8,o),
(433,72,o),
(433,171,c),
(433,240,o),
(387,334,o),
(241,390,cs),
(116,438,o),
(117,496,o),
(117,532,c),
(117,598,o),
(160,644,o),
(241,644,c),
(293,644,o),
(328,625,o),
(373,589,c),
(410,633,l),
(355,678,o),
(307,698,o),
(241,698,c),
(127,698,o),
(58,625,o),
(58,529,c),
(58,467,o),
(74,390,o),
(217,334,cs),
(354,280,o),
(372,207,o),
(372,166,c),
(372,105,o),
(340,46,o),
(237,46,c),
(170,46,o),
(124,72,o),
(71,120,c),
(36,78,l)
);
}
);
};
layerId = master03;
shapes = (
{
closed = 1;
nodes = (
(94,18,o),
(162,-8,o),
(237,-8,cs),
(376,-8,o),
(433,72,o),
(433,171,cs),
(433,240,o),
(387,334,o),
(241,390,cs),
(135,431,o),
(117,476,o),
(117,532,cs),
(117,598,o),
(160,644,o),
(241,644,cs),
(293,644,o),
(328,625,o),
(373,589,c),
(410,633,l),
(355,678,o),
(307,698,o),
(241,698,cs),
(127,698,o),
(58,625,o),
(58,529,cs),
(58,436,o),
(106,378,o),
(217,334,cs),
(354,280,o),
(372,207,o),
(372,166,cs),
(372,105,o),
(340,46,o),
(237,46,cs),
(170,46,o),
(124,72,o),
(71,120,c),
(36,78,l)
);
}
);
userData = {
com.schriftgestaltung.Glyphs.lastChange = "2021-03-31 02:18:37 +0000";
};
width = 476;
},
{
anchors = (
{
name = bottom;
pos = (254,0);
},
{
name = top;
pos = (255,690);
},
{
name = topright;
pos = (414,975);
}
);
layerId = master04;
shapes = (
{
closed = 1;
nodes = (
(83,31,o),
(165,-10,o),
(245,-10,cs),
(372,-10,o),
(459,70,o),
(459,192,cs),
(459,273.79,o),
(404,340.718,o),
(270,399,cs),
(177.795,438.677,o),
(154,471,o),
(154,522,cs),
(154,572.408,o),
(194,617,o),
(263,617,cs),
(313,617,o),
(359,595,o),
(396,558,c),
(444,631,l),
(396.268,675.425,o),
(333.62,700,o),
(266,700,cs),
(141.389,700,o),
(62,615.909,o),
(62,515,cs),
(62,428.719,o),
(106,370.284,o),
(241,313,cs),
(340,270.326,o),
(368,231.621,o),
(368,182,cs),
(368,123,o),
(324,74,o),
(252,74,cs),
(186.4,74,o),
(135,106,o),
(88,153,c),
(36,81,l)
);
}
);
userData = {
com.schriftgestaltung.Glyphs.lastChange = "2021-03-11 21:03:33 +0000";
};
width = 502;
},
{
anchors = (
{
name = bottom;
pos = (305,0);
},
{
name = top;
pos = (319,690);
},
{
name = topright;
pos = (515,980);
}
);
layerId = master05;
shapes = (
{
closed = 1;
nodes = (
(121,26,o),
(202,-8,o),
(305,-8,c),
(452,-8,o),
(545,68,o),
(545,177,c),
(545,266,o),
(480,336,o),
(319,387,cs),
(191,428,o),
(155,466,o),
(155,522,c),
(155,588,o),
(217,644,o),
(319,644,c),
(392,644,o),
(443,616,o),
(483,576,c),
(521,622,l),
(470,670,o),
(406,698,o),
(319,698,c),
(184,698,o),
(96,615,o),
(96,519,c),
(96,437,o),
(149,378,o),
(295,331,cs),
(447,282,o),
(484,233,o),
(484,172,c),
(484,101,o),
(421,46,o),
(305,46,c),
(216,46,o),
(151,78,o),
(100,131,c),
(60,88,l)
);
}
);
userData = {
com.schriftgestaltung.Glyphs.lastChange = "2021-03-11 21:44:58 +0000";
};
width = 615;
},
{
anchors = (
{
name = bottom;
pos = (320,0);
},
{
name = top;
pos = (314,690);
},
{
name = topright;
pos = (520,975);
}
);
layerId = master06;
shapes = (
{
closed = 1;
nodes = (
(112,33,o),
(220,-10,o),
(320,-10,cs),
(480,-10,o),
(569,76,o),
(569,183,cs),
(569,271,o),
(507,346,o),
(330,403,cs),
(206,443,o),
(173,477,o),
(173,522,cs),
(173,572,o),
(218,617,o),
(307,617,cs),
(378,617,o),
(440,589,o),
(490,541,c),
(545,613,l),
(481,668,o),
(393,700,o),
(314,700,cs),
(175,700,o),
(80,615,o),
(80,512,cs),
(80,426,o),
(131,364,o),
(302,307,cs),
(433,263,o),
(470,224,o),
(470,171,cs),
(470,120,o),
(421,77,o),
(328,77,cs),
(238,77,o),
(164,108,o),
(106,163,c),
(50,94,l)
);
}
);
userData = {
com.schriftgestaltung.Glyphs.lastChange = "2021-03-11 21:49:28 +0000";
};
width = 624;
}
);
unicode = 83;
},
{
color = 3;
glyphname = Germandbls;
kernLeft = H;
kernRight = B;
layers = (
{
background = {
shapes = (
{
closed = 1;
nodes = (
(245,0,l),
(245,690,l),
(85,690,l),
(85,0,l)
);
},
{
closed = 1;
nodes = (
(367,0,ls),
(500.716,0,o),
(604,70.698,o),
(604,190,cs),
(604,309.758,o),
(508,388,o),
(367,388,cs),
(159,388,l),
(159,288,l),
(352,288,ls),
(405,288,o),
(441,262,o),
(441,211,cs),
(441,160,o),
(405,134,o),
(352,134,cs),
(159,134,l),
(159,0,l)
);
},
{
closed = 1;
nodes = (
(342,328,ls),
(473,328,o),
(574,389,o),
(574,505,cs),
(574,620,o),
(472.895,690,o),
(342,690,cs),
(159,690,l),
(159,556,l),
(332,556,ls),
(382,556,o),
(416,531,o),
(416,484,cs),
(416,437,o),
(382,412,o),
(332,412,cs),
(159,412,l),
(159,328,l)
);
}
);
};
layerId = master01;
shapes = (
{
closed = 1;
nodes = (
(587,-11,o),
(677,63,o),
(677,187,cs),
(677,285,o),
(611,352,o),
(521,365,c),
(521,347,l),
(593,373,o),
(644,434,o),
(644,512,cs),
(644,630,o),
(540,701,o),
(380,701,cs),
(191,701,o),
(85,607,o),
(85,433,cs),
(85,0,l),
(245,0,l),
(245,432,ls),
(245,518,o),
(286,565,o),
(380,565,cs),
(445,565,o),
(481,536,o),
(481,490,cs),
(481,437,o),
(446,413,o),
(389,413,cs),
(328,413,l),
(328,277,l),
(405,277,ls),
(479,277,o),
(514,256,o),
(514,199,cs),
(514,156,o),
(484,123,o),
(429,123,cs),
(393,123,o),
(359,134,o),
(329,160,c),
(278,39,l),
(328,5,o),
(382,-11,o),
(452,-11,cs)
);
}
);
userData = {
com.schriftgestaltung.Glyphs.lastChange = "2021-03-17 20:51:58 +0000";
};
width = 727;
},
{
background = {
shapes = (
{
closed = 1;
nodes = (
(212,0,l),
(212,690,l),
(70,690,l),
(70,0,l)
);
},
{
closed = 1;
nodes = (
(298,0,ls),
(423,0,o),
(518,70,o),
(518,201,cs),
(518,316,o),
(448,387,o),
(298,387,cs),
(135,387,l),
(135,296,l),
(285,296,ls),
(347,296,o),
(376,266,o),
(376,209,cs),
(376,153,o),
(347,123,o),
(285,123,cs),
(135,123,l),
(135,0,l)
);
},
{
closed = 1;
nodes = (
(276,329,ls),
(407,329,o),
(493,402,o),
(493,510,cs),
(493,623,o),
(407,690,o),
(276,690,cs),
(135,690,l),
(135,567,l),
(267,567,ls),
(328,567,o),
(355,538,o),
(355,486,cs),
(355,434,o),
(328,406,o),
(267,406,cs),
(135,406,l),
(135,329,l)
);
}
);
};
layerId = master02;
shapes = (
{
closed = 1;
nodes = (
(480,-11,o),
(566,71,o),
(566,180,cs),
(566,272,o),
(511,335,o),
(418,354,c),
(418,337,l),
(497,367,o),
(540,428,o),
(540,514,cs),
(540,625,o),
(450,702,o),
(321,702,cs),
(166,702,o),
(70,609,o),
(70,456,cs),
(70,0,l),
(212,0,l),
(212,455,ls),
(212,530,o),
(249,574,o),
(312,574,cs),
(364,574,o),
(402,538,o),
(402,488,cs),
(402,437,o),
(367,405,o),
(315,405,cs),
(273,405,l),
(273,275,l),
(327,275,ls),
(388,275,o),
(428,244,o),
(428,194,cs),
(428,141,o),
(395,113,o),
(350,113,cs),
(326,113,o),
(298,124,o),
(280,141,c),
(233,32,l),
(266,6,o),
(319,-11,o),
(369,-11,cs)
);
}
);
userData = {
com.schriftgestaltung.Glyphs.lastChange = "2021-03-11 21:09:29 +0000";
};
width = 598;
},
{
background = {
shapes = (
{
closed = 1;
nodes = (
(169,0,l),
(169,690,l),
(107,690,l),
(107,0,l)
);
},
{
closed = 1;
nodes = (
(257,0,ls),
(386,0,o),
(483,70,o),
(483,187,cs),
(483,303,o),
(385,370,o),
(256,370,cs),
(137,370,l),
(137,330,l),
(251,330,ls),
(353,330,o),
(419,280,o),
(419,192,cs),
(419,104,o),
(353,54,o),
(251,54,cs),
(137,54,l),
(137,0,l)
);
},
{
closed = 1;
nodes = (
(236,340,ls),
(362,340,o),
(458,403,o),
(458,513,cs),
(458,624,o),
(364,690,o),
(238,690,cs),
(137,690,l),
(137,636,l),
(231,636,ls),
(330,636,o),
(394,590,o),
(394,508,cs),
(394,426,o),
(330,380,o),
(231,380,cs),
(137,380,l),
(137,340,l)
);
}
);
};
layerId = master03;
shapes = (
{
closed = 1;
nodes = (
(424,-9,o),
(498,63,o),
(498,173,cs),
(498,274,o),
(429,343,o),
(327,358,c),
(337,342,l),
(410,365,o),
(471,436,o),
(471,519,cs),
(471,642,o),
(379,698,o),
(282,698,cs),
(148,698,o),
(77,609,o),
(77,476,cs),
(77,0,l),
(139,0,l),
(139,476,ls),
(139,581,o),
(188,644,o),
(282,644,cs),
(357,644,o),
(407,601,o),
(407,510,cs),
(407,424,o),
(346,373,o),
(275,373,cs),
(215,373,l),
(215,319,l),
(293,319,ls),
(370,319,o),
(434,272,o),
(434,181,cs),
(434,96,o),
(383,47,o),
(308,47,cs),
(262,47,o),
(231,62,o),
(208,79,c),
(186,28,l),
(215,5,o),
(262,-9,o),
(313,-9,cs)
);
}
);
userData = {
com.schriftgestaltung.Glyphs.lastChange = "2021-03-17 02:36:24 +0000";
};
width = 544;
},
{
background = {
shapes = (
{
closed = 1;
nodes = (
(167,0,l),
(167,690,l),
(77,690,l),
(77,0,l)
);
},
{
closed = 1;
nodes = (
(268,0,l),
(391,0,o),
(473,68,o),
(473,195,cs),
(473,324,o),
(392,380,o),
(268,380,c),
(122,380,l),
(122,315,l),
(262,315,l),
(339,315,o),
(381,279,o),
(381,199,cs),
(381,119,o),
(338,81,o),
(262,81,c),
(122,81,l),
(122,0,l)
);
},
{
closed = 1;
nodes = (
(253,335,l),
(371,335,o),
(451,395,o),
(451,505,cs),
(451,625,o),
(371,690,o),
(253,690,c),
(122,690,l),
(122,609,l),
(248,609,l),
(321,609,o),
(359,574,o),
(359,501,cs),
(359,428,o),
(320,395,o),
(248,395,c),
(122,395,l),
(122,335,l)
);
}
);
};
layerId = master04;
shapes = (
{
closed = 1;
nodes = (
(448,-10,o),
(529,65,o),
(529,175,cs),
(529,273,o),
(462,341,o),
(360,357,c),
(369,340,l),
(446,366,o),
(502,434,o),
(502,517,cs),
(502,637,o),
(409,699,o),
(300,699,cs),
(158,699,o),
(77,609,o),
(77,470,cs),
(77,0,l),
(167,0,l),
(167,469,ls),
(167,565,o),
(212,622,o),
(296,622,cs),
(364,622,o),
(410,581,o),
(410,506,cs),
(410,428,o),
(358,383,o),
(292,383,cs),
(238,383,l),
(238,305,l),
(309,305,ls),
(381,305,o),
(437,263,o),
(437,185,cs),
(437,110,o),
(392,68,o),
(326,68,cs),
(287,68,o),
(257,81,o),
(235,98,c),
(206,29,l),
(236,5,o),
(285,-10,o),
(335,-10,cs)
);
}
);
userData = {
com.schriftgestaltung.Glyphs.lastChange = "2021-03-11 21:03:33 +0000";
};
width = 575;
},
{
background = {
shapes = (
{
closed = 1;
nodes = (
(172,0,l),
(172,690,l),
(110,690,l),
(110,0,l)
);
},
{
closed = 1;
nodes = (
(324,0,ls),
(453,0,o),
(551,70,o),
(551,187,cs),
(551,303,o),
(453,370,o),
(324,370,cs),
(140,370,l),
(140,330,l),
(319,330,ls),
(421,330,o),
(487,280,o),
(487,192,cs),
(487,104,o),
(421,54,o),
(319,54,cs),
(140,54,l),
(140,0,l)
);
},
{
closed = 1;
nodes = (
(304,340,ls),
(430,340,o),
(526,403,o),
(526,513,cs),
(526,624,o),
(430,690,o),
(304,690,cs),
(140,690,l),
(140,636,l),
(299,636,ls),
(398,636,o),
(462,590,o),
(462,508,cs),
(462,426,o),
(398,380,o),
(299,380,cs),
(140,380,l),
(140,340,l)
);
}
);
};
layerId = master05;
shapes = (
{
closed = 1;
nodes = (
(508,-9,o),
(588,64,o),
(588,177,cs),
(588,278,o),
(523,346,o),
(421,360,c),
(421,345,l),
(498,366,o),
(555,438,o),
(555,521,cs),
(555,632,o),
(472,699,o),
(345,699,cs),
(194,699,o),
(110,618,o),
(110,473,cs),
(110,0,l),
(172,0,l),
(172,460,ls),
(172,584,o),
(227,644,o),
(345,644,cs),
(442,644,o),
(491,604,o),
(491,520,cs),
(491,430,o),
(435,374,o),
(352,374,cs),
(266,374,l),
(266,321,l),
(372,321,ls),
(468,321,o),
(524,272,o),
(524,182,cs),
(524,96,o),
(469,45,o),
(384,45,cs),
(336,45,o),
(295,62,o),
(263,96,c),
(231,51,l),
(271,12,o),
(327,-9,o),
(391,-9,cs)
);
}
);
userData = {
com.schriftgestaltung.Glyphs.lastChange = "2021-03-11 21:44:19 +0000";
};
width = 658;
},
{
background = {
shapes = (
{
closed = 1;
nodes = (
(196,0,l),
(196,690,l),
(100,690,l),
(100,0,l)
);
},
{
closed = 1;
nodes = (
(358,0,ls),
(484,0,o),
(587,68,o),
(587,195,cs),
(587,315,o),
(484,380,o),
(358,380,cs),
(150,380,l),
(150,314,l),
(353,314,ls),
(430,314,o),
(488,273,o),
(488,200,cs),
(488,126,o),
(429,84,o),
(353,84,cs),
(150,84,l),
(150,0,l)
);
},
{
closed = 1;
nodes = (
(340,335,l),
(461,335,o),
(559,395,o),
(559,505,cs),
(559,625,o),
(461,690,o),
(340,690,cs),
(150,690,l),
(150,606,l),
(335,606,ls),
(407,606,o),
(460,567,o),
(460,500,cs),
(460,433,o),
(406,396,o),
(335,396,cs),
(150,396,l),
(150,335,l)
);
}
);
};
layerId = master06;
shapes = (
{
closed = 1;
nodes = (
(528,-10,o),
(620,64,o),
(620,180,cs),
(620,280,o),
(556,348,o),
(450,362,c),
(450,346,l),
(536,368,o),
(587,437,o),
(587,518,cs),
(587,631,o),
(484,700,o),
(354,700,cs),
(201,700,o),
(100,615,o),
(100,461,cs),
(100,0,l),
(196,0,l),
(196,452,ls),
(196,564,o),
(243,619,o),
(354,619,cs),
(438,619,o),
(488,583,o),
(488,511,cs),
(488,432,o),
(433,386,o),
(362,386,cs),
(283,386,l),
(283,307,l),
(370,307,ls),
(466,307,o),
(521,267,o),
(521,187,cs),
(521,115,o),
(469,69,o),
(396,69,cs),
(352,69,o),
(313,84,o),
(282,116,c),
(244,47,l),
(287,10,o),
(342,-10,o),
(408,-10,cs)
);
}
);
userData = {
com.schriftgestaltung.Glyphs.lastChange = "2021-03-11 21:49:28 +0000";
};
width = 680;
}
);
metricLeft = H;
metricRight = B;
unicode = 7838;
},
{
color = 9;
glyphname = T;
kernLeft = T;
kernRight = T;
layers = (
{
anchors = (
{
name = bottom;
pos = (293,0);
},
{
name = top;
pos = (293,690);
},
{
name = topright;
pos = (561,965);
}
);
layerId = master01;
shapes = (
{
closed = 1;
nodes = (
(561,550,l),
(561,690,l),
(25,690,l),
(25,550,l)
);
},
{
closed = 1;
nodes = (
(373,0,l),
(373,690,l),
(213,690,l),
(213,0,l)
);
}
);
userData = {
com.schriftgestaltung.Glyphs.lastChange = "2021-03-11 23:13:14 +0000";
};
width = 586;
},
{
anchors = (
{
name = bottom;
pos = (247,0);
},
{
name = top;
pos = (247,690);
},
{
name = topright;
pos = (473,965);
}
);
layerId = master02;
shapes = (
{
closed = 1;
nodes = (
(473,558,l),
(473,690,l),
(20,690,l),
(20,558,l)
);
},
{
closed = 1;
nodes = (
(318,0,l),
(318,690,l),
(176,690,l),
(176,0,l)
);
}
);
userData = {
com.schriftgestaltung.Glyphs.lastChange = "2021-03-11 21:09:29 +0000";
};
width = 493;
},
{
anchors = (
{
name = bottom;
pos = (195,0);
},
{
name = top;
pos = (193,690);
},
{
name = topright;
pos = (363,980);
}
);
layerId = master03;
shapes = (
{
closed = 1;
nodes = (
(363,636,l),
(363,690,l),
(23,690,l),
(23,636,l)
);
},
{
closed = 1;
nodes = (
(226,0,l),
(226,690,l),
(164,690,l),
(164,0,l)
);
}
);
userData = {
com.schriftgestaltung.Glyphs.lastChange = "2021-03-31 02:27:23 +0000";
};
width = 386;
},
{
anchors = (
{
name = bottom;
pos = (232,0);
},
{
name = top;
pos = (232,690);
},
{
name = topright;
pos = (440,975);
}
);
layerId = master04;
shapes = (
{
closed = 1;
nodes = (
(440,607,l),
(440,690,l),
(23,690,l),
(23,607,l)
);
},
{
closed = 1;
nodes = (
(277,0,l),
(277,690,l),
(187,690,l),
(187,0,l)
);
}
);
userData = {
com.schriftgestaltung.Glyphs.lastChange = "2021-03-11 21:03:33 +0000";
};
width = 463;
},
{
anchors = (
{
name = bottom;
pos = (282,0);
},
{
name = top;
pos = (282,690);
},
{
name = topright;
pos = (529,980);
}
);
layerId = master05;
shapes = (
{
closed = 1;
nodes = (
(529,636,l),
(529,690,l),
(35,690,l),
(35,636,l)
);
},
{
closed = 1;
nodes = (
(313,0,l),
(313,690,l),
(251,690,l),
(251,0,l)
);
}
);
userData = {
com.schriftgestaltung.Glyphs.lastChange = "2021-03-11 21:44:58 +0000";
};
width = 564;
},
{
anchors = (
{
name = bottom;
pos = (288,0);
},
{
name = top;
pos = (288,690);
},
{
name = topright;
pos = (546,980);
}
);
layerId = master06;
shapes = (
{
closed = 1;
nodes = (
(546,604,l),
(546,690,l),
(30,690,l),
(30,604,l)
);
},
{
closed = 1;
nodes = (
(336,0,l),
(336,690,l),
(240,690,l),
(240,0,l)
);
}
);
userData = {
com.schriftgestaltung.Glyphs.lastChange = "2021-03-11 21:49:28 +0000";
};
width = 576;
}
);
unicode = 84;
},
{
color = 9;
glyphname = Tbar;
kernLeft = T;
kernRight = T;
layers = (
{
layerId = master01;
shapes = (
{
closed = 1;
nodes = (
(566,550,l),
(566,690,l),
(30,690,l),
(30,550,l)
);
},
{
closed = 1;
nodes = (
(378,0,l),
(378,690,l),
(218,690,l),
(218,0,l)
);
},
{
closed = 1;
nodes = (
(518,246,l),
(518,380,l),
(78,380,l),
(78,246,l)
);
}
);
userData = {
com.schriftgestaltung.Glyphs.lastChange = "2021-03-11 23:13:14 +0000";
};
width = 596;
},
{
layerId = master02;
shapes = (
{
closed = 1;
nodes = (
(477,558,l),
(477,690,l),
(25,690,l),
(25,558,l)
);
},
{
closed = 1;
nodes = (
(322,0,l),
(322,690,l),
(180,690,l),
(180,0,l)
);
},
{
closed = 1;
nodes = (
(438,253,l),
(438,379,l),
(63,379,l),
(63,253,l)
);
}
);
userData = {
com.schriftgestaltung.Glyphs.lastChange = "2021-03-11 21:09:29 +0000";
};
width = 502;
},
{
layerId = master03;
shapes = (
{
closed = 1;
nodes = (
(424,636,l),
(424,690,l),
(30,690,l),
(30,636,l)
);
},
{
closed = 1;
nodes = (
(258,0,l),
(258,690,l),
(196,690,l),
(196,0,l)
);
},
{
closed = 1;
nodes = (
(358,306,l),
(358,360,l),
(96,360,l),
(96,306,l)
);
}
);
userData = {
com.schriftgestaltung.Glyphs.lastChange = "2021-03-11 20:56:43 +0000";
};
width = 454;
},
{
layerId = master04;
shapes = (
{
closed = 1;
nodes = (
(444,607,l),
(444,690,l),
(27,690,l),
(27,607,l)
);
},
{
closed = 1;
nodes = (
(281,0,l),
(281,690,l),
(191,690,l),
(191,0,l)
);
},
{
closed = 1;
nodes = (
(399,292,l),
(399,369,l),
(73,369,l),
(73,292,l)
);
}
);
userData = {
com.schriftgestaltung.Glyphs.lastChange = "2021-03-11 21:03:33 +0000";
};
width = 471;
},
{
layerId = master05;
shapes = (
{
closed = 1;
nodes = (
(534,636,l),
(534,690,l),
(40,690,l),
(40,636,l)
);
},
{
closed = 1;
nodes = (
(318,0,l),
(318,690,l),
(256,690,l),
(256,0,l)
);
},
{
closed = 1;
nodes = (
(468,306,l),
(468,360,l),
(106,360,l),
(106,306,l)
);
}
);
userData = {
com.schriftgestaltung.Glyphs.lastChange = "2021-03-11 21:44:58 +0000";
};
width = 574;
},
{
layerId = master06;
shapes = (
{
closed = 1;
nodes = (
(551,604,l),
(551,690,l),
(35,690,l),
(35,604,l)
);
},
{
closed = 1;
nodes = (
(341,0,l),
(341,690,l),
(245,690,l),
(245,0,l)
);
},
{
closed = 1;
nodes = (
(491,290,l),
(491,370,l),
(95,370,l),
(95,290,l)
);
}
);
userData = {
com.schriftgestaltung.Glyphs.lastChange = "2021-03-11 21:49:28 +0000";
};
width = 586;
}
);
unicode = 358;
},
{
color = 9;
glyphname = Tdiagonalstroke;
kernLeft = T;
layers = (
{
anchors = (
{
name = bottom;
pos = (195,0);
},
{
name = top;
pos = (193,690);
},
{
name = topright;
pos = (363,980);
}
);
layerId = master03;
shapes = (
{
closed = 1;
nodes = (
(57,-100,l),
(427,790,l),
(374,790,l),
(4,-100,l)
);
},
{
closed = 1;
nodes = (
(363,636,l),
(363,690,l),
(23,690,l),
(23,636,l)
);
},
{
closed = 1;
nodes = (
(226,0,l),
(226,690,l),
(164,690,l),
(164,0,l)
);
}
);
width = 386;
},
{
anchors = (
{
name = bottom;
pos = (232,0);
},
{
name = top;
pos = (232,690);
},
{
name = topright;
pos = (440,975);
}
);
background = {
shapes = (
{
closed = 1;
nodes = (
(73,-100,l),
(530,790,l),
(455,790,l),
(-2,-100,l)
);
},
{
closed = 1;
nodes = (
(440,607,l),
(440,690,l),
(23,690,l),
(23,607,l)
);
},
{
closed = 1;
nodes = (
(277,0,l),
(277,690,l),
(187,690,l),
(187,0,l)
);
}
);
};
layerId = master04;
shapes = (
{
closed = 1;
nodes = (
(91,-100,l),
(496,790,l),
(421,790,l),
(16,-100,l)
);
},
{
closed = 1;
nodes = (
(440,607,l),
(440,690,l),
(23,690,l),
(23,607,l)
);
},
{
closed = 1;
nodes = (
(277,0,l),
(277,690,l),
(187,690,l),
(187,0,l)
);
}
);
width = 463;
},
{
anchors = (
{
name = bottom;
pos = (247,0);
},
{
name = top;
pos = (247,690);
},
{
name = topright;
pos = (473,965);
}
);
background = {
shapes = (
{
closed = 1;
nodes = (
(70,-100,l),
(622,790,l),
(529,790,l),
(-23,-100,l)
);
},
{
closed = 1;
nodes = (
(473,558,l),
(473,690,l),
(20,690,l),
(20,558,l)
);
},
{
closed = 1;
nodes = (
(318,0,l),
(318,690,l),
(176,690,l),
(176,0,l)
);
}
);
};
layerId = master02;
shapes = (
{
closed = 1;
nodes = (
(71,-100,l),
(496,790,l),
(404,790,l),
(-21,-100,l)
);
},
{
closed = 1;
nodes = (
(473,558,l),
(473,690,l),
(20,690,l),
(20,558,l)
);
},
{
closed = 1;
nodes = (
(318,0,l),
(318,690,l),
(176,690,l),
(176,0,l)
);
}
);
width = 493;
},
{
anchors = (
{
name = bottom;
pos = (282,0);
},
{
name = top;
pos = (282,690);
},
{
name = topright;
pos = (529,980);
}
);
background = {
shapes = (
{
closed = 1;
nodes = (
(94,-100,l),
(626,790,l),
(568,790,l),
(36,-100,l)
);
},
{
closed = 1;
nodes = (
(529,636,l),
(529,690,l),
(35,690,l),
(35,636,l)
);
},
{
closed = 1;
nodes = (
(313,0,l),
(313,690,l),
(251,690,l),
(251,0,l)
);
}
);
};
layerId = master05;
shapes = (
{
closed = 1;
nodes = (
(529,636,l),
(529,690,l),
(35,690,l),
(35,636,l)
);
},
{
closed = 1;
nodes = (
(313,0,l),
(313,690,l),
(251,690,l),
(251,0,l)
);
},
{
closed = 1;
nodes = (
(123,-100,l),
(615,790,l),
(557,790,l),
(65,-100,l)
);
}
);
width = 564;
},
{
anchors = (
{
name = bottom;
pos = (288,0);
},
{
name = top;
pos = (288,690);
},
{
name = topright;
pos = (546,980);
}
);
background = {
shapes = (
{
closed = 1;
nodes = (
(108,-100,l),
(659,790,l),
(581,790,l),
(30,-100,l)
);
},
{
closed = 1;
nodes = (
(546,604,l),
(546,690,l),
(30,690,l),
(30,604,l)
);
},
{
closed = 1;
nodes = (
(336,0,l),
(336,690,l),
(240,690,l),
(240,0,l)
);
}
);
};
layerId = master06;
shapes = (
{
closed = 1;
nodes = (
(98,-100,l),
(613,790,l),
(535,790,l),
(20,-100,l)
);
},
{
closed = 1;
nodes = (
(546,604,l),
(546,690,l),
(30,690,l),
(30,604,l)
);
},
{
closed = 1;
nodes = (
(336,0,l),
(336,690,l),
(240,690,l),
(240,0,l)
);
}
);
width = 576;
},
{
anchors = (
{
name = bottom;
pos = (293,0);
},
{
name = top;
pos = (293,690);
},
{
name = topright;
pos = (561,965);
}
);
background = {
shapes = (
{
closed = 1;
nodes = (
(86,-100,l),
(733,790,l),
(633,790,l),
(-14,-100,l)
);
},
{
closed = 1;
nodes = (
(561,550,l),
(561,690,l),
(25,690,l),
(25,550,l)
);
},
{
closed = 1;
nodes = (
(373,0,l),
(373,690,l),
(213,690,l),
(213,0,l)
);
}
);
};
layerId = master01;
shapes = (
{
closed = 1;
nodes = (
(129,-100,l),
(664,790,l),
(563,790,l),
(28,-100,l)
);
},
{
closed = 1;
nodes = (
(561,550,l),
(561,690,l),
(25,690,l),
(25,550,l)
);
},
{
closed = 1;
nodes = (
(373,0,l),
(373,690,l),
(213,690,l),
(213,0,l)
);
}
);
width = 586;
}
);
unicode = 574;
},
{
color = 9;
glyphname = U;
kernLeft = U;
kernRight = U;
layers = (
{
anchors = (
{
name = bottom;
pos = (362,0);
},
{
name = horn;
pos = (589,690);
},
{
name = ogonek;
pos = (424,0);
},
{
name = top;
pos = (364,690);
}
);
layerId = master01;
shapes = (
{
closed = 1;
nodes = (
(75,91,o),
(201,-12,o),
(362,-12,cs),
(523,-12,o),
(649,91,o),
(649,275,cs),
(649,690,l),
(493,690,l),
(493,295,ls),
(493,181,o),
(438,131,o),
(364,131,cs),
(290,131,o),
(235,181,o),
(235,295,cs),
(235,690,l),
(75,690,l),
(75,275,ls)
);
}
);
userData = {
com.schriftgestaltung.Glyphs.lastChange = "2021-03-17 20:51:46 +0000";
};
width = 724;
},
{
anchors = (
{
name = bottom;
pos = (305,0);
},
{
name = horn;
pos = (489,690);
},
{
name = ogonek;
pos = (367,0);
},
{
name = top;
pos = (307,690);
}
);
layerId = master02;
shapes = (
{
closed = 1;
nodes = (
(61,75,o),
(158,-12,o),
(305,-12,cs),
(452,-12,o),
(549,75,o),
(549,271,cs),
(549,690,l),
(411,690,l),
(411,290,ls),
(411,165,o),
(376,123,o),
(307,123,cs),
(238,123,o),
(203,165,o),
(203,290,cs),
(203,690,l),
(61,690,l),
(61,271,ls)
);
}
);
userData = {
com.schriftgestaltung.Glyphs.lastChange = "2021-03-17 20:42:44 +0000";
};
width = 610;
},
{
anchors = (
{
name = bottom;
pos = (245,0);
},
{
name = horn;
pos = (381,690);
},
{
name = ogonek;
pos = (252,0);
},
{
name = top;
pos = (247,690);
}
);
layerId = master03;
shapes = (
{
closed = 1;
nodes = (
(69,86,o),
(102,-8,o),
(245,-8,cs),
(389,-8,o),
(421,86,o),
(421,203,cs),
(421,690,l),
(359,690,l),
(359,208,ls),
(359,124,o),
(339,49,o),
(245,49,cs),
(161,49,o),
(131,123,o),
(131,208,cs),
(131,690,l),
(69,690,l),
(69,203,ls)
);
}
);
userData = {
com.schriftgestaltung.Glyphs.lastChange = "2021-03-31 02:28:51 +0000";
};
width = 490;
},
{
anchors = (
{
name = bottom;
pos = (284,0);
},
{
name = horn;
pos = (450,690);
},
{
name = ogonek;
pos = (276,0);
},
{
name = top;
pos = (285,690);
}
);
layerId = master04;
shapes = (
{
closed = 1;
nodes = (
(69,73,o),
(153,-10,o),
(285,-10,cs),
(416,-10,o),
(500,73,o),
(500,249,cs),
(500,690,l),
(412,690,l),
(412,253,ls),
(412,120,o),
(361,76,o),
(286,76,cs),
(210,76,o),
(159,120,o),
(159,253,cs),
(159,690,l),
(69,690,l),
(69,249,ls)
);
}
);
userData = {
com.schriftgestaltung.Glyphs.lastChange = "2021-03-17 20:30:06 +0000";
};
width = 569;
},
{
anchors = (
{
name = bottom;
pos = (346,0);
},
{
name = horn;
pos = (552,690);
},
{
name = ogonek;
pos = (380,0);
},
{
name = top;
pos = (346,690);
}
);
layerId = master05;
shapes = (
{
closed = 1;
nodes = (
(100,78,o),
(207,-8,o),
(346,-8,cs),
(485,-8,o),
(592,78,o),
(592,245,cs),
(592,690,l),
(530,690,l),
(530,250,ls),
(530,116,o),
(451,49,o),
(346,49,cs),
(241,49,o),
(162,116,o),
(162,250,cs),
(162,690,l),
(100,690,l),
(100,245,ls)
);
}
);
userData = {
com.schriftgestaltung.Glyphs.lastChange = "2021-03-17 20:43:58 +0000";
};
width = 692;
},
{
anchors = (
{
name = bottom;
pos = (353,0);
},
{
name = horn;
pos = (566,690);
},
{
name = ogonek;
pos = (404,0);
},
{
name = top;
pos = (353,690);
}
);
layerId = master06;
shapes = (
{
closed = 1;
nodes = (
(90,83,o),
(204,-10,o),
(353,-10,cs),
(502,-10,o),
(616,83,o),
(616,250,cs),
(616,690,l),
(522,690,l),
(522,260,ls),
(522,143,o),
(456,79,o),
(354,79,cs),
(252,79,o),
(186,143,o),
(186,260,cs),
(186,690,l),
(90,690,l),
(90,250,ls)
);
}
);
userData = {
com.schriftgestaltung.Glyphs.lastChange = "2021-03-17 21:17:07 +0000";
};
width = 706;
}
);
unicode = 85;
},
{
color = 9;
glyphname = Upsilonafrican;
layers = (
{
anchors = (
{
name = bottom;
pos = (298,0);
},
{
name = top;
pos = (298,690);
}
);
layerId = master03;
shapes = (
{
closed = 1;
nodes = (
(198,52,o),
(114,144,o),
(114,325,cs),
(114,446,o),
(160,562,o),
(237,620,c),
(237,690,l),
(50,690,l),
(50,634,l),
(214,634,l),
(237,680,l),
(110,610,o),
(50,460,o),
(50,325,cs),
(50,106,o),
(167,-8,o),
(293,-8,cs),
(419,-8,o),
(546,106,o),
(546,325,cs),
(546,460,o),
(486,610,o),
(359,680,c),
(382,634,l),
(546,634,l),
(546,690,l),
(359,690,l),
(359,620,l),
(436,562,o),
(482,446,o),
(482,325,cs),
(482,144,o),
(388,52,o),
(293,52,cs)
);
}
);
userData = {
com.schriftgestaltung.Glyphs.lastChange = "2021-03-18 21:04:18 +0000";
};
width = 596;
},
{
anchors = (
{
name = bottom;
pos = (291,0);
},
{
name = top;
pos = (291,690);
}
);
layerId = master04;
shapes = (
{
closed = 1;
nodes = (
(210,77,o),
(144,160,o),
(144,308,cs),
(144,436,o),
(192,531,o),
(245,583,c),
(245,690,l),
(66,690,l),
(66,612,l),
(202,612,l),
(245,672,l),
(135,616,o),
(54,450,o),
(54,299,cs),
(54,78,o),
(170,-10,o),
(294,-10,cs),
(413,-10,o),
(527,78,o),
(527,299,cs),
(527,450,o),
(443,616,o),
(337,672,c),
(379,612,l),
(515,612,l),
(515,690,l),
(337,690,l),
(337,583,l),
(389,531,o),
(437,436,o),
(437,308,cs),
(437,160,o),
(372,77,o),
(294,77,cs)
);
}
);
userData = {
com.schriftgestaltung.Glyphs.lastChange = "2021-03-12 01:47:04 +0000";
};
width = 581;
},
{
anchors = (
{
name = bottom;
pos = (305,0);
},
{
name = top;
pos = (305,690);
}
);
layerId = master02;
shapes = (
{
closed = 1;
nodes = (
(231,129,o),
(194,200,o),
(194,315,cs),
(194,407,o),
(226,489,o),
(261,537,c),
(261,690,l),
(59,690,l),
(59,567,l),
(217,567,l),
(261,654,l),
(153,602,o),
(55,444,o),
(55,284,cs),
(55,92,o),
(158,-12,o),
(305,-12,cs),
(452,-12,o),
(555,92,o),
(555,284,cs),
(555,444,o),
(456,602,o),
(349,654,c),
(393,567,l),
(551,567,l),
(551,690,l),
(349,690,l),
(349,537,l),
(384,489,o),
(416,407,o),
(416,315,cs),
(416,200,o),
(378,129,o),
(305,129,cs)
);
}
);
userData = {
com.schriftgestaltung.Glyphs.lastChange = "2021-03-12 02:01:39 +0000";
};
width = 610;
},
{
anchors = (
{
name = bottom;
pos = (353,0);
},
{
name = top;
pos = (353,690);
}
);
layerId = master05;
shapes = (
{
closed = 1;
nodes = (
(228,52,o),
(134,150,o),
(134,325,cs),
(134,466,o),
(216,562,o),
(293,620,c),
(293,690,l),
(70,690,l),
(70,634,l),
(270,634,l),
(293,680,l),
(166,610,o),
(70,480,o),
(70,325,cs),
(70,112,o),
(197,-8,o),
(353,-8,cs),
(509,-8,o),
(636,112,o),
(636,325,cs),
(636,480,o),
(540,610,o),
(413,680,c),
(436,634,l),
(636,634,l),
(636,690,l),
(413,690,l),
(413,620,l),
(490,562,o),
(572,466,o),
(572,325,cs),
(572,150,o),
(478,52,o),
(353,52,cs)
);
}
);
userData = {
com.schriftgestaltung.Glyphs.lastChange = "2021-03-12 00:57:48 +0000";
};
width = 706;
},
{
anchors = (
{
name = bottom;
pos = (363,0);
},
{
name = top;
pos = (363,690);
}
);
layerId = master06;
shapes = (
{
closed = 1;
nodes = (
(252,79,o),
(169,168,o),
(169,325,cs),
(169,456,o),
(231,540,o),
(293,580,c),
(293,690,l),
(70,690,l),
(70,609,l),
(240,609,l),
(293,660,l),
(166,596,o),
(70,486,o),
(70,325,cs),
(70,112,o),
(202,-10,o),
(363,-10,cs),
(524,-10,o),
(656,112,o),
(656,325,cs),
(656,486,o),
(560,596,o),
(433,660,c),
(486,609,l),
(656,609,l),
(656,690,l),
(433,690,l),
(433,580,l),
(495,540,o),
(557,456,o),
(557,325,cs),
(557,168,o),
(474,79,o),
(363,79,cs)
);
}
);
userData = {
com.schriftgestaltung.Glyphs.lastChange = "2021-03-11 20:12:45 +0000";
};
width = 726;
},
{
anchors = (
{
name = bottom;
pos = (363,0);
},
{
name = top;
pos = (363,690);
}
);
layerId = master01;
shapes = (
{
closed = 1;
nodes = (
(281,138,o),
(220,206,o),
(220,325,cs),
(220,410,o),
(250,480,o),
(293,530,c),
(293,690,l),
(70,690,l),
(70,560,l),
(240,560,l),
(293,630,l),
(170,580,o),
(70,470,o),
(70,310,cs),
(70,110,o),
(202,-12,o),
(363,-12,cs),
(524,-12,o),
(656,110,o),
(656,310,cs),
(656,470,o),
(556,580,o),
(433,630,c),
(486,560,l),
(656,560,l),
(656,690,l),
(433,690,l),
(433,530,l),
(476,480,o),
(506,410,o),
(506,325,cs),
(506,206,o),
(445,138,o),
(363,138,cs)
);
}
);
userData = {
com.schriftgestaltung.Glyphs.lastChange = "2021-03-11 04:14:59 +0000";
};
width = 726;
}
);
unicode = 433;
},
{
color = 9;
glyphname = V;
kernLeft = V;
kernRight = V;
layers = (
{
layerId = master01;
shapes = (
{
closed = 1;
nodes = (
(251,0,l),
(343,0,l),
(347,156,l),
(170,690,l),
(0,690,l)
);
},
{
closed = 1;
nodes = (
(321,0,l),
(405,0,l),
(656,690,l),
(490,690,l),
(313,156,l)
);
}
);
userData = {
com.schriftgestaltung.Glyphs.lastChange = "2021-03-11 23:13:14 +0000";
};
width = 656;
},
{
layerId = master02;
shapes = (
{
closed = 1;
nodes = (
(198,0,l),
(289,0,l),
(293,136,l),
(148,690,l),
(-2,690,l)
);
},
{
closed = 1;
nodes = (
(272,0,l),
(356,0,l),
(556,690,l),
(408,690,l),
(264,136,l)
);
}
);
userData = {
com.schriftgestaltung.Glyphs.lastChange = "2021-03-11 21:10:45 +0000";
};
width = 553;
},
{
layerId = master03;
shapes = (
{
closed = 1;
nodes = (
(217,0,l),
(261,0,l),
(259,31,l),
(77,690,l),
(12,690,l)
);
},
{
closed = 1;
nodes = (
(229,0,l),
(269,0,l),
(474,690,l),
(412,690,l),
(227,31,l)
);
}
);
userData = {
com.schriftgestaltung.Glyphs.lastChange = "2021-03-31 02:31:14 +0000";
};
width = 485;
},
{
layerId = master04;
shapes = (
{
closed = 1;
nodes = (
(210,0,l),
(271,0,l),
(272,86,l),
(104,690,l),
(12,690,l)
);
},
{
closed = 1;
nodes = (
(247,0,l),
(303,0,l),
(502,690,l),
(412,690,l),
(245,86,l)
);
}
);
userData = {
com.schriftgestaltung.Glyphs.lastChange = "2021-03-11 21:04:01 +0000";
};
width = 513;
},
{
layerId = master05;
shapes = (
{
closed = 1;
nodes = (
(265,0,l),
(309,0,l),
(307,45,l),
(85,690,l),
(20,690,l)
);
},
{
closed = 1;
nodes = (
(277,0,l),
(317,0,l),
(562,690,l),
(500,690,l),
(275,45,l)
);
}
);
userData = {
com.schriftgestaltung.Glyphs.lastChange = "2021-03-11 21:44:58 +0000";
};
width = 582;
},
{
layerId = master06;
shapes = (
{
closed = 1;
nodes = (
(276,0,l),
(337,0,l),
(337,90,l),
(124,690,l),
(20,690,l)
);
},
{
closed = 1;
nodes = (
(303,0,l),
(360,0,l),
(616,690,l),
(516,690,l),
(303,90,l)
);
}
);
userData = {
com.schriftgestaltung.Glyphs.lastChange = "2021-03-11 23:04:40 +0000";
};
width = 636;
}
);
unicode = 86;
},
